<svg xmlns="http://www.w3.org/2000/svg" xmlns:xlink="http://www.w3.org/1999/xlink" version="1.1" x="0px" y="0px" width="145.061px" height="145.061px" viewBox="0 0 145.061 145.061" xml:space="preserve">
  <g id="guides"/>
  <g id="artwork">
    <path fill="#B2B2B2" d="M72.524 97.022c13.523 0 24.496-10.943 24.496-24.485 0-13.525-10.973-24.48-24.496-24.48 -13.528 0-24.486 10.955-24.486 24.48C48.038 86.079 58.996 97.022 72.524 97.022zM72.524 0C32.463 0 0 32.493 0 72.537c0 15.93 5.186 30.602 13.875 42.565l18.571-18.576c-4.214-7.018-6.688-15.203-6.688-23.989 0-25.826 20.949-46.756 46.767-46.756 25.818 0 46.752 20.93 46.752 46.756 0 25.831-20.934 46.764-46.752 46.764 -8.606 0-16.646-2.373-23.574-6.43l-18.606 18.592c11.905 8.523 26.436 13.598 42.181 13.598 40.057 0 72.535-32.465 72.535-72.524C145.06 32.493 112.581 0 72.524 0z"/>
  </g>
</svg>
