<svg xmlns="http://www.w3.org/2000/svg" width="451.215" height="451.214" viewBox="0 0 451.215 451.214"><path d="M434.262 377.113c-14.697-21.898-37.03-48.195-62.887-74.05-14.203-14.204-29.113-27.854-43.115-39.476-1.62-1.346-3.793-1.82-5.826-1.278-2.035.54-3.682 2.03-4.416 4.01-2.19 5.88-5.758 11.32-10.604 16.16-3.98 3.98-8.113 7.11-12.285 9.31-1.74.91-2.97 2.56-3.35 4.49-.38 1.93.13 3.92 1.39 5.43 11.27 13.47 24.45 27.81 38.09 41.45 47.01 47.012 92.69 79.846 111.08 79.847 2.822 0 5.033-.778 6.564-2.31 7.223-7.225-3.984-27.698-14.66-43.6zM243.857 243.007c1.158 7.334 2.47 15.647 6.73 24.82 5.792 12.473 15.584 19.92 26.19 19.922h.003c8.016 0 16.086-4.01 23.99-11.91 11.2-11.21 14.574-25.89 9.023-39.28-7.363-17.78-28.377-29.27-53.533-29.27-5.537 0-11.322.53-17.195 1.58-2.3.41-4.2 2.02-4.98 4.23-.78 2.2-.316 4.65 1.21 6.42 5.935 6.86 7.152 14.56 8.562 23.48z"/><path d="M412.197 28.19H6.5c-3.59 0-6.5 2.91-6.5 6.5v275.47c0 3.59 2.91 6.5 6.5 6.5h278.21l-13.29-17.07c-26.898 0-34.912-25.93-37.26-25.93H43V71.19h332.697v202.47h-15.26l41.412 43h10.34c3.59 0 6.5-2.91 6.5-6.5V34.69c0-3.59-2.91-6.5-6.5-6.5z"/><path d="M224.655 199.42c1.22 1.138 2.81 1.747 4.434 1.747.6 0 1.2-.083 1.8-.255 4.1-1.183 10.13-2.898 15.64-4.357 1.33-.354 2.52-1.125 3.39-2.2 1.52-1.877 3.29-3.85 4.6-5.293 6.48-7.193 15.35-17.043 11.45-28.758-2.02-5.867-6.03-10.2-11.6-12.533-2.95-1.23-6.15-1.83-9.79-1.83-12.588 0-28.44 7.62-45.22 15.69-7.49 3.6-19.42 9.33-26.38 11.35 1.64-4.16 4.89-9.96 7.18-14.05 3.97-7.08 8.07-14.41 10.18-21.56 4.59-15.572-2.56-23.93-7.28-27.56l-.09-.07c-4.23-3.17-8.94-4.78-14-4.78-14.48 0-29.068 12.83-40.79 23.144-4.8 4.22-8.537 7.42-11.15 9.304-2.09 1.503-3.1 4.097-2.568 6.615l2.626 12.473c.42 1.997 1.752 3.68 3.595 4.545 1.847.87 3.99.82 5.794-.13 5.62-2.956 11.46-8.09 18.22-14.04 5.54-4.87 11.27-9.91 16.52-13.343 2.217-1.445 3.876-2.292 5.07-2.79-1.496 4.48-5.57 11.75-7.94 15.99-4.03 7.2-8.2 14.65-10.16 21.788-4.62 16.81 5.147 24.7 9.523 27.29 3.232 1.943 6.865 2.887 11.106 2.887 11.16 0 25.154-6.725 41.36-14.51 8.074-3.88 16.424-7.89 23.46-10.48.544-.2 1.08-.39 1.6-.57-4.96 5.513-10.81 12.28-12.51 20.196-.486 2.235.244 4.56 1.916 6.12z"/></svg>