<svg xmlns="http://www.w3.org/2000/svg" width="82.38" height="82.38" viewBox="0 0 82.38 82.38"><path d="M82.38 64.778v15.706H0V64.778h66.857c.03-3.323-.522-7.08-2.625-9.85-1.854-2.445-4.71-3.818-8.492-4.105-.31.585-.904.996-1.612.996H50.96c-1.02 0-1.85-.83-1.85-1.85 0-1.03.83-1.85 1.85-1.85h3.168c.827 0 1.5.55 1.737 1.3 4.193.32 7.385 1.87 9.492 4.65 2.34 3.09 2.955 7.14 2.926 10.7H82.38zm-41.19-28.51c9.492 0 17.187-7.693 17.187-17.186S50.682 1.896 41.19 1.896c-9.493 0-17.187 7.694-17.187 17.187 0 9.493 7.694 17.186 17.187 17.186zm21.05 20.32c-1.23-1.624-3.045-2.607-5.525-2.99-.736.557-1.638.872-2.587.872H50.96c-2.397 0-4.35-1.95-4.35-4.35 0-2.397 1.952-4.35 4.35-4.35h3.168c1.257 0 2.412.544 3.213 1.443 3.76.512 6.79 1.978 9.05 4.365 0-.09 0-.18-.01-.27l-.79-3.934c-1.93-6.203-6.96-11.046-13.27-12.716-2.92 2.724-6.82 4.404-11.12 4.404-4.3 0-8.2-1.68-11.12-4.404-8.12 2.147-14.13 9.537-14.13 18.322v9.443h48.31c-.25-2.427-.93-4.42-2.005-5.836z"/></svg>