<svg xmlns="http://www.w3.org/2000/svg" viewBox="0 0 216.051 216.051"><path d="M123.566 82.978v-69.2h3.716c3.804 0 6.89-3.085 6.89-6.89 0-3.803-3.085-6.888-6.89-6.888H88.77c-3.806 0-6.89 3.084-6.89 6.89 0 3.803 3.084 6.887 6.89 6.887h3.917v69.157c-14.416 3.168-27.52 10.8-37.252 21.773-10.828 12.208-16.79 27.817-16.79 43.952 0 37.15 31.124 67.39 69.38 67.39 38.258 0 69.382-30.23 69.382-67.39 0-31.75-22.396-58.74-53.84-65.69zM98.46 92.02l4.227-.662V14.832h10.88V91.38l4.21.672c25.666 4.098 45.037 23.507 48.908 47.687H49.363c3.875-24.26 23.324-43.69 49.097-47.72z"/></svg>