<svg xmlns="http://www.w3.org/2000/svg" width="31.312" height="31.312" viewBox="0 0 31.312 31.312"><path d="M23.695 15.25h5.052v1.878h-5.052z"/><path d="M2.93.463v2.953l1.29-.398V1.753h25.8V18.2H9.49l-.067 1.29h21.89V.463"/><circle cx="4.983" cy="7.526" r="3.821"/><path d="M8.227 29.105v-8.313h.243l.355-6.906 6.59-3.415-.554-1.06.17.28 7.06-4.04-.32-.56-7.05 4.04-.16-.312-6.02 3.12H6.38l-1.458 1.69-1.41-1.69-3.1.575-.195 6.867H1.53l.07 1.43h.2v8.314h-.263L0 29.44v1.412h1.305l1.524-.248.01.248h1.69v-8.548h.96v8.548h1.69l.01-.248 1.52.248h1.3V29.44l-1.535-.333"/></svg>