<svg xmlns="http://www.w3.org/2000/svg" width="145.061" height="145.061" viewBox="0 0 145.061 145.061"><path fill="#B2B2B2" d="M72.524 97.022c13.523 0 24.496-10.943 24.496-24.485 0-13.525-10.973-24.48-24.496-24.48-13.528 0-24.486 10.955-24.486 24.48 0 13.542 10.958 24.485 24.486 24.485zm0-97.022C32.464 0 0 32.493 0 72.537c0 15.93 5.186 30.602 13.875 42.565l18.57-18.576c-4.213-7.018-6.687-15.203-6.687-23.99 0-25.825 20.95-46.755 46.767-46.755 25.818 0 46.752 20.93 46.752 46.76s-20.934 46.77-46.752 46.77c-8.606 0-16.646-2.37-23.574-6.43l-18.6 18.6C42.26 140 56.79 145.08 72.53 145.08c40.06 0 72.54-32.464 72.54-72.523C145.06 32.495 112.58 0 72.53 0z"/></svg>