<svg xmlns="http://www.w3.org/2000/svg" width="423.18" height="423.18" viewBox="0 0 423.18 423.18"><path d="M299.736 352.75H253.5v-45.32h46.236v-30H30v-214h352.996v120.2h23.91c2.103 0 4.145.285 6.09.81V53.43c0-11.046-8.953-20-20-20H20c-11.047 0-20 8.954-20 20v234c0 11.046 8.953 20 20 20h139.498v45.32h-54.283c-10.2 0-18.5 8.3-18.5 18.5s8.3 18.5 18.5 18.5h198.74c-2.655-3.792-4.22-8.4-4.22-13.372V352.75z"/><path d="M354.998 146.368V91.36c0-2.76-2.238-5-5-5h-287c-2.762 0-5 2.24-5 5v55.01c0 2.76 2.238 5 5 5h287c2.762-.002 5-2.24 5-5.002zm-1.033 37.262v-9.41c0-2.19-1.774-3.965-3.967-3.965h-64.72c-2.188 0-3.966 1.775-3.966 3.966v76.34c0 2.19 1.775 3.97 3.967 3.97h14.45V207c0-12.887 10.48-23.37 23.37-23.37h30.86zM62.998 170.255c-2.19 0-3.967 1.775-3.967 3.966v76.34c0 2.19 1.78 3.97 3.97 3.97h188.78c2.19 0 3.97-1.77 3.97-3.97v-76.34c0-2.19-1.77-3.96-3.96-3.96H63z"/><path d="M409.81 193.63h-83.8c-7.372 0-13.37 5.998-13.37 13.37v169.378c0 7.372 5.998 13.37 13.37 13.37h83.8c7.372 0 13.37-5.998 13.37-13.37V207c0-7.372-5.998-13.37-13.37-13.37zm-41.9 186.526c-3.14 0-5.686-2.544-5.686-5.683 0-3.138 2.545-5.683 5.686-5.683 3.137 0 5.682 2.545 5.682 5.683 0 3.14-2.545 5.683-5.682 5.683zm46.356-17.7h-92.71V220.923h92.71v141.53z"/><path d="M333.948 306.947h67.924c.936 0 1.69-.758 1.69-1.692v-27.13c0-.938-.757-1.692-1.69-1.692h-67.924c-.936 0-1.692.758-1.692 1.692v27.13c0 .934.76 1.692 1.692 1.692zm0 42.686h67.924c.936 0 1.69-.757 1.69-1.693v-27.13c0-.937-.757-1.694-1.69-1.694h-67.924c-.936 0-1.692.76-1.692 1.695v27.13c0 .94.76 1.7 1.692 1.7zm0-85.37h67.924c.936 0 1.69-.757 1.69-1.694v-27.13c0-.94-.757-1.7-1.69-1.7h-67.924c-.936 0-1.692.76-1.692 1.69v27.13c0 .93.76 1.69 1.692 1.69z"/></svg>