<svg xmlns="http://www.w3.org/2000/svg" width="79.536" height="79.536" viewBox="0 0 79.536 79.536"><path d="M26.77 48.376c.21.963.464 1.885.793 2.796H0V1.732h2.794v46.644H26.77zm11-23.133l3.8-9.03 4.07 1.713-1.533-12.243-9.833 7.454 4.036 1.7-4.433 10.54-6.082-7.033-6.348 12.07-6.367-6.167-7.27 16.51 3.233 1.42 5.223-11.854 6.11 5.91L28.51 24.58l3.93 4.546c1.564-1.565 3.356-2.886 5.33-3.882zm41.34 44.84l-12.648-13.93c-.503-.544-1.254-.56-1.89-.27-1.68 2.444-3.85 4.475-6.34 5.997-.118.518-.082 1.05.296 1.465l12.646 13.92c.61.672 1.65.725 2.335.107l5.48-4.97c.67-.6.72-1.646.11-2.32zM65.525 43.985c0 1.99-.332 3.998-1.01 5.976-3.295 9.52-13.677 14.55-23.19 11.26C33.775 58.61 29.05 51.56 29.05 44c0-1.976.32-3.982 1.01-5.965 3.29-9.515 13.67-14.556 23.19-11.262 7.54 2.6 12.278 9.665 12.278 17.22zm-4.95 0c0-5.652-3.594-10.703-8.948-12.554-3.355-1.15-6.954-.94-10.156.61-3.18 1.55-5.58 4.26-6.74 7.61-.49 1.42-.73 2.88-.73 4.35 0 5.66 3.6 10.72 8.96 12.56 3.35 1.17 6.958.96 10.16-.6 3.19-1.54 5.58-4.25 6.74-7.6.487-1.414.73-2.874.73-4.355z" fill="#010002"/></svg>