<svg xmlns="http://www.w3.org/2000/svg" viewBox="0 0 377.64 377.64"><path d="M369.64 354.74H8c-4.418 0-8-3.583-8-8s3.582-8 8-8h361.64c4.418 0 8 3.58 8 8s-3.582 8-8 8zm-14.672-36.464c-4.418 0-8-3.582-8-8V133.49H147.764c-4.418 0-8-3.582-8-8s3.582-8 8-8H354.97c4.417 0 8 3.582 8 8v184.785c-.002 4.42-3.583 8-8.002 8zm-277.86 0c-4.417 0-8-3.582-8-8v-131.07c0-4.418 3.583-8 8-8s8 3.582 8 8v131.07c0 4.418-3.58 8-8 8zm243.87-15.925h-32.584c-4.418 0-8-3.58-8-8v-46.53c0-4.42 3.582-8 8-8h32.584c4.418 0 8 3.58 8 8v46.53c0 4.42-3.582 8-8 8zm-24.584-16h16.584v-30.53h-16.584v30.53zm-40.713 16H223.1c-4.418 0-8-3.58-8-8v-46.53c0-4.42 3.582-8 8-8h32.584c4.42 0 8 3.58 8 8v46.53c0 4.42-3.58 8-8 8zm-24.58-16h16.59v-30.53H231.1v30.53zm-40.71 16H157.8c-4.42 0-8-3.58-8-8v-46.53c0-4.42 3.58-8 8-8h32.584c4.418 0 8 3.58 8 8v46.53c0 4.42-3.582 8-8 8zm-24.58-16h16.59v-30.53h-16.6v30.53zM41.73 269.37c-2.605 0-5.16-1.27-6.696-3.61-4.98-7.583-7.786-16.29-8.17-25.31C10.59 231.8 0 214.578 0 195.987c0-18.59 10.593-35.812 26.858-44.464 1.14-26.73 23.243-48.13 50.25-48.13 27.008 0 49.11 21.398 50.25 48.13 16.267 8.65 26.86 25.87 26.86 44.46s-10.594 35.81-26.86 44.46c-.386 8.97-3.168 17.645-8.104 25.21-2.414 3.7-7.37 4.74-11.07 2.326s-4.744-7.37-2.33-11.07c3.632-5.57 5.55-12.01 5.55-18.64 0-.76-.027-1.53-.084-2.36-.24-3.48 1.804-6.72 5.05-7.997 13.068-5.142 21.848-17.98 21.848-31.94s-8.78-26.795-21.847-31.94c-3.24-1.275-5.29-4.51-5.05-7.992.06-.83.09-1.602.09-2.36 0-18.91-15.38-34.293-34.29-34.293s-34.29 15.39-34.29 34.3c0 .763.03 1.56.085 2.356.243 3.487-1.8 6.72-5.05 8C24.78 169.19 16 182.02 16 195.98s8.78 26.798 21.847 31.94c3.247 1.278 5.292 4.513 5.05 7.995-.056.83-.084 1.603-.084 2.362 0 6.654 1.935 13.12 5.595 18.7 2.424 3.694 1.394 8.654-2.3 11.08-1.354.885-2.876 1.31-4.382 1.31zm279.253-50.69H288.4c-4.42 0-8-3.58-8-8v-46.53c0-4.42 3.58-8 8-8h32.583c4.416 0 8 3.58 8 8v46.53c0 4.42-3.584 8-8 8zm-24.584-16h16.58v-30.53h-16.59v30.53zm-40.72 16H223.1c-4.418 0-8-3.58-8-8v-46.53c0-4.42 3.582-8 8-8h32.584c4.42 0 8 3.58 8 8v46.53c0 4.42-3.58 8-8 8zm-24.58-16h16.585v-30.53H231.1v30.53zm-40.713 16h-15.16c-4.42 0-8-3.58-8-8s3.58-8 8-8h7.152v-30.53h-7.154c-4.42 0-8-3.58-8-8s3.58-8 8-8h15.15c4.42 0 8 3.58 8 8v46.53c0 4.42-3.58 8-8 8zm141.09-115.63c-4.42 0-8-3.58-8-8V38.9H209.77v56.15c0 4.418-3.58 8-8 8s-8-3.582-8-8V30.9c0-4.417 3.583-8 8-8h129.71c4.417 0 8 3.583 8 8v64.15c0 4.42-3.582 8-8 8zM298.2 90.03c-4.42 0-8-3.582-8-8V66.472c0-4.418 3.58-8 8-8s8 3.582 8 8v15.555c0 4.42-3.583 8-8 8zm-31.576 0c-4.418 0-8-3.582-8-8V66.472c0-4.418 3.582-8 8-8s8 3.582 8 8v15.555c0 4.42-3.582 8-8 8zm-31.572 0c-4.418 0-8-3.582-8-8V66.472c0-4.418 3.582-8 8-8s8 3.582 8 8v15.555c0 4.42-3.582 8-8 8z"/></svg>