<svg xmlns="http://www.w3.org/2000/svg" viewBox="0 0 30.22 30.22"><path d="M10.184 17.944c0 1.31-1.063 2.37-2.37 2.37-1.308 0-2.37-1.06-2.37-2.37 0-1.308 1.062-2.37 2.37-2.37 1.305 0 2.37 1.062 2.37 2.37zm.137 3.847l3.52 6.76-2.08-.08-1.132 1.76-2.53-4.86-1.38 4.69-1.45-1.506-2.034.477 2.12-7.197c-1.274-.82-2.12-2.25-2.12-3.88 0-2.54 2.06-4.595 4.597-4.595s4.6 2.053 4.6 4.593c0 1.61-.83 3.03-2.09 3.848zm1.61-4.5l-.98.21c.05.22.07.25.07.48 0 .47-.1.93-.29 1.35l.91.43c.26-.56.397-1.152.397-1.77 0-.3-.034-.394-.096-.682zm-2.61-2.14c.41.22.77.53 1.05.9l.81-.6c-.36-.48-.84-.89-1.37-1.18l-.474.89zm-3.06-1.1l.37.94c.38-.14.77-.22 1.18-.22.067 0 .13 0 .19.01l.06-1.005c-.08-.004-.16-.007-.244-.007-.53 0-1.053.1-1.543.293zm-2.45 2.56l.96.33c.15-.43.4-.84.72-1.18l-.73-.69c-.42.44-.742.98-.94 1.55zm1.24 3.01c-.24-.4-.38-.84-.43-1.31l-1 .11c.066.618.26 1.19.577 1.72l.864-.51zm.42 1.79l-.03.05.02.01.02-.05zm1.82-.27c-.46-.07-.89-.25-1.28-.51l-.53.78.607.41c.33.15.68.26 1.044.32l.165-.99zm3.47-3.16c0-1.62-1.32-2.94-2.94-2.94s-2.95 1.318-2.95 2.94c0 1.628 1.318 2.945 2.944 2.945s2.945-1.317 2.945-2.942zm-1.82 4.07c.595-.163 1.13-.45 1.606-.85l-.65-.765c-.36.303-.77.52-1.223.646l.27.97zm10.68 2.015l.51.36c.01-.01.78-1.074 2.07-.97l.057-.623c-1.635-.143-2.598 1.18-2.635 1.234zm3.68-1.112l-.62-.077-.08.635.623.08.08-.633zM7.14 0v12.696c.218-.042.443-.065.673-.065.2 0 .394.02.582.06V1.26H25.75V25.3H12.853l.695 1.255H27V0H7.142zm5.75 3.136V4.39h8.36V3.137h-8.36zm-2.56 3.948H23.4v-.707H10.33v.707zm0 2.117H23.4v-.7H10.33v.71zm0 2.17H23.4v-.7H10.33v.71zm0 2.21H23.4v-.71H10.33v.71zm11.995 8.21c-.045-.03-.092-.06-.133-.08-.1.05-.207.09-.33.12l-.88.7c-.196.156-.442.35-.665.35-.09 0-.176-.032-.254-.107-.13-.127-.253-.25.176-.926-.92-.123-1.42-.35-1.63-.72-.22-.39-.03-.783.1-1.07.04-.09.1-.22.1-.277-.02.01-.12-.038-.385-.06-.183-.012-.42-.003-.494.126-.223.38.346 1.56.798 2.24l-.55.37c-.224-.34-1.32-2.073-.815-2.94.136-.235.443-.5 1.115-.45.33.025.736.094.91.396.176.3.03.614-.09.87-.08.18-.17.38-.12.474.037.06.228.27 1.21.395.097.014.185.02.27.03l.032-.046c-.174-.293-.42-.81-.24-1.21.08-.17.27-.385.7-.42.57-.05 1.14.382 1.398.81.177.3.218.61.114.876.01.01.016.01.02.02l.25.16-.37.55-.24-.16zm-.266-.9c-.02-.08-.06-.15-.08-.19-.17-.27-.5-.49-.74-.49h-.03c-.12.012-.16.04-.16.04-.05.084.09.456.31.755l.142.2-.023.028c.024 0 .054-.005.075-.01l.44-.345.044.026z" fill="#010002"/></svg>