<svg xmlns="http://www.w3.org/2000/svg" width="47.98" height="47.98"><path d="M19.342 37.413c-.266 0-.532-.11-.723-.325-2.21-2.49-2.39-7.81-2.4-8.035 0-2.004-1.25-4.082-2.69-6.49C11.29 18.83 8.75 14.6 9.93 9.09 11.738.655 20.808 0 23.543 0c.538 0 .97.44.97.98s-.433.98-.97.98c-3.035 0-10.254.734-11.71 7.544-1.015 4.748 1.21 8.458 3.364 12.046 1.528 2.547 2.97 4.952 2.97 7.475.04 1.308.46 5.133 1.9 6.756.357.41.323 1.03-.076 1.39-.18.17-.41.25-.64.25z"/><path d="M27.8 37.413c-.23 0-.463-.082-.647-.25-.4-.358-.433-.978-.076-1.382 1.442-1.62 1.86-5.44 1.897-6.78 0-2.49 1.442-4.9 2.972-7.44 2.154-3.59 4.38-7.3 3.364-12.04-1.458-6.81-8.676-7.544-11.714-7.544-.536 0-.97-.44-.97-.98s.434-.98.97-.98c2.738 0 11.808.654 13.61 9.09 1.177 5.51-1.36 9.74-3.6 13.473-1.444 2.406-2.69 4.484-2.69 6.46-.008.254-.186 5.572-2.394 8.063-.19.216-.457.325-.722.325z"/><path d="M23.663 36.777c-.402 0-.73-.33-.73-.735.002-.497.028-1.26.062-2.208.095-2.685.27-7.678-.13-11.993-1.976.45-3.32-.33-4.05-.99-2.03-1.8-2.492-5.19-1.555-7.01.574-1.11 1.6-1.58 2.812-1.29 1.59.39 2.65 1.87 3.337 4.1.93-3.42 2.53-4.93 3.96-5.15 1.1-.17 2.08.42 2.51 1.5.66 1.68-.02 4.65-4.11 7.49-.53.364-1.03.65-1.5.87.37 3.627.33 8.025.17 12.54-.038.927-.06 1.67-.06 2.157 0 .404-.33.733-.73.733m-4.26-22.86c-.37 0-.635.186-.838.58-.66 1.28-.223 3.947 1.226 5.24.79.708 1.78.91 2.92.616-.44-3.332-1.32-5.992-2.97-6.392-.13-.03-.24-.045-.34-.045m8.35-1.01c-.05 0-.1 0-.158.01-.91.14-2.657 1.76-3.297 6.74.216-.13.43-.27.65-.42 3.15-2.19 4.067-4.51 3.585-5.74-.09-.235-.313-.602-.783-.602z"/><path d="M28.234 40.743h-9.34c-1.036 0-1.88-.91-1.88-2.024v-.68c0-1.12.843-2.03 1.88-2.03h9.34c1.036 0 1.88.91 1.88 2.02v.68c0 1.11-.843 2.02-1.88 2.02m-9.34-3.26c-.23 0-.424.25-.424.55v.68c0 .3.194.553.424.553h9.34c.23 0 .425-.255.425-.556v-.68c0-.3-.2-.555-.43-.555h-9.34z"/><path d="M28.234 44.007h-9.34c-1.036 0-1.88-.91-1.88-2.024v-.68c0-1.117.843-2.026 1.88-2.026h9.34c1.036 0 1.88.91 1.88 2.027v.68c0 1.114-.843 2.023-1.88 2.023m-9.34-3.263c-.23 0-.424.257-.424.558v.678c0 .302.194.556.424.556h9.34c.23 0 .425-.255.425-.556v-.678c0-.304-.2-.558-.43-.558h-9.34z"/><path d="M23.564 47c-2.232 0-4.048-1.047-4.048-2.993h1.457c0 1.135 1.162 1.524 2.59 1.524 1.43 0 2.59-.38 2.59-1.52h1.458c0 1.95-1.81 3-4.04 3z" fill-rule="evenodd"/></svg>