<svg xmlns="http://www.w3.org/2000/svg" width="31.855" height="31.855" viewBox="0 0 31.855 31.855"><circle cx="24.171" cy="7.554" r="3.491"/><path d="M28.115 23.902l-.914-12.26h-5.65v2.33l-2.79 4.348 1.93 1.234.87-1.347v5.695h.69l-2.42 6.078 2.884 1.147 1.95-4.903 1.923 4.903 2.89-1.133-2.39-6.092m1.21-4.712h3.573l-.63-7.216h-3.57"/><circle cx="8.005" cy="4.636" r="3.908"/><path d="M11.395 14.274l.01.032.025-.013.02.013.01-.024 6.78-1.842-.855-2.664-5.837 1.428L6.94 8.708v.005L.724 8.39.168 19.1h-.06v1.15L0 22.336l.108.006h.004l6.016.312-2.983 3.385-.058-.07-1.117.91 3.46 4.24 1.116-.91-.794-.98 6.083-6.9h.078V19.1H6.41l.382-7.333 4.603 2.507zm-4.99 8.068l-.173.195.01-.195h.162z"/></svg>