<svg xmlns="http://www.w3.org/2000/svg" width="612" height="612" viewBox="0 0 612 612"><path d="M550.4 281.817c-18.385 20.637-36.395 42.868-48.965 73.54-5.72 14.164-19.322 23.357-34.613 23.357-15.383 0-28.984-9.193-34.8-23.45-14.54-35.646-36.583-59.94-57.97-83.39-5.346-5.91-10.693-11.82-15.945-17.916-.28.094-.47.188-.75.28-20.824 6.285-36.865 33.863-27.203 56.282 6.566 15.383 52.623 12.476 48.684 45.587-3.283 27.108 32.172 34.237 44.742 32.925 12.57-1.5 31.893 20.637 22.137 30.392-9.66 9.756-27.953 10.13-25.14 35.27.75 7.316 22.89 6.38 22.89 17.447 0 11.17-11.443 23.83-2.627 36.68 1.877 2.82 3.846 4.97 5.91 6.66-42.398 39.02-98.96 62.94-160.964 62.94-131.04 0-237.6-106.56-237.6-237.6 0-39.77 9.85-77.29 27.203-110.31-.1 42.68 22.7 78.14 33.39 88.83 34.89 34.8 85.45 23.83 91.92 53 6.56 29.08-34.71 29.18-31.99 51.41 2.81 22.33 56.56 28.24 44.55 48.78-15.853 27.297 10.693 29.267 3.002 62.94-4.13 18.387 22.415 21.95 32.265 7.975 7.503-10.693 6.002-23.826 21.104-39.865 18.48-19.7 61.347-22.89 56.56-55.44-8.16-54.03-60.69-62.47-83.576-75.135-25.985-14.257-19.606-48.495-25.235-64.816-7.88-23.17-34.616 6.47-48.87-7.038-23.45-22.137 4.22-53.467 23.915-52.81 41.554 1.313 54.31 41.74 69.6 40.334 14.915-1.313 24.58-22.137 27.203-33.205 5.537-24.104-9.38-13.32-15.38-25.89-8.066-16.79 28.33-32.83 42.4-45.21 2.157-1.875 3.75-3.66 4.595-5.346 4.223-8.255-1.31-14.54-10.693-20.26-18.76-11.353-52.998-20.357-54.59-38.085-.94-10.883 19.884-16.135 43.615-17.073 3.937.19 7.783.564 11.724.94 1.97-11.163 5.16-22.138 9.475-32.643-11.35-1.5-22.888-2.25-34.614-2.25C136.26 69.64 14.6 191.3 14.6 340.82 14.606 490.34 136.266 612 285.786 612S556.97 490.34 556.97 340.82c0-20.262-2.253-40.054-6.568-59.003zM454.062.603C377.51 7.84 325.078 82.016 338.44 157.74c13.567 76.922 84.49 100.6 119.685 186.943 3.172 7.78 14.127 7.82 17.297.038 39.016-95.76 121.975-114.45 121.975-214.1 0-76.33-65.48-137.37-143.335-130.01zm12.72 198.99c-38.097 0-68.98-30.882-68.98-68.978 0-38.095 30.883-68.977 68.98-68.977s68.976 30.882 68.976 68.977-30.883 68.978-68.977 68.978z"/></svg>