<svg xmlns="http://www.w3.org/2000/svg" width="47" height="47" viewBox="0 0 47 47"><path d="M7.37 19.227H2.138c-1.18 0-2.137.957-2.137 2.137v23.5C0 46.044.96 47 2.14 47h5.23c1.18 0 2.137-.957 2.137-2.136v-23.5c0-1.18-.956-2.137-2.136-2.137zm12.5 6.408h-5.235c-1.18 0-2.137.957-2.137 2.137v17.09c0 1.18.956 2.137 2.137 2.137h5.234c1.18 0 2.13-.96 2.13-2.14V27.77c0-1.18-.96-2.136-2.14-2.136zm12.495 0H27.13c-1.18 0-2.135.957-2.135 2.137v17.09c0 1.18.956 2.137 2.136 2.137h5.24c1.18 0 2.14-.96 2.14-2.14V27.77c0-1.18-.95-2.136-2.13-2.136zm12.498-6.408H39.63c-1.18 0-2.137.957-2.137 2.137v23.5c0 1.18.956 2.136 2.136 2.136h5.23c1.18 0 2.14-.958 2.14-2.136v-23.5c0-1.18-.96-2.137-2.14-2.137zm-20.74-6.357v3.846c1.164-.077 2.39-.623 2.39-1.904 0-1.322-1.344-1.71-2.39-1.942zm-3.345-4.603c0 .972.723 1.534 2.18 1.826v-3.48c-1.324.04-2.18.818-2.18 1.654z"/><path d="M23.5 0c-6.48 0-11.75 5.272-11.75 11.75 0 6.476 5.27 11.748 11.75 11.748s11.75-5.272 11.75-11.748C35.25 5.272 29.98 0 23.5 0zm.623 18.7v1.2c0 .33-.254.66-.586.66-.328 0-.58-.33-.58-.66v-1.2c-3.282-.08-4.915-2.043-4.915-3.578 0-.775.47-1.223 1.203-1.223 2.176 0 .484 2.68 3.713 2.81v-4.06c-2.88-.53-4.624-1.79-4.624-3.94 0-2.64 2.196-4.01 4.624-4.08V3.6c0-.33.25-.66.58-.66.33 0 .585.33.585.66v1.036c1.514.04 4.623.99 4.623 2.895 0 .76-.566 1.21-1.227 1.21-1.27 0-1.25-2.07-3.4-2.11v3.69c2.56.548 4.83 1.305 4.83 4.297 0 2.603-1.94 3.923-4.84 4.1z"/></svg>