<svg xmlns="http://www.w3.org/2000/svg" width="386.75" height="386.75" viewBox="0 0 386.75 386.75"><path d="M376.717 99.33c-6.755-1.51-13.967 3.124-15.372 9.42-.39 1.49-1.813 6.37-5.212 12.938L265.03 30.586c7.48-3.812 12.71-5.022 12.85-5.062C294.52 21.62 288.585-3.52 271.92.418c-1.032.252-102.057 26.625-85.457 170.83-6.632-.43-13.243-.64-19.73-.64-117.788 0-162.86 74.028-164.71 77.145-8.81 14.855 13.502 27.352 22.134 13.24.684-1.117 4.218-6.678 11.327-14.195l104.52 104.556c-7.446 7.044-13.024 10.604-14.08 11.253-14.662 8.73-1.568 30.744 13.113 22.218 3.513-2.102 85.434-52.386 76.51-184.503 105.63 12.262 160.172-41.383 170.873-85.563 1.607-7.01-2.866-13.98-9.706-15.43zm-188.84 155.05l-55.44-55.453c17.69-2.68 37.397-3.213 57.023-1.585 1.667 19.93 1.132 39.09-1.582 57.04zm-86.236-48.607l79.04 79.49c-7.91 23.426-17.52 39.164-24.28 47.048L54.61 230.17c17.59-14.28 40.4-21.415 47.033-24.392zm109.5-84.48l54.11 54.302c-15.93 1.525-33.77.99-52.46-1.525-2.57-19.01-3.13-36.752-1.64-52.776zm85.27 48.097l-79.39-78.735c5.78-18.687 14.09-31.667 25.16-43.34l97.69 96.263-1.033 1.29c-15.545 15.055-35.787 23.4-42.416 24.522z"/></svg>