<svg xmlns="http://www.w3.org/2000/svg" width="31.105" height="31.105" viewBox="0 0 31.105 31.105"><path d="M25.112 7.205c-.147-.208-.302-.41-.465-.606-1.643-1.97-4.055-3.27-6.767-3.45V0h-1.562v.627c-6.685.08-12.1 5.538-12.1 12.242 0 6.4 4.947 11.67 11.223 12.2v3.08h-3.29v1.18H9.98v1.77h12.94v-1.77h-2.134v-1.18H17.88v-5.74c2.712-.19 5.124-1.48 6.768-3.45.162-.2.316-.4.463-.61 1.12-1.58 1.78-3.5 1.78-5.58s-.66-4-1.77-5.58zm.98 5.496h-3.156c-.007-1.42-.198-2.76-.528-3.97.77-.29 1.465-.64 2.064-1.04 1.003 1.42 1.603 3.15 1.62 5.02zm-2.086-5.62c-.53.35-1.144.66-1.825.91-.5-1.5-1.24-2.76-2.13-3.61 1.56.53 2.93 1.48 3.96 2.71zm-11.67 5.62c.008-1.32.18-2.58.477-3.71 1.21.37 2.568.59 4.006.62v3.09h-4.49zm4.485.8v2.46c-1.44.04-2.79.26-4.01.62-.25-.95-.41-1.98-.45-3.08h4.47zM12.3 8c-.696-.258-1.324-.57-1.864-.923 1.054-1.25 2.443-2.21 4.03-2.732-.9.862-1.65 2.13-2.164 3.655zm-.223.74c-.33 1.21-.517 2.55-.524 3.962H8.34c.018-1.867.62-3.595 1.622-5.02.612.41 1.322.768 2.107 1.06zm-.51 4.756c.05 1.182.23 2.304.51 3.33-.786.294-1.496.65-2.107 1.06-.89-1.262-1.463-2.763-1.593-4.39h3.19zm.734 4.072c.51 1.525 1.27 2.793 2.17 3.653-1.584-.53-2.972-1.48-4.03-2.74.54-.35 1.17-.66 1.867-.92zm.74-.246c1.14-.337 2.43-.54 3.79-.573v4.88c-1.61-.25-3-1.92-3.79-4.31zm3.79-8.502c-1.36-.033-2.65-.237-3.783-.574.79-2.388 2.174-4.056 3.786-4.306v4.88zm.8 4.677h4.513c-.05 1.1-.21 2.143-.46 3.095-1.223-.38-2.596-.61-4.053-.64v-2.46zm0-.793V9.61c1.455-.034 2.83-.26 4.05-.634.3 1.133.47 2.39.48 3.725h-4.53zm3.83-4.47c-1.15.35-2.45.56-3.83.59V3.93c1.63.226 3.03 1.897 3.83 4.3zM5.76 12.87c0-5.854 4.725-10.623 10.56-10.702v.995c-2.62.246-4.94 1.527-6.54 3.44-.16.197-.314.4-.46.608-1.12 1.58-1.78 3.5-1.78 5.58s.66 4 1.778 5.58c.15.21.304.41.466.61 1.658 1.988 4.1 3.29 6.845 3.455v1.15c-.05 0-.11.007-.16.007-5.91 0-10.71-4.804-10.71-10.71zm11.856 8.764V16.75c1.38.032 2.683.24 3.83.585-.797 2.403-2.203 4.074-3.83 4.3zm2.43-.437c.89-.856 1.628-2.11 2.138-3.614.68.258 1.293.56 1.822.91-1.038 1.23-2.4 2.184-3.96 2.708zm4.427-3.312c-.6-.402-1.29-.754-2.06-1.043.28-1.03.46-2.16.515-3.345h3.145c-.13 1.626-.704 3.127-1.595 4.39z"/></svg>