<svg xmlns="http://www.w3.org/2000/svg" viewBox="0 0 26 26"><path d="M19 24.968v1H7v-1c0-.55.45-1 1-1h2.013c.053-1.248.863-2.29 1.987-2.69V9.555c-.527-.333-.88-.917-.88-1.587h3.76c0 .67-.353 1.254-.88 1.587V21.28c1.124.4 1.934 1.44 1.987 2.69H18c.55 0 1 .45 1 1zm7-9c-.733 2.063-2.685 3.552-5 3.552s-4.267-1.49-5-3.553h1.154l3.378-8.953c.146-.39.79-.39.936 0l3.378 8.953H26zm-2.223 0L21 8.608l-2.777 7.36h5.554zM5 5.978c.453 0 .822-.304.95-.715.33-.126.67-.296 1.018-.472.765-.38 1.632-.82 2.532-.82.864 0 1.404.4 1.713.74-.012.09-.026.17-.026.26 0 1 .812 1.82 1.813 1.82s1.813-.81 1.813-1.81c0-.09-.014-.17-.026-.26.308-.34.848-.74 1.713-.74.9 0 1.767.44 2.53.827.35.178.69.348 1.02.474.128.41.497.714.95.714.558 0 1.01-.45 1.01-1.01S21.558 3.97 21 3.97c-.288 0-.545.124-.73.318-.246-.103-.513-.236-.788-.375-.864-.44-1.843-.935-2.982-.935-.996 0-1.69.38-2.16.786-.212-.232-.482-.406-.79-.505.374-.2.636-.58.636-1.038C14.186 1.56 13 .032 13 .032s-1.186 1.53-1.186 2.184c0 .452.262.832.635 1.032-.31.098-.58.273-.79.506-.47-.408-1.17-.787-2.16-.787-1.14 0-2.12.495-2.99.932-.28.14-.54.27-.79.37-.19-.2-.44-.32-.73-.32-.56 0-1.01.45-1.01 1.01s.45 1.01 1.01 1.01zM5 19.52c-2.315 0-4.267-1.49-5-3.552h1.154l3.378-8.953c.146-.39.79-.39.936 0l3.378 8.953H10c-.733 2.063-2.685 3.553-5 3.553zm2.777-3.553L5 8.607l-2.777 7.36h5.554z" fill="#030104"/></svg>