<svg xmlns="http://www.w3.org/2000/svg" width="45.682" height="45.682" viewBox="0 0 45.682 45.682"><path d="M32.102 19.68c1.21-.26 2.328-1.26 2.51-3.48.15-1.818-.316-2.754-1.004-3.23 1.91-7.786-3.358-9.31-3.358-9.31s-3.937-6.68-11.618-1.992c-.977.596-2.496 1.738-3.4 2.917-1.454 1.546-2.443 4.06-2.598 8.13-.938.357-1.675 1.263-1.492 3.483.192 2.32 1.403 3.31 2.677 3.51 1.72 4.19 5.11 7.642 9.13 7.642 4.03 0 7.43-3.468 9.15-7.67zm-9.148 5.717c-4.647 0-8.39-6.31-8.39-11.535 0-.716.024-1.38.068-1.996 6.797.297 10.817-2.428 13.005-4.792 2.075 2.068 3.153 4.68 3.704 6.62l.01.167c0 5.23-3.74 11.54-8.39 11.54zm-2.662 7.9l.538-2.227c.062-.257.195-.477.375-.646-.055-.04-.11-.08-.162-.123l-4.806-3.97-2.925.69C8.36 28.17 4.87 32.36 4.87 37.15v6.3c0 1.24 1.102 2.23 2.422 2.23h12.38l1.89-10.763c-.85-.015-1.47-.798-1.27-1.626zm12.128-6.29l-2.885-.685-4.8 3.98c-.054.042-.106.083-.16.122.18.17.313.39.376.646l.54 2.227c.2.827-.42 1.61-1.27 1.623l1.89 10.762h12.38c1.32 0 2.33-.988 2.33-2.23v-6.3c0-4.798-3.44-8.98-8.39-10.146z"/></svg>