<svg xmlns="http://www.w3.org/2000/svg" viewBox="0 0 171.587 171.587"><path d="M152.17 171.587H19.42c-1.382 0-2.5-1.12-2.5-2.5V84.562H2.824c-1.02 0-1.938-.62-2.32-1.567-.38-.947-.146-2.03.59-2.737L84.064.696c.966-.928 2.493-.928 3.46 0l82.97 79.562c.735.706.97 1.79.59 2.737-.383.947-1.3 1.567-2.32 1.567H154.67v84.525c0 1.38-1.12 2.5-2.5 2.5zm-36.494-5h33.993v-37.545h-34v37.545zm-64.25 0h59.25v-37.545h-59.25v37.545zm-14 0h9v-2.874h-9v2.874zm-15.507 0h10.5v-37.545h-10.5v37.545zm15.5-7.874h9v-4.188h-9v4.188zm0-9.187h9v-4.188h-9v4.188zm0-9.188h9v-4.188h-9v4.188zm0-9.187h9v-2.1h-9v2.11zm75.75-7.1h36.49V84.57H105.5v39.48h7.667zm-21.67 0h9v-3h-9v3zm-24.84 0H86.5V84.57H66.67v39.48zm-17.75 0h12.75V84.57H21.92v39.48h27.006zm42.582-8h9v-4.66h-9v4.668zm0-9.66h9v-4.666h-9v4.667zm0-9.666h9v-4.67h-9v4.67zm0-9.666h9v-2.48h-9v2.48zm60.66-7.48h10.374L135.67 53.8v25.764h16.493zm-49.16 0h27.666V49.13c0-.04 0-.08.003-.117L106.4 25.738H65.17l-25.493 24.45v29.375h63.333zm-83.59 0h15.26V54.99L9.04 79.563h10.38zm50.973-58.83h30.8l-15.4-14.77-15.4 14.77z" fill="#000002"/></svg>