<svg xmlns="http://www.w3.org/2000/svg" width="31.831" height="31.831" viewBox="0 0 31.831 31.831"><path d="M0 15.114h14.69V.422H0v14.692zm4.07-8.1h2.52v-2.52h1.506v2.522h2.522V8.52h-2.52v2.523H6.59V8.52H4.07V7.016zM0 31.41h14.69V16.72H0v14.69zm4.07-8.1h6.55v1.505H4.07V23.31zM17.14.422v14.692h14.69V.422H17.14zm10.667 9.13l-1.063 1.063-1.784-1.783-1.785 1.785-1.063-1.064 1.783-1.785-1.783-1.784 1.062-1.063 1.784 1.79 1.785-1.78L27.806 6l-1.783 1.784 1.784 1.783zM17.14 31.41h14.69V16.72H17.14v14.69zm8.844-3.92c-.062.148-.15.278-.26.388-.108.11-.236.197-.388.268-.147.067-.308.102-.476.102-.172 0-.33-.033-.48-.102-.146-.07-.275-.158-.386-.268-.108-.11-.196-.238-.26-.387-.064-.14-.1-.31-.1-.47s.034-.33.1-.48c.062-.14.15-.27.26-.38.108-.11.237-.192.387-.26.15-.062.31-.095.48-.095.17 0 .33.03.48.096.15.065.28.15.39.26.11.11.2.24.26.388.07.15.1.31.1.48s-.03.33-.1.48zm-2.248-6.853c.063-.148.15-.277.26-.387.11-.11.238-.197.388-.268.15-.067.308-.102.48-.102.168 0 .327.034.475.102.15.07.27.158.38.268.11.11.19.238.26.387.06.15.1.31.1.48 0 .167-.04.327-.1.477-.06.15-.15.278-.26.388-.11.108-.24.195-.39.26-.15.065-.31.097-.48.097-.17 0-.33-.04-.48-.1-.15-.07-.28-.15-.39-.26-.11-.11-.196-.24-.26-.39-.064-.15-.1-.31-.1-.48.004-.17.036-.33.1-.48zm-2.073 2.54h6.59v1.85h-6.59v-1.85z"/></svg>