<svg xmlns="http://www.w3.org/2000/svg" width="543.185" height="543.185" viewBox="0 0 543.185 543.185"><path d="M534.644 1.79H143.907c-4.72 0-8.54 3.828-8.54 8.544v34.132H72.005c-2.458 0-4.807 1.064-6.427 2.92-1.62 1.86-2.353 4.32-2.036 6.762l3.32 24.52H8.54c-2.68 0-5.22 1.265-6.836 3.412C.094 84.226-.41 87.005.344 89.6L130.33 535.23c1.087 3.738 4.493 6.162 8.21 6.162h396.1c4.715 0 8.545-3.81 8.545-8.548V10.34c0-4.722-3.83-8.55-8.54-8.55zM135.368 61.555v395.79L81.794 61.555h53.574zM69.17 95.752l42.646 314.995L19.928 95.752H69.17zM526.1 524.306H152.448V18.88H526.11v505.426h-.01zM301.903 86.356H166.08V47.91h135.817l.005 38.446zm211.418 0H377.5V47.91h135.815l.005 38.446zm-202.65-19.22c0-15.796 12.81-28.616 28.61-28.616 15.8 0 28.62 12.815 28.62 28.616 0 15.805-12.82 28.616-28.62 28.616s-28.6-12.815-28.6-28.616zM493.18 275.44H377.5V145.587h115.678l.004 129.85zM322.188 164.67H179.965v-14.24h142.223v14.242zm-142.223 40.424h142.223v14.244H179.965v-14.244zm1.6 55.91H323.79v14.242H181.568v-14.242zm-1.6 56.32h313.217v14.238H179.965v-14.237zm0 56.232h313.217v14.237H179.965v-14.237zm0 55.52h313.217v14.247H179.965v-14.247z"/></svg>