<svg xmlns="http://www.w3.org/2000/svg" width="270" height="270" viewBox="0 0 270 270"><g fill="#276CB0"><path d="M154.2 153.883c-2.806 1.282-4.895 3.104-6.92 4.867-1.673 1.457-3.248 2.832-5.09 3.76-4.376 2.204-10.51 3.42-17.275 3.45-6.768-.03-12.897-1.246-17.27-3.45-1.84-.928-3.424-2.303-5.093-3.76-2.023-1.764-4.116-3.585-6.91-4.867-2.716-1.23-7.917.622-8.616 4.34-1.088 5.65 6.422 10.656 13.08 14.383 7.044 3.905 15.778 6.062 24.647 6.147v.016c.06 0 .112-.01.162-.01h.16v-.02c8.87-.09 17.604-2.24 24.65-6.15 6.663-3.73 14.168-8.73 13.09-14.385-.706-3.716-5.903-5.57-8.614-4.34zM92.404 93.4c-5.443 0-9.873 4.933-9.873 10.995 0 6.083 4.43 11.04 9.88 11.04 5.43 0 9.85-4.957 9.85-11.04 0-6.062-4.412-10.996-9.84-10.996zm65.046 0c-5.427 0-9.843 4.933-9.843 10.995 0 6.083 4.416 11.04 9.842 11.04 5.44 0 9.87-4.957 9.87-11.04 0-6.062-4.43-10.996-9.88-10.996z"/><path d="M246.546 112.962c-.305-49.303-6.75-79.846-19.347-91.604-12.91-12.05-46.77-18.073-101.59-18.073h-.34c-54.82 0-88.68 6.022-101.59 18.073-12.6 11.757-19.04 42.3-19.35 91.604v.274c.3 49.3 6.75 79.845 19.342 91.6 9.06 8.462 28.46 13.946 58.166 16.468l43.416 44.11.005-.003.003.01 43.387-44.08c29.914-2.5 49.436-8 58.534-16.49 12.598-11.752 19.04-42.3 19.35-91.6h.002v-.27h-.003zM35.403 32.132c11.37-10.59 41.196-15.885 89.48-15.885h.304c48.283 0 78.107 5.295 89.474 15.886 8.52 7.93 13.84 25.6 15.98 52.97l-10.14.19-24.52.562c-4.62-16.62-19.65-28.125-36.96-28.125-14.49 0-27.5 8.045-34.08 20.76-6.58-12.714-19.59-20.76-34.08-20.76-17.3 0-32.34 11.505-36.955 28.125l-24.523-.563-9.937-.184c2.136-27.374 7.46-45.045 15.97-52.975zM186.49 96.156c0 15.15-12.324 27.474-27.473 27.474-15.155 0-27.493-12.324-27.493-27.475 0-15.14 12.338-27.45 27.493-27.45 15.15 0 27.473 12.31 27.473 27.45zm-68.15 0c0 15.15-12.336 27.474-27.492 27.474-15.15 0-27.473-12.324-27.473-27.475 0-15.14 12.324-27.45 27.473-27.45 15.155 0 27.492 12.31 27.492 27.45zm113.365 16.61v.12c-.273 43.332-5.95 70.18-17.045 80.512-6.146 5.725-17.693 9.897-34.62 12.526-5.602.873-11.784 1.575-18.57 2.108l-36.282 37.57-37.157-37.617c-6.75-.54-12.92-1.252-18.49-2.133-16.66-2.636-28.04-6.784-34.13-12.454-11.09-10.333-16.77-37.18-17.04-80.512l.01-.053v-.185h.003c.027-4.348.11-8.52.247-12.537l10.81.21 23.32.54c2.34 19.03 18.832 33.75 38.107 33.75 14.45 0 27.49-8.03 34.086-20.71 6.595 12.68 19.64 20.71 34.086 20.71 19.273 0 35.764-14.72 38.102-33.75l23.32-.54 11.013-.2c.137 4.02.22 8.19.25 12.54v.12z"/></g></svg>