<svg xmlns="http://www.w3.org/2000/svg" width="335.08" height="335.079" viewBox="0 0 335.08 335.079"><path d="M311.175 115.775c-1.355-10.186-1.546-27.73 7.915-33.62.17-.11.295-.265.443-.4 7.735-2.473 13.088-5.945 8.886-10.617l-114.11-34.38L29.56 62.445S8.403 65.47 10.293 98.34c1.026 17.89 6.637 26.675 11.544 31l-15.16 4.568c-4.21 4.672 1.143 8.145 8.88 10.615.146.138.27.293.442.4 9.45 5.897 9.27 23.44 7.91 33.627-33.97 9.645-21.78 12.788-21.78 12.788l7.45 1.803C4.35 197.88-.86 206.86.12 223.89c1.89 32.865 19.27 35.133 19.27 35.133l120.9 39.297 182.49-44.2s12.198-3.15-21.778-12.795c-1.366-10.172-1.556-27.712 7.92-33.623.175-.105.302-.264.443-.396 7.736-2.474 13.084-5.943 8.88-10.615l-7.93-2.39c5.29-3.19 13.235-11.52 14.48-33.18.86-14.89-3.027-23.62-7.525-28.75l15.678-3.79c0 .005 12.198-3.143-21.773-12.79zm-152.642-.42l30.688-6.308 103.71-21.312 15.45-3.178c-4.93 9.036-4.73 21.402-3.91 29.35.18 1.798.39 3.44.59 4.688l-16.92 4.205-130.89 32.563 1.29-40.01zM26.71 147.335l15.45 3.18 99.596 20.473 8.7 1.78 26.094 5.364 1.287 40.01-134.534-33.47-13.263-3.297c.195-1.25.4-2.89.588-4.693.812-7.942 1.023-20.31-3.918-29.347zm-6.002-50.58c-.187-8.742 1.37-15.065 4.52-18.28 2.004-2.05 4.37-2.48 5.99-2.48.858 0 1.475.12 1.517.12l79.607 25.954 39.717 12.95-1.31 40.28-111.42-31.24-5.88-1.65c-.22-.06-.51-.108-.74-.118-.46-.033-11.48-1.047-12.018-25.553zm119.87 184.11L23.28 247.98c-.217-.063-.507-.105-.733-.116-.467-.03-11.488-1.044-12.02-25.544-.19-8.754 1.375-15.07 4.518-18.288 2.01-2.052 4.375-2.48 5.994-2.48.85 0 1.47.116 1.51.116l119.31 38.908-1.297 40.29zm153.706-41.407c.185 1.803.39 3.442.59 4.692l-147.81 36.77 1.29-40.01 31.602-6.496 4.667 1.13 17.492-5.686 80.63-16.57 15.458-3.18c-4.942 9.036-4.737 21.407-3.92 29.35zm8.142-54.376c-.27.006-.538.042-.79.122l-11.15 3.12L184.34 218.09l-1.3-40.29 34.826-11.36 84.327-27.5c.01-.004 4.436-.987 7.684 2.316 3.144 3.214 4.704 9.537 4.52 18.28-.55 24.498-11.57 25.516-11.972 25.547z"/></svg>