<svg xmlns="http://www.w3.org/2000/svg" viewBox="0 0 371.041 371.041"><path d="M190.032 170.196c1.067 1.065 2.514 1.666 4.023 1.666H364.83c1.614 0 3.152-.686 4.23-1.885 1.08-1.2 1.6-2.806 1.428-4.408-4.88-45.77-26.256-87.76-60.194-118.25C276.327 16.81 232.2 0 186.04 0c-42.186 0-83.493 14.553-116.31 40.984-1.258 1.014-2.025 2.512-2.112 4.126-.087 1.615.517 3.187 1.66 4.33L190.03 170.196zm-23.016-64.865l48.977-72.84c5.62 1.1 11.204 2.51 16.667 4.22l-53.6 80.67-12.044-12.04zM186.04 29.6c1.46 0 2.94.02 4.43.063l-39.856 59.27-12.91-12.912 31.916-45.57c5.448-.57 10.966-.85 16.423-.85zm-49.14 7.896l-15.535 22.18L110.67 48.98c6.925-3.83 14.173-7.145 21.606-9.873 1.522-.56 3.064-1.097 4.62-1.615zm145.193 104.78L313.27 95.35c2.145 3.026 4.198 6.155 6.14 9.35l-25.786 37.57h-11.53zm39.14 0l9.78-14.25c1.86 4.677 3.49 9.443 4.877 14.25h-14.66zm-84.99 0l50.41-75.87c1.62 1.368 3.19 2.746 4.69 4.118 2.256 2.067 4.513 4.27 6.73 6.565l-43.313 65.18h-18.52zm-27.33 0h-4.95l-8.475-8.477 58.803-88.5c4.78 2.33 9.45 4.9 13.95 7.69l-59.32 89.28zm-43.327 42.1L49.963 68.756c-1.144-1.14-2.72-1.746-4.33-1.658-1.613.086-3.113.854-4.127 2.113C15.076 102.03.52 143.33.52 185.52c0 57.78 26.202 111.232 71.89 146.652 1.005.777 2.234 1.193 3.486 1.193.34 0 .68-.03 1.02-.094 1.59-.28 2.98-1.23 3.827-2.61l85.66-139.27c1.38-2.24 1.04-5.14-.823-7zm-34.27 7.58L70.73 290.45c-9.442-10.373-17.41-21.87-23.712-34.24-11.218-22.006-16.906-45.788-16.906-70.69 0-18.5 3.2-36.59 9.514-53.768 2.73-7.436 6.044-14.682 9.874-21.607l81.81 81.806zm233.52 7.228h-167.98c-1.975 0-3.81 1.024-4.846 2.71l-88.014 143.1c-.847 1.376-1.07 3.05-.61 4.598.457 1.547 1.552 2.83 3.008 3.523 24.972 11.896 51.77 17.93 79.646 17.93 46.16 0 90.287-16.808 124.254-47.323 33.938-30.49 55.315-72.485 60.194-118.247.17-1.6-.348-3.206-1.428-4.406-1.08-1.2-2.618-1.89-4.232-1.89z"/></svg>