<svg xmlns="http://www.w3.org/2000/svg" width="68.063" height="68.063" viewBox="0 0 68.063 68.063"><path d="M6.032 21.936h8.96l2.688 7.84h3.584l-8.51-25.312H8.72L.208 29.776h3.36l2.464-7.84zM9.17 12.08c.446-1.567.895-3.137 1.343-4.48.448 1.568.672 2.913 1.344 4.705l2.464 7.168H6.71l2.46-7.393zm38.525 38.303c0-1.344-.896-3.358-2.464-6.047 0-.896.68-2.018 1.8-3.14 1.12-1.343 2.02-2.237 2.24-2.91-.45-.673-1.34-1.12-2.46-1.567-.22 0-.892.44-2.46 1.34-1.12.45-1.792.89-2.465.89-.225 0-.672 0-1.12-.23-.447-.225-.894-.225-1.12-.225h-.67c.448.672.673 1.344.673 1.57v17.47c0 .45 0 1.12-.225 2.02S39.2 61.12 39.2 61.57c0 1.12.448 1.796 1.12 2.24l.896-.222c.228 0 .228-.894.45-2.69V39.86c2.24-.673 3.81-1.122 4.93-1.57l.223.227v.226c-.45.897-.675 1.793-1.12 2.467-.67 1.344-.898 2.016-.898 2.463 0 .224.228.895.674 2.017.445 1.344.67 2.016.894 2.24l-.22.447c-1.345-.228-2.688-.447-4.03-.674.67.227 1.565.896 2.687 1.793 1.12.896 2.018 1.565 2.465 1.79.222.22.446-.228.446-.9z"/><path d="M64.27 46.127c1.57 0 2.69-.225 3.138-.446 0-.44-.447-.89-1.12-1.34-.672-.45-1.118-.45-1.792-.45-1.12 0-2.688.23-4.48.67-2.24.45-3.81.68-4.255.9-3.58.45-6.27.67-8.06.9.68 1.12 1.35 1.79 2.24 1.79.67 0 1.57 0 2.91-.22.9-.22 1.79-.22 2.91-.45.45.45.68.9.68 1.8v11.64l-.22.224-.444-.223c-1.79-.44-3.136-.67-4.03-.89.67.448 1.345 1.346 2.24 2.465.895 1.12 1.566 2.02 2.016 2.466 1.565-.896 2.463-2.69 2.463-5.6v-6.28c0-2.462-.225-4.48-.672-6.27 2.91-.447 4.93-.672 6.498-.672z"/><path d="M64.943 53.52c-1.567-.672-3.137-1.12-4.703-1.12.672.67 2.018 1.567 3.36 3.136 1.343 1.344 2.687 2.465 3.357 3.137.673 0 .896-.672.896-1.793.002-1.344-.892-2.463-2.91-3.36zm-4.255-15.904c-.447 0-1.12.225-2.24.447-1.566.45-2.24.672-2.24.672-1.117.225-2.687.45-4.7.672 0 .896.895 1.346 2.462 1.346.896 0 2.465-.225 4.705-.448 2.463-.447 3.808-.673 4.03-1.12 0-.446-.225-.67-.896-1.118-.23-.45-.68-.45-1.13-.45zm-10.08 14.11l-.673 1.345c-.225.9-.448 1.35-.672 1.57-.448.45-.896 1.12-1.568 1.8-.672.9-.896 1.35-.896 1.79 0 .23 0 .45.22.68.22.226.44.226.67.226.67 0 1.57-.446 2.24-1.567.67-.895.89-2.016.89-3.135.443-1.792.22-2.69-.23-2.69zm-1.568-35.39s19.714-2.24 14.11 17.022c16.577-25.76-14.11-27.55-14.11-27.55V1.103l-15.68 10.08 15.68 10.08v-4.928zm-30.016 35.39s-19.712 2.24-14.112-17.02c-16.575 25.76 14.112 27.552 14.112 27.552v4.703l15.68-10.08-15.68-10.08v4.93z"/></svg>