<?xml version="1.0" encoding="iso-8859-1"?>
<!-- Generator: Adobe Illustrator 16.0.0, SVG Export Plug-In . SVG Version: 6.00 Build 0)  -->
<!DOCTYPE svg PUBLIC "-//W3C//DTD SVG 1.1//EN" "http://www.w3.org/Graphics/SVG/1.1/DTD/svg11.dtd">
<svg version="1.1" id="Capa_1" xmlns="http://www.w3.org/2000/svg" xmlns:xlink="http://www.w3.org/1999/xlink" x="0px" y="0px"
	 width="31.105px" height="31.105px" viewBox="0 0 31.105 31.105" style="enable-background:new 0 0 31.105 31.105;"
	 xml:space="preserve">
<g>
	<path d="M25.112,7.205c-0.147-0.208-0.302-0.41-0.465-0.606c-1.643-1.969-4.055-3.265-6.767-3.45V0h-1.562v0.627
		C9.633,0.708,4.218,6.165,4.218,12.869c0,6.408,4.947,11.679,11.223,12.201v3.08H12.15v1.182H9.981v1.773h12.937v-1.773h-2.134
		V28.15H17.88v-5.735c2.712-0.187,5.124-1.481,6.768-3.45c0.162-0.195,0.316-0.396,0.463-0.605c1.117-1.577,1.777-3.5,1.777-5.576
		C26.888,10.706,26.229,8.782,25.112,7.205z M26.093,12.701h-3.157c-0.007-1.42-0.198-2.766-0.528-3.978
		c0.769-0.289,1.465-0.64,2.064-1.041C25.475,9.105,26.075,10.833,26.093,12.701z M24.006,7.075
		c-0.529,0.346-1.144,0.653-1.825,0.907c-0.509-1.504-1.247-2.758-2.137-3.616C21.603,4.893,22.968,5.841,24.006,7.075z
		 M12.337,12.701c0.007-1.328,0.18-2.584,0.476-3.712c1.21,0.366,2.568,0.587,4.006,0.622v3.09H12.337z M16.821,13.494v2.459
		c-1.44,0.035-2.798,0.255-4.012,0.623c-0.248-0.948-0.408-1.986-0.456-3.082H16.821z M12.294,7.998
		c-0.698-0.258-1.326-0.569-1.866-0.923c1.054-1.251,2.443-2.211,4.032-2.732C13.557,5.205,12.808,6.473,12.294,7.998z
		 M12.069,8.739c-0.329,1.208-0.517,2.547-0.524,3.961H8.341c0.017-1.868,0.618-3.596,1.621-5.019
		C10.574,8.09,11.284,8.447,12.069,8.739z M11.561,13.494c0.05,1.182,0.229,2.304,0.509,3.331c-0.787,0.293-1.497,0.649-2.108,1.059
		c-0.89-1.262-1.462-2.763-1.592-4.389L11.561,13.494L11.561,13.494z M12.293,17.566c0.514,1.525,1.265,2.793,2.167,3.653
		c-1.588-0.521-2.976-1.48-4.031-2.733C10.969,18.135,11.596,17.824,12.293,17.566z M13.031,17.32
		c1.139-0.338,2.424-0.541,3.789-0.574v4.879C15.209,21.376,13.821,19.709,13.031,17.32z M16.821,8.817
		c-1.366-0.033-2.65-0.237-3.789-0.574c0.789-2.388,2.175-4.056,3.787-4.306v4.88H16.821z M17.614,13.494h4.513
		c-0.05,1.1-0.209,2.143-0.459,3.095c-1.224-0.375-2.597-0.601-4.054-0.636V13.494z M17.614,12.701V9.61
		c1.455-0.034,2.828-0.26,4.049-0.634c0.299,1.133,0.473,2.391,0.479,3.725H17.614z M21.442,8.231
		c-1.148,0.345-2.447,0.553-3.83,0.586V3.931C19.241,4.156,20.645,5.827,21.442,8.231z M5.757,12.869
		c0-5.855,4.726-10.624,10.562-10.703v0.995c-2.618,0.242-4.938,1.523-6.534,3.438C9.623,6.794,9.469,6.997,9.322,7.205
		c-1.118,1.578-1.778,3.501-1.778,5.577c0,2.076,0.66,4,1.778,5.577c0.147,0.207,0.302,0.41,0.464,0.605
		c1.658,1.988,4.101,3.289,6.845,3.455v1.15c-0.054,0.004-0.108,0.009-0.164,0.009C10.561,23.579,5.757,18.773,5.757,12.869z
		 M17.614,21.632v-4.885c1.381,0.033,2.683,0.242,3.83,0.586C20.647,19.736,19.241,21.407,17.614,21.632z M20.044,21.195
		c0.89-0.856,1.628-2.109,2.138-3.614c0.681,0.254,1.293,0.56,1.822,0.907C22.966,19.72,21.603,20.671,20.044,21.195z
		 M24.471,17.883c-0.601-0.402-1.296-0.754-2.063-1.043c0.281-1.031,0.461-2.159,0.513-3.346h3.144
		C25.934,15.12,25.362,16.621,24.471,17.883z"/>
</g>
<g>
</g>
<g>
</g>
<g>
</g>
<g>
</g>
<g>
</g>
<g>
</g>
<g>
</g>
<g>
</g>
<g>
</g>
<g>
</g>
<g>
</g>
<g>
</g>
<g>
</g>
<g>
</g>
<g>
</g>
</svg>
