<svg xmlns="http://www.w3.org/2000/svg" width="965.199" height="965.199" viewBox="0 0 965.199 965.199"><path d="M263.85 30c0-16.6-13.4-30-30-30h-202c-16.6 0-30 13.4-30 30v202.1c0 16.6 13.4 30 30 30h202.1c16.6 0 30-13.4 30-30V30h-.1zm349.7 0c0-16.6-13.4-30-30-30h-202c-16.6 0-30 13.4-30 30v202.1c0 16.6 13.4 30 30 30h202c16.6 0 30-13.4 30-30V30zm349.7 0c0-16.6-13.4-30-30-30h-202c-16.6 0-30 13.4-30 30v202.1c0 16.6 13.4 30 30 30h202.1c16.6 0 30-13.4 30-30V30h-.1zm-699.4 351.6c0-16.6-13.4-30-30-30h-202c-16.6 0-30 13.4-30 30v202c0 16.6 13.4 30 30 30h202.1c16.6 0 30-13.4 30-30v-202h-.1zm349.7 0c0-16.6-13.4-30-30-30h-202c-16.6 0-30 13.4-30 30v202c0 16.6 13.4 30 30 30h202c16.6 0 30-13.4 30-30v-202zm349.7 0c0-16.6-13.4-30-30-30h-202c-16.6 0-30 13.4-30 30v202c0 16.6 13.4 30 30 30h202.1c16.6 0 30-13.4 30-30v-202h-.1zm-729.4 321.5h-202c-16.6 0-30 13.4-30 30v202.1c0 16.602 13.4 30 30 30h202.1c16.6 0 30-13.398 30-30V733.1c-.1-16.5-13.5-30-30.1-30zm349.7 0h-202c-16.6 0-30 13.4-30 30v202.1c0 16.602 13.4 30 30 30h202c16.6 0 30-13.398 30-30V733.1c0-16.5-13.4-30-30-30zm349.7 0h-202c-16.6 0-30 13.4-30 30v202.1c0 16.602 13.4 30 30 30h202.1c16.6 0 30-13.398 30-30V733.1c-.1-16.5-13.5-30-30.1-30z"/></svg>