<svg xmlns="http://www.w3.org/2000/svg" width="45.705" height="45.705" viewBox="0 0 45.705 45.705"><path d="M14.057 6.845c.026-.15.14-.27.29-.3.15-.032.302.032.386.16l4.59 7.037 1.183-1.682-5.88-8.667c-.193-.283-.51-.454-.854-.457-.34-.003-.663.162-.86.442L.19 21.458c-.164.232-.225.52-.17.8.054.277.22.522.458.675L9 28.41l1.838-2.612 3.22-18.953zm31.41 26.595L28.687 8.7c-.243-.36-.65-.575-1.084-.575-.427 0-.826.208-1.072.556L9.57 32.78c-.217.31-.298.696-.226 1.065.07.37.29.696.608.9l12.14 7.805c.223.146.483.22.746.22.146 0 .293-.02.437-.068L44.76 35.54c.41-.138.733-.46.87-.87.14-.412.078-.87-.164-1.23zm-3.806-.123c-.07.22-.24.39-.46.466l-16.94 5.873c-.16.056-.34.02-.48-.09-.13-.112-.19-.287-.16-.46l4.37-25.728c.04-.2.19-.358.39-.4s.4.044.51.214l12.7 19.475c.13.192.158.432.08.65z"/></svg>