<svg xmlns="http://www.w3.org/2000/svg" width="31.025" height="31.025"><path d="M2.625 21.33h2.47v-5.473L3.76 13.325l.376-.094v-1.42c-1.44-.45-2.503-1.73-2.623-3.29l.988.15v.607h2.6v-.43h.46v.426h2.59v-.59l.83-.126c-.05 1.3-.72 3.05-2.723 3.31v1.323h.008l.48.227-1.304 2.35v5.574h2.55l-.47-3.15s.195-1.28.428-2.624l7.25-4.883-.978-1.666-4.8 3.78c.09-.613.28-.96.32-1.923.076-1.642.17-7.054-4.555-7.054-.498 0-1.08.06-1.334.18-.25.113-.29.37-.46.43-.17.055-.41.033-.56.104C.48 5.646.56 8.396.56 8.396l.346 5.645-.66 6.327 1.482.135.59-4.544c.356 1.208.695 2.32.695 2.32l-.388 3.053M4.803 8.97H2.788V7.944h2.015V8.97m3.05 0H5.836V7.944h2.016V8.97M1.525 7.854c1.042-.07 2.22-.892 2.31-2.034 1.32 1.092 3.187 1.145 4.744 1.284.19.09.33.483.37 1.002l-.82.126v-.576H5.55v.6h-.46v-.6H2.5v.562l-1-.144.026-.22zm6.412 13.803l-5.314-.02-.12 3.584H4.15v4.87c-.75.02-1.212.13-1.212.47 0 .36.73.48.73.48H5.36V30.6c0-.07-.017-.136-.056-.197v-5.16h.614l.212 2.016-.33 3.06c-.09.08-.13.18-.13.283v.445h1.694s.73-.115.73-.472c0-.32-.433-.44-1.13-.46l.234-2.854-.163-2.014H8.14l-.203-3.57zm12.175-7.732c1.198 0 2.29-.46 3.11-1.213l-1.91-1.984c-.323.275-.742.442-1.2.442-1.023 0-1.857-.832-1.857-1.856 0-.972.75-1.77 1.7-1.85V4.71c-2.47.082-4.455 2.116-4.455 4.606 0 2.543 2.07 4.61 4.612 4.61z" fill-rule="evenodd"/><path d="M21.91 10.87l1.91 1.987c.884-.81 1.45-1.957 1.496-3.236l-2.76.02c-.046.5-.288.94-.645 1.24zm.337-1.728c0 .06-.004.116-.008.175l2.75-.01c.01-.057.01-.11.01-.165 0-2.542-2.07-4.61-4.61-4.61-.05 0-.11.002-.16.005v2.758c.05-.005.1-.01.15-.01 1.03 0 1.86.833 1.86 1.857zm4.253.588h2.312v.562H26.5V9.73zm0 .947h2.312v.562H26.5v-.57zm0 .98h2.312v.562H26.5v-.57zm0 1h2.312v.562H26.5v-.57zm0 .987h2.312v.563H26.5v-.563z" fill-rule="evenodd"/><path d="M2.31-.03h28.665v18.773H9.083V17.28H29.53l-.146-15.87H4.256v1.667l-1.947.91V-.03z" fill-rule="evenodd"/></svg>