<svg xmlns="http://www.w3.org/2000/svg" viewBox="0 0 435.99 435.99"><path d="M335.37 239.048l-55.617-16.857C373.74 222.19 321.073 0 230.64 0h-25.29C99.74 0 67.073 222.19 156.238 222.19l-55.618 16.86c-39.16 11.254-62.512 180.444-62.512 180.444-.068.575-.113 1.157-.113 1.75 0 8.146 6.602 14.748 14.748 14.748h330.504c8.147 0 14.748-6.602 14.748-14.748 0-.593-.045-1.175-.113-1.75 0 0-23.353-169.19-62.512-180.444zm-153.008-8.68c1.503-1.064 3.467-1.215 5.115-.394 5.672 2.823 11.286 4.254 16.686 4.254h27.664c5.4 0 11.01-1.43 16.682-4.252 1.64-.82 3.61-.668 5.11.395 1.5 1.07 2.3 2.87 2.07 4.7l-3.64 29.53c-.068.52-.21 1.02-.43 1.49l-29.103 62.84c-.82 1.77-2.59 2.9-4.538 2.9-1.95 0-3.72-1.13-4.54-2.9l-29.124-62.84c-.22-.47-.364-.973-.427-1.49l-3.62-29.53c-.226-1.83.572-3.63 2.074-4.69zM151.88 134.94c-1.42-.92-2.276-2.5-2.276-4.19v-8.233c0-2.76 2.24-5 5-5h2.043v-17.194c0-1.732.896-3.34 2.37-4.252 1.474-.91 3.313-.99 4.863-.22 7.685 3.84 17.945 4.28 24.994 4.28 4.76 0 9.534-.24 13.747-.45 1.31-.06 2.57-.12 3.79-.18 1.68-.07 3.38-.11 5.07-.11 20.59 0 37.86 5.38 50.47 9.3 5.53 1.72 9.89 3.08 13.07 3.5 2.487.33 4.34 2.45 4.34 4.96v.38h2.046c2.76 0 5 2.24 5 5v8.238c0 1.69-.856 3.27-2.275 4.19l-4.852 3.155-.27 2.06c-1.58 11.956-8.285 27.444-17.94 41.438-12.226 17.735-23.687 25.67-29.62 25.67h-26.87c-5.934 0-17.395-7.936-29.623-25.672-9.655-13.99-16.36-29.477-17.94-41.424l-.27-2.07-4.856-3.153z"/></svg>