<svg xmlns="http://www.w3.org/2000/svg" width="98.068" height="98.068" viewBox="0 0 98.068 98.068"><path d="M54.822 75.36h8.79v2.93h-8.79z"/><path d="M81.598 84.51c-.913-17.67-6.685-27.836-13.01-33.283V46.3l-3.65-2.634c.595-1.103 1.14-2.267 1.615-3.5 3.366-.294 5.227-3.584 5.9-7.535.8-4.66-.877-6.94-3.827-7.45-.056-.6-.118-1.19-.188-1.78.58-.49.896-.8.896-.8 0-.22-.02-.41-.024-.63h-.003c-.28-8.78-6.362-16.1-14.62-18.45V0H43.384v3.525C34.93 5.928 28.736 13.537 28.736 22.597c0 0 .315.305.896.8-.07.585-.132 1.177-.187 1.778-2.952.51-4.627 2.787-3.83 7.454.67 3.9 2.466 7.21 5.896 7.53.47 1.24 1 2.4 1.59 3.5l-3.61 2.63v4.92C23 56.8 17.38 66.93 16.48 84.5c-.193 3.7 2.294 6.876 5.552 7.093l6.38.323c3.89 4.42 11.906 6.143 20.768 6.143 9.404 0 16.78-2.06 20.493-6.15l6.38-.33c3.258-.22 5.744-3.39 5.554-7.09zM47.183 5.707V3.8h3.705v8.436h-3.705v-6.53zm-14.33 13.738c1.132-5.54 5.19-10.058 10.53-11.962v8.55h11.304V7.49c5.338 1.905 9.4 6.418 10.53 11.957-1.182.177-2.642.373-4.306.557-3.3.364-7.42.675-11.87.675-4.48 0-8.62-.32-11.93-.69-1.64-.18-3.08-.38-4.24-.55zm16.182 8.166c-4.736 0-9.12-1.91-12.337-3.83 3.422.38 7.69.7 12.337.7 4.663 0 8.947-.32 12.374-.7-3.21 1.93-7.6 3.84-12.38 3.84zm9.132 4.81c0 1.45-1.18 2.63-2.625 2.63h-1.16c-1.446 0-2.624-1.18-2.624-2.62 0-.45.125-.87.327-1.24 1.618-.22 3.18-.59 4.648-1.08.846.44 1.434 1.31 1.434 2.327zm-11.853 0c0 1.45-1.178 2.63-2.625 2.63h-1.16c-1.45 0-2.63-1.18-2.63-2.62 0-1.01.58-1.89 1.43-2.32 1.47.49 3.03.86 4.65 1.08.2.376.32.79.32 1.246zm-1.352 59.64c-5.805-.46-10.305-1.9-12.158-4l-1.74-1.85v-6.06c0-.81-.654-1.46-1.466-1.46-.81 0-1.464.657-1.464 1.467v5.9c-1.272-.062-4.71-.243-5.554-.29-.104-.123-.282-.44-.255-.947.747-14.546 4.94-22.66 8.978-27.15l1.18 13.25 11.68-6.29c-.478 2.43 1.09 4.41 2.767 5.22l-1.968 22.21zm-9.955-25.84l-1.36-15.26 13.91 8.49-12.55 6.78zm14.028-17.44c-7.983 0-13.923-7.95-14.59-19.2-.057-.95-.032-1.84.048-2.68 1.395.85 2.994 1.7 4.76 2.437-.77.81-1.248 1.898-1.248 3.1 0 2.496 2.03 4.526 4.525 4.526h1.16c2.494 0 4.523-2.03 4.523-4.525 0-.246-.034-.483-.072-.72h1.79c-.03.237-.07.474-.07.72 0 2.496 2.03 4.526 4.53 4.526h1.16c2.5 0 4.53-2.03 4.53-4.526 0-1.2-.48-2.29-1.245-3.1 1.736-.726 3.314-1.56 4.693-2.395.15 1.593.105 3.374-.21 5.39-1.49 9.536-6.75 16.462-14.267 16.462zm15.39 2.17l-1.36 15.28-12.61-6.78 13.97-8.49zM75.49 85.76c-.882.047-4.212.215-5.55.284v-5.896c0-.81-.658-1.465-1.467-1.465-.81 0-1.466.656-1.466 1.465v6.045l-.052.003-1.626 1.79c-1.98 2.175-6.42 3.627-12.23 4.076l-1.96-22.216c1.67-.813 2.84-2.517 2.84-4.502 0-.248-.04-.48-.08-.72l11.68 6.285 1.18-13.26c4.02 4.49 8.22 12.6 8.98 27.15.02.51-.16.82-.26.95z"/></svg>