<svg xmlns="http://www.w3.org/2000/svg" viewBox="0 0 612 612"><circle cx="306" cy="306.211" r="62.185"/><path d="M534.1 337.23c-7.887-10.304-16.732-20.673-26.416-31.02 9.685-10.344 18.53-20.713 26.417-31.018 18.55-24.22 31.04-47.054 37.13-67.866 4.9-16.74 8-41.128-5.08-62.243-17.68-28.546-53.76-34.538-80.92-34.538-22.83 0-48.9 4-76.942 11.542-2.767-9.134-5.75-17.92-8.945-26.293-10.876-28.487-23.746-51.157-38.252-67.276C344.35 9.932 325.13 0 305.49 0h-.13c-24.837 0-43.908 15.665-55.53 28.67-14.454 16.167-27.24 38.936-38.01 67.475-3.11 8.22-6 16.838-8.68 25.787-27.81-7.438-53.68-11.383-76.36-11.383-27.15 0-63.24 5.99-80.92 34.54-13.07 21.11-9.98 45.51-5.08 62.25 6.09 20.81 18.58 43.66 37.12 67.88 7.89 10.29 16.724 20.66 26.4 31-9.676 10.34-18.51 20.7-26.4 31-18.54 24.22-31.03 47.05-37.12 67.86-4.9 16.74-7.996 41.13 5.083 62.24 17.686 28.545 53.768 34.54 80.92 34.54 22.84 0 48.93-4.007 76.98-11.55 2.76 9.094 5.73 17.845 8.918 26.19 10.876 28.485 23.747 51.05 38.25 67.17 16.72 18.59 35.945 28.32 55.584 28.32h.13c24.84 0 43.91-15.47 55.535-28.475 14.45-16.167 27.24-38.74 38.005-67.278 3.086-8.187 5.964-16.76 8.64-25.67 27.83 7.453 53.715 11.41 76.4 11.41h.004c27.152 0 63.23-6.053 80.91-34.597 13.075-21.115 9.98-45.56 5.08-62.3-6.09-20.813-18.58-43.645-37.12-67.866zm-48.88-191.91c15 0 41.616 2.347 51.358 18.074 11.01 17.776-.237 51.668-30.087 90.66-7 9.154-14.85 18.378-23.43 27.6-16.21-15.154-34.08-30.094-53.29-44.533-2.64-28.61-6.9-55.99-12.64-81.37 25.43-6.86 48.57-10.43 68.1-10.43zM384.283 446.48c-.293-.104-.585-.204-.88-.308-12.663-4.488-25.603-9.645-38.678-15.4 9.39-5.287 18.78-10.83 28.133-16.623 6.506-4.03 12.915-8.13 19.223-12.3-2.08 15.46-4.69 30.38-7.79 44.63zm-29.736-61.892c-16.005 9.913-32.282 19.152-48.565 27.593-16.27-8.44-32.534-17.68-48.527-27.59-14.5-8.98-28.486-18.32-41.854-27.91-1.15-16.41-1.76-33.21-1.79-50.27-.03-17.14.51-34.03 1.6-50.52 13.43-9.632 27.48-19.02 42.05-28.05 16-9.9 32.27-19.14 48.54-27.572 16.28 8.44 32.56 17.68 48.56 27.59 14.5 8.984 28.49 18.324 41.86 27.915 1.148 16.39 1.75 33.17 1.79 50.204.04 17.16-.51 34.07-1.6 50.577-13.43 9.64-27.48 19.025-42.05 28.05zm-126.36 61.67c-3.112-14.074-5.745-28.815-7.87-44.085 6.18 4.075 12.458 8.09 18.827 12.035 9.318 5.772 18.672 11.295 28.028 16.567-13.04 5.727-25.945 10.865-38.574 15.34-.137.047-.273.094-.41.143zm-48.79-117.417c-9.04-7.47-17.665-15.02-25.835-22.63 8.145-7.58 16.743-15.11 25.755-22.56-.202 7.55-.3 15.16-.283 22.81.016 7.51.14 14.98.365 22.39zm48.29-162.85c.304.11.606.22.91.32 12.646 4.48 25.57 9.63 38.626 15.37-9.373 5.28-18.744 10.81-28.08 16.6-6.508 4.037-12.92 8.14-19.233 12.31 2.08-15.448 4.682-30.355 7.776-44.58zm156.152.16c3.11 14.1 5.74 28.87 7.87 44.17-6.19-4.08-12.48-8.1-18.85-12.05-9.34-5.78-18.72-11.32-28.09-16.6 13.06-5.74 25.98-10.88 38.63-15.36l.43-.15zM432.6 283.6c9.036 7.47 17.656 15.02 25.82 22.62-8.14 7.58-16.735 15.11-25.743 22.56.204-7.57.3-15.194.285-22.86-.015-7.48-.137-14.924-.362-22.316zM244.35 108.436c17.334-45.946 40.166-73.402 61.13-73.446 20.904 0 43.842 27.362 61.36 73.24 2.93 7.674 5.663 15.737 8.206 24.127-22.35 7.764-45.557 17.48-69.057 28.944-23.7-11.56-47.1-21.34-69.63-29.14 2.47-8.24 5.13-16.17 7.98-23.72zm-168.93 54.96c9.74-15.726 36.357-18.074 51.356-18.074 19.4 0 42.362 3.525 67.6 10.3-5.685 25.475-9.86 52.96-12.408 81.696-19.106 14.38-36.893 29.252-53.028 44.337-8.58-9.22-16.43-18.445-23.437-27.598-29.85-38.992-41.1-72.884-30.09-90.66zm51.355 303.71c-15 0-41.615-2.348-51.356-18.075-11.01-17.77.23-51.67 30.08-90.66 7-9.14 14.84-18.36 23.41-27.57 16.217 15.166 34.103 30.12 53.32 44.57 2.65 28.598 6.906 55.95 12.652 81.31-25.44 6.86-48.588 10.43-68.123 10.43zm240.87 36.782c-17.336 45.946-40.168 73.342-61.078 73.342h-.05c-20.908 0-43.847-27.293-61.363-73.168-2.917-7.64-5.64-15.66-8.172-24.004 22.315-7.754 45.482-17.453 68.945-28.897 23.71 11.58 47.118 21.37 69.65 29.18-2.46 8.18-5.1 16.05-7.93 23.55zm168.93-54.8c-9.74 15.728-36.353 18.134-51.35 18.134h-.005c-19.41 0-42.382-3.554-67.63-10.347 5.694-25.495 9.875-53.004 12.427-81.763 19.1-14.378 36.885-29.248 53.02-44.33 8.585 9.227 16.44 18.456 23.45 27.614 29.85 38.992 41.097 72.913 30.087 90.69z"/></svg>