<svg xmlns="http://www.w3.org/2000/svg" width="47" height="47" viewBox="0 0 47 47"><path d="M17.567 15.938l-2.86-2.702c.334-.605.54-1.29.54-2.03 0-2.34-1.897-4.238-4.24-4.238s-4.243 1.896-4.243 4.24c0 2.342 1.9 4.24 4.243 4.24.826 0 1.59-.246 2.242-.654l2.85 2.7c.43-.572.92-1.095 1.46-1.556zM29.66 15.6l3.8-6.393c.373.107.76.184 1.168.184 2.347 0 4.244-1.89 4.244-4.24 0-2.34-1.897-4.24-4.244-4.24-2.343 0-4.24 1.9-4.24 4.24 0 1.17.47 2.22 1.228 2.98l-3.786 6.38c.65.3 1.262.67 1.83 1.1zm13.102 5.352c-1.824 0-3.37 1.16-3.968 2.775l-5.278-.52c0 .04.006.077.006.116 0 .688-.076 1.36-.213 2.01l5.27.52c.32 2.024 2.06 3.576 4.17 3.576 2.34 0 4.24-1.9 4.24-4.24 0-2.34-1.9-4.24-4.24-4.24zM28.197 37.624l-1.18-5.156c-.666.232-1.36.398-2.082.48l1.182 5.158c-1.355.71-2.29 2.11-2.29 3.746 0 2.342 1.896 4.237 4.243 4.237 2.342 0 4.238-1.9 4.238-4.24.003-2.3-1.83-4.16-4.11-4.23zM14.357 25.37l-6.57 2.2c-.758-1.157-2.063-1.925-3.548-1.925-2.35 0-4.24 1.897-4.24 4.24 0 2.344 1.89 4.24 4.24 4.24 2.34 0 4.24-1.896 4.24-4.24 0-.1-.02-.19-.03-.285l6.59-2.207c-.3-.64-.53-1.316-.69-2.023z"/><circle cx="23.83" cy="23.323" r="7.271"/></svg>