<svg xmlns="http://www.w3.org/2000/svg" viewBox="0 0 61.144 61.144"><g fill="#1D1D1B"><path d="M50.024 48.734c.03-.297-.11-.507-.312-.638-.09-.494-.442-.946-1.087-.986-2.918-.18-5.805-.04-8.694.415-1.73.274-3.94.454-5.6 1.332 4.1-9.052 10.39-19.316 10.84-29.324.34-7.442-3.04-15.338-10.29-18.25-15.81-6.35-29.21 12.21-21.54 26.167.04.058.08.097.12.14.15.315.47.538.88.396 2.61-.89 5.05-1.456 7.79-1.78.75-.088 1.08-.774.97-1.336.48.12 1.1-.352.96-.94-.532-1.692-.54-3.384-.012-5.078 5.085-2.726 7.445-2.044 7.08 2.047.11 2.29-.373 4.56-.92 6.78-1.13 4.57-2.782 9.23-4.692 13.54-2.54 5.73-8.616 12.08-5.93 18.79.24.59 1.02.78 1.485.5.155.37.496.65 1.054.62 8.594-.417 17.428-.68 25.956-1.92.732.382 1.85.05 1.78-1.006-.206-3.22-.15-6.276.18-9.487zm-8.352-22.836c-1.347.035-2.712.216-4.047.32-.26.02-.264.422 0 .408 1.286-.07 2.607-.076 3.9-.2-.127.434-.258.868-.397 1.303-1.333.18-2.615.37-3.998.32-.2-.01-.19.28 0 .3 1.195.14 2.584.16 3.832-.11-.2.6-.412 1.21-.635 1.81-2.773-.03-5.58.18-8.352.372.59-1.924 1.08-3.905 1.34-5.867 2.937-.04 6.107-.28 8.93-1.02-.167.78-.355 1.56-.573 2.345zm-19.124-1.702c-.122-.046-.26-.074-.423-.07-2.63.053-5.4.8-7.74 2.06-1.933-6.65-1.664-14.195 3.558-19.387 4.6-4.58 12.37-5.72 17.916-2.4-3.24-.23-6.54-.03-9.74.31-.22.02-.23.36 0 .34 3.61-.266 7.14-.12 10.74.02.42.31.83.643 1.21 1.013.79.762 1.47 1.563 2.04 2.397-5.585.123-11.17.35-16.75.61-.132.005-.134.206 0 .205 5.684-.05 11.375-.127 17.056-.317.42.67.797 1.35 1.1 2.056-7.238-.417-14.635.623-21.91.36-.207-.005-.205.31 0 .32 7.38.453 14.787-.57 22.125-.16.23.595.425 1.2.58 1.816-3.202-.204-6.504-.12-9.696-.01-.186.01-.184.276 0 .287 3.226.195 6.57.363 9.813.23.126.574.233 1.156.3 1.75-2.796.06-5.51.114-8.325-.28-.274-.037-.397.375-.118.42 2.762.46 5.7.74 8.51.42.046.554.07 1.11.07 1.675-2.334.03-4.66.192-7.005.124-.243-.008-.24.362 0 .374 2.3.12 4.69.235 7.003.024-.037 1.552-.233 3.143-.555 4.75-2.98.206-6 .705-8.978 1.108.3-2.496.21-4.955-.62-7.216-3.56-9.73-13.38-.53-10.188 7.143zM47.708 52.7c-.03-.01-.045-.034-.08-.034-7.75.012-15.527.517-23.25 1.153-.186.01-.19.3 0 .29 7.75-.43 15.497-.6 23.25-.87.014 0 .018-.01.03-.02-.063.61-.136 1.22-.168 1.833-7.79.46-15.578.926-23.363 1.45-.218.015-.222.352 0 .342 7.78-.35 15.556-.75 23.33-1.16-.02.592-.032 1.19-.022 1.774-8.368-.463-17.036.34-25.33 1.257-.306.034-.537.17-.722.346-.305-7.852 5.806-14.824 8.357-22.13.65-1.86 1.417-3.91 2.09-6.042 2.765-.057 5.565-.096 8.315-.36-.33.87-.678 1.738-1.04 2.598-1.48.25-2.943.423-4.476.37-.26-.01-.25.375 0 .39 1.4.064 2.85.01 4.25-.248-.33.752-.66 1.5-.99 2.24-2.48.17-4.96.472-7.43.676-.2.017-.2.335 0 .314.18-.024.36-.036.54-.046l.07.06c.41-.007.81-.018 1.22-.037.71-.024 1.42-.07 2.132-.12 1.073-.08 2.154-.16 3.22-.33-.387.837-.78 1.664-1.17 2.48-1.368.123-2.727.2-4.11.135-.23-.01-.226.34 0 .356 1.29.09 2.59.106 3.88-.017-.344.71-.69 1.413-1.03 2.1-1.62.07-3.265.3-4.857.47-.2.025-.21.338 0 .326 1.51-.08 3.08-.116 4.606-.28l-.896 1.813c-1.7.465-3.344.762-5.215.64-.21-.013-.2.303 0 .324 1.575.165 3.31.1 4.9-.324-.464.95-.91 1.874-1.32 2.753-1.843.263-3.663.418-5.563.362-.196-.006-.193.287 0 .3 1.76.118 3.573.083 5.34-.175-.13.286-.26.57-.384.85-.378.857.243 1.644.93 1.815-.003.095.03.18.083.255-2.57.155-5.13.237-7.73.083-.15-.01-.15.22 0 .234 4.004.384 7.925.18 11.935-.085 3.12-.203 7.636-.94 10.994-.46-.136.77-.256 1.546-.35 2.33zm.417-2.69c-2.614-.548-5.863-.054-8.304.1-.52.033-1.04.07-1.56.106.4-.098.8-.19 1.19-.253 2.91-.467 5.84-.572 8.78-.522-.04.19-.07.38-.1.57z"/><path d="M42.393 20.925c-2.598.037-5.16.283-7.767.176-.21 0-.206.31 0 .33 2.562.17 5.275.31 7.817-.12.214-.033.16-.372-.05-.37zM38.628 6.778c-5.19-.412-10.544-.04-15.75.035-.202.003-.202.31 0 .314 5.205.074 10.56.447 15.75.035.247-.02.248-.365 0-.384z"/></g></svg>