<svg xmlns="http://www.w3.org/2000/svg" width="291.734" height="291.734" viewBox="0 0 291.734 291.734"><path d="M59.294 152.69c.53 5.89 3.845 11.43 9.39 14.535 4.605 2.58 9.35 4.475 14.197 5.76-2.73 9.216-7.74 22.555-16.68 36.84-8.48 13.578-8.58 29.962-.26 44.958 12.26 22.1 39.31 36.95 67.34 36.95 19.25 0 36.37-8.864 48.19-24.963 16.9-23.017 20.64-56.985 10.01-90.846-9.85-31.39 3.33-48.135 12.05-55.333 7.11 6.86 16.75 11.08 27.407 11.08 21.84 0 39.55-17.71 39.55-39.55s-17.71-39.55-39.55-39.55c-21.844 0-39.55 17.71-39.55 39.55 0 3.08.385 6.06 1.048 8.93-16.466 12.05-35.475 39.16-22.172 81.55 8.39 26.73 5.817 53.94-6.725 71.02-5.32 7.25-14.89 15.888-30.25 15.888-19.874 0-39.566-10.485-47.882-25.49-3.067-5.536-5.607-13.92-.317-22.386 11.812-18.91 17.725-36.557 20.53-47.343 6.565-.99 12.976-3.107 19.143-6.4 5.496-2.936 8.87-8.25 9.612-13.99 26.13-23.624 38.194-66.19 38.89-68.68 1.41-5.11-1-10.355-5.49-12.747 3.61-31.954-8.22-48.06-15.357-54.62.542-3.07-.686-6.354-3.38-8.114l-13.12-8.58c-3.425-2.238-7.73-1.11-9.608 2.536l-6.25 12.076c-1.883 3.645-.224 7.533 3.707 8.693l14.825 4.37c3.76 1.107 8.263-.69 10.39-3.983 5.91 6.22 14.417 20.08 11.486 46.512-4.03.76-7.482 3.7-8.652 7.92-3.56 12.78-13.85 39.19-29.12 55.02-4.86-1.88-10.45-1.786-15.41.854-3.23 1.726-6.383 2.595-9.63 2.663h-.67c-3.41-.075-6.75-1.04-10.16-2.95-4.835-2.71-10.343-2.95-15.2-1.24-14.933-15.9-25.002-41.75-28.505-54.36-1.173-4.204-4.64-7.15-8.655-7.912-2.94-26.438 5.57-40.29 11.482-46.52 2.13 3.295 6.627 5.09 10.386 3.98l14.824-4.37c3.926-1.16 5.596-5.05 3.71-8.69l-6.25-12.07C66.727.044 62.42-1.082 59 1.153L45.88 9.73c-2.694 1.76-3.92 5.042-3.378 8.113-7.125 6.56-18.962 22.66-15.35 54.618-4.493 2.4-6.893 7.64-5.49 12.76.682 2.44 12.384 43.65 37.632 67.48zM230.92 76.66c8.523 0 15.446 6.914 15.446 15.453 0 8.533-6.923 15.45-15.445 15.45-8.53 0-15.45-6.917-15.45-15.45 0-8.54 6.92-15.452 15.45-15.452z"/></svg>