<?xml version="1.0" encoding="iso-8859-1"?>
<!-- Generator: Adobe Illustrator 16.0.0, SVG Export Plug-In . SVG Version: 6.00 Build 0)  -->
<!DOCTYPE svg PUBLIC "-//W3C//DTD SVG 1.1//EN" "http://www.w3.org/Graphics/SVG/1.1/DTD/svg11.dtd">
<svg version="1.1" id="Capa_1" xmlns="http://www.w3.org/2000/svg" xmlns:xlink="http://www.w3.org/1999/xlink" x="0px" y="0px"
	 width="28.704px" height="28.705px" viewBox="0 0 28.704 28.705" style="enable-background:new 0 0 28.704 28.705;"
	 xml:space="preserve">
<g>
	<g>
		<path d="M28.139,22.632l-0.193-0.342C27.221,21,25.524,17.978,23.771,15.4c-0.588-0.864-1.181-1.671-1.716-2.402
			c-0.857-1.169-1.924-2.622-1.936-3.053c0.064-1.896,0.021-6.377,0.005-7.762h1.12V0.22H7.096v1.964H8.58
			C8.562,3.569,8.52,8.05,8.584,9.943c-0.011,0.434-1.077,1.887-1.936,3.056c-0.534,0.73-1.127,1.538-1.716,2.403
			C3.18,17.979,1.484,21,0.759,22.292l-0.193,0.341c-0.747,1.317-0.755,3.118-0.023,4.373c0.556,0.953,1.447,1.478,2.506,1.478l0,0
			h22.604h0.002c1.06,0,1.951-0.524,2.506-1.478C28.894,25.75,28.885,23.951,28.139,22.632z M26.756,26.186
			c-0.259,0.446-0.629,0.671-1.103,0.671H3.049c-0.471,0-0.841-0.226-1.101-0.671c-0.441-0.755-0.428-1.94,0.033-2.752l0.194-0.35
			c0.715-1.272,2.389-4.25,4.104-6.771c0.574-0.849,1.156-1.638,1.682-2.356c1.497-2.043,2.278-3.149,2.248-4.068
			c-0.059-1.686-0.027-5.607-0.008-7.301h8.304c0.018,1.694,0.051,5.615-0.008,7.301c-0.032,0.918,0.749,2.025,2.247,4.068
			c0.525,0.718,1.105,1.508,1.682,2.356c1.716,2.521,3.389,5.498,4.104,6.771l0.194,0.35C27.185,24.246,27.198,25.431,26.756,26.186
			z"/>
		<path d="M25.679,22.81c-0.427-0.757-1.425-2.533-2.454-4.049c-0.265-0.389-0.525-0.749-0.776-1.093H6.258
			c-0.251,0.344-0.512,0.704-0.775,1.093c-1.029,1.516-2.029,3.292-2.455,4.049l-0.112,0.202c-0.438,0.774-0.444,1.831-0.014,2.571
			c0.327,0.559,0.851,0.867,1.473,0.867h1.419h5.251h6.618h5.284h1.386c0.623,0,1.146-0.309,1.476-0.867
			c0.427-0.74,0.424-1.797-0.017-2.571L25.679,22.81z"/>
	</g>
</g>
<g>
</g>
<g>
</g>
<g>
</g>
<g>
</g>
<g>
</g>
<g>
</g>
<g>
</g>
<g>
</g>
<g>
</g>
<g>
</g>
<g>
</g>
<g>
</g>
<g>
</g>
<g>
</g>
<g>
</g>
</svg>
