<svg xmlns="http://www.w3.org/2000/svg" width="298.962" height="298.962" viewBox="0 0 298.962 298.962"><path d="M211.157 13.354C191.597 4.494 170.875 0 149.567 0 90.99 0 37.522 34.466 13.354 87.806c-34.006 75.06-.607 163.792 74.453 197.8 19.56 8.86 40.28 13.355 61.59 13.355 58.577 0 112.043-34.46 136.21-87.8 34.007-75.06.608-163.79-74.45-197.8zm-76.022 42.222c12.703 0 23 10.297 23 23 0 12.702-10.297 23-23 23-12.7 0-22.998-10.298-22.998-23 0-12.703 10.298-23 22.998-23zm71.496 189.117c-8.19 25.22-38.34 47.98-85.19 38.352v.003c-9.65-2.036-19.09-5.13-28.26-9.282C24.65 242.716-5.84 161.703 25.2 93.17c14.404-31.79 40.21-56.217 71.27-69.356 1.777-.75 4.3-.423 1.3 1.952-12.87 9.83-17.45 18.747-20.56 33.127-6.186 28.607 8.848 68.982 69.59 96.502 57.16 25.898 67.954 64.29 59.833 89.298z"/><circle cx="163.409" cy="228.418" r="23"/></svg>