<svg xmlns="http://www.w3.org/2000/svg" width="24.432" height="24.432" viewBox="0 0 24.432 24.432"><path d="M6.42 9.3c1.77 0 3.205-1.434 3.205-3.207 0-1.105.39-2.117-.465-2.69-.512-.35-2.76-.515-3.424-.515-.79 0-1.817.644-2.376 1.12-.695.586-.147 1.103-.147 2.084 0 1.774 1.433 3.21 3.207 3.21zM4.186 5.78c.59-.108.99.086.99.086l.983-.48s-.51.725-.06.48c1.01-.336 2.13-.196 2.7-.084.02.125.04.253.04.386 0 1.32-1.05 2.387-2.35 2.387S4.14 7.488 4.14 6.168c0-.133.018-.26.04-.39zm17.88-.137c-.015-.183-.03-.365-.07-.54-.127-1.125-1.133-3.41-4.02-3.34-2.488.058-3.03 1.93-3.162 3.07-.088.28-.145.574-.164.88-3.236.564-2.88 3.848-.904 3.904-.188-1.715.63-2.745.945-3.076.3 1.78 1.82 3.14 3.68 3.14 1.76 0 3.22-1.22 3.62-2.86.3.54.81 1.63.69 2.81 3.12-.024 1.58-3.583-.6-3.972zm-3.703 2.974c-1.455 0-2.64-1.172-2.672-2.62.54-.194.93-1.114.93-1.114s.32.108.32 1.147c.55.192 1.51-1.614 1.51-1.614V5.84c.61.165 2.52-.055 2.52-.055l.07.06c0 .03.01.06.01.092 0 1.478-1.2 2.68-2.67 2.68zm.78 1.153h-2.89l-3.85 4.64-3.728-4.583H4.438L0 14.7l.93.958 3.177-2.71v5.257h.637v3.997H4.34v.47h1.844v-4.467h.69v4.467h1.842v-.47h-.404v-3.997h.773v-5.16l2.54 2.61 1.038-.257.575.144 2.877-3.293.164 1.3-2.68 4.59h3.08v4h-.41v.46h1.84v-.47h.002v-3.99h.687v4.46h1.846v-.467h-.406V18.14h2.39l-2.35-4.593.13-1.606 2.248 3.02 1.49-.37-3.56-4.83"/></svg>