<svg xmlns="http://www.w3.org/2000/svg" viewBox="0 0 62.264 62.264"><g fill="#1D1D1B"><path d="M22.168 6.633c-.127 0-.127.197 0 .197s.127-.197 0-.197z"/><path d="M48.726 39.048c-2.863-6.878-9.003-11.767-16.242-12.963 2.976-2.137 5.683-4.954 8.38-7.296 1.892-1.65 4.382-3.43 4.477-6 .43-.18.75-.55.69-1.08-.24-2.05-.49-4.09-.6-6.15-.07-1.32.26-2.94-.68-3.94.22-.7-.19-1.69-1.08-1.63-8.33.553-16.66 1.05-24.99 1.57-.07.004-.12.03-.18.046-.59-.177-1.26.035-1.38.81-.42 2.726-.7 5.53-.504 8.29.014.2.104.366.23.5-.51.717-.247 1.92.854 1.814 4.65-.45 9.2-.3 13.74.59-3.57 2.796-7.5 4.624-11.928 5.985-.3.093-.45.375-.46.66-.195.14-.343.352-.396.67-.52 3.13-.37 6.384.946 9.31.04.086.09.155.154.21-.69.533-.4 1.86.626 1.844 4.873-.088 9.47 1.32 11.87 5.99 1.5 2.91 1.633 10.27-3.93 9.15-3.93-.79-3.875-6.1-3.304-9 .1-.51-.255-.836-.64-.88-.11-.166-.267-.3-.47-.34-1.714-.37-3.515.1-5.24.323-1.633.21-3.262.432-4.89.682-.46-.064-.944.135-1.104.74C8 56.58 30.06 68.34 44.094 58.945c6.514-4.36 7.48-13.05 4.633-19.894zm-30.45-28.39c.394-2.468.7-4.946 1.123-7.41 7.94.535 16.11.202 24-.866-.38.943-.23 2.145-.23 3.188 0 .144 0 .287.01.43-6.34-.423-12.94-.13-19.26.338-.21.015-.21.318 0 .32 6.39.01 12.88.12 19.27-.196.01.934.05 1.866.13 2.796-5.56-.656-11.23-.883-16.81-.7-.17.005-.23.28-.04.31l1.18.184c.08.013.11-.1.03-.127 2.12.68 5.44.142 7.66.264 2.68.14 5.35.39 8.02.6.07.75.15 1.5.25 2.24.023.17.08.31.163.42-.464 1.17-1.686 1.93-2.65 2.703-.42.34-.833.69-1.247 1.04-2.814.125-5.414.43-8.205.12 1.1-.765 2.15-1.605 3.146-2.515.65-.59.318-1.753-.52-1.96-5.28-1.307-10.634-1.774-16.04-1.195zm28.248 41.09c-4.89-.685-9.938-.61-14.855-.376-.17.008-.17.257 0 .253 4.92-.107 9.76.28 14.67.552-.31.67-.69 1.316-1.13 1.922-1.31.29-4.05-.44-5.26-.54-1.75-.16-3.5-.3-5.26-.42-4.09-.29-8.18-.5-12.28-.6-.19-.01-.19.28 0 .29 4.68.25 9.36.52 14.03.92 1.84.15 6.11 1.34 8.3.93-.47.54-.98 1.06-1.57 1.53-6.49-.65-13.01-1.19-19.518-1.62-.155-.01-.15.213 0 .23 6.29.71 12.606 1.31 18.92 1.813-.15.104-.29.22-.45.32-.79.5-1.6.925-2.427 1.283-5.04-.17-10.007-.407-15.015-1.13-.17-.027-.245.23-.07.26 4.586.756 9.26 1.31 13.92 1.33-11.99 4.22-26.18-5.37-23.866-18.928 1.58-.07 3.16-.16 4.74-.26 1.32-.084 2.62-.065 3.87-.4-.98 3.732-.666 8.154 3.272 10.073 2.073 1.01 4.253.63 5.94-.57 4.944 0 9.873.205 14.815.327-.163.96-.422 1.9-.795 2.79zm.876-3.307c-4.814-.32-9.678-.27-14.5-.11.94-.78 1.693-1.82 2.132-3.02 2.94-8.05-6.163-16.56-14.038-15.21.018-.07.03-.14.018-.23-.375-2.81-.586-5.47-.095-8.29.053-.3-.003-.57-.122-.79 3.73-.574 7.223-2.03 10.345-4.09 2.59.43 5.475.684 8.07.096-.742.633-1.482 1.27-2.224 1.907-3.113.193-6.173.45-9.314.373-.177-.007-.172.255 0 .27 2.785.24 5.728.326 8.55-.01-.823.68-1.67 1.363-2.52 2.062-3.51.053-7.014.246-10.53.2-.158-.003-.157.236 0 .243 3.278.15 6.622.27 9.918.08-.893.75-1.77 1.52-2.568 2.337-2.95-.014-5.905.08-8.858-.005-.16-.006-.16.237 0 .247 2.75.172 5.568.35 8.35.283-.295.324-.578.654-.844.99-.396.505-.29 1.16.078 1.524-2.53.004-5.052.023-7.584-.07-.18-.007-.176.263 0 .277 2.958.227 5.968.34 8.935.17 1.96.39 3.83 1.02 5.59 1.88-2.77-.05-5.51.07-8.28-.103-.16-.01-.15.227 0 .24 2.79.265 5.7.506 8.5.21.09-.01.14-.074.15-.144.89.46 1.753.97 2.572 1.55-2.64-.174-5.34.01-7.98.04-.2 0-.2.31 0 .316 2.73.033 5.526.236 8.25.03.064-.008.11-.037.137-.075.69.51 1.357 1.054 1.982 1.65-2.705-.054-5.424.06-8.12.1-.18 0-.18.273 0 .276 2.853.04 5.732.166 8.59.09.632.64 1.24 1.31 1.79 2.04-2.86-.156-5.778.025-8.63.07-.21 0-.21.32 0 .32 2.954.043 5.98.242 8.936.056.36.505.71 1.014 1.03 1.56.44.754.814 1.553 1.14 2.375-3.38.16-6.72.485-10.11.464-.166 0-.166.254 0 .26 3.39.103 6.884.152 10.25-.358.31.84.56 1.706.743 2.58-3.132-.096-6.375.09-9.497.36-.19.017-.196.29 0 .296 3.13.08 6.38.066 9.503-.224.03 0 .044-.024.07-.035.14.765.234 1.54.27 2.31-3.95.04-7.904.307-11.845.543-.16.01-.164.263 0 .26 3.948-.09 7.91-.154 11.847-.438.013.767-.014 1.533-.114 2.285z"/><path d="M44.925 37.927c-3.255.016-6.5.198-9.756.134-.19 0-.19.29 0 .3 3.23.16 6.52.26 9.75-.08.21-.022.22-.34 0-.34zM42.42 13.63c-2.47-.022-5.103.582-7.54.964-.15.024-.117.288.038.272 2.454-.256 5.155-.35 7.535-1.002.13-.036.103-.234-.032-.235zm.502-2.814c-2.957.102-5.79.266-8.75-.005-.16-.01-.2.27-.04.29 2.86.43 5.984.63 8.84.1.214-.04.164-.38-.05-.37z"/></g></svg>