<svg xmlns="http://www.w3.org/2000/svg" viewBox="0 0 492.388 492.388"><path d="M217.015 189.087c-15.393-5.53-32.37 2.48-37.893 17.882l-17.73 49.41-1.776-30.45 56.055-155.7c3.77-10.4-.75-22.2-10.86-27.3-10.93-5.52-24.26-1.14-29.78 9.79l-78.6 155.59c-1.68 3.36-2.67 7.26-2.67 11.28l.42 117.08-72.24 37.93C1.9 385.117-5.81 409.88 4.7 429.907c10.53 20.035 35.284 27.75 55.32 17.23l133.503-70.107 3.058-1.6c8.95-4.77 15.69-13.48 17.53-24.26l22.12-129.2c2.386-13.9-5.455-27.95-19.2-32.87zm253.438 185.51l-72.232-37.924.42-117.078c0-4.018-.99-7.92-2.67-11.282l-78.6-155.586c-5.52-10.93-18.85-15.314-29.78-9.794-10.11 5.104-14.62 16.905-10.86 27.3l56.06 155.7-1.776 30.45-17.73-49.415c-5.52-15.4-22.5-23.41-37.892-17.882-13.743 4.93-21.584 18.97-19.2 32.877L278.3 351.17c1.84 10.778 8.575 19.49 17.52 24.26l3.06 1.6 133.502 70.104c20.035 10.52 44.79 2.808 55.32-17.227 10.51-20.026 2.8-44.788-17.238-55.31z"/></svg>