<svg xmlns="http://www.w3.org/2000/svg" viewBox="0 0 62.794 62.794"><g fill="#1D1D1B"><path d="M42.41 1.613c-.028-.494-.394-.736-.76-.73-.013-.474-.32-.912-.95-.88-4.06.2-8.192.567-12.216 1.152-.185.027-.31.118-.402.232-.146.095-.27.24-.325.47-2.313 9.355-4.817 18.545-7.883 27.687-.11.327.045.554.274.66.04.13.128.248.287.33 1.844.953 3.84 1.673 5.743 2.507.664.3 1.198-.05 1.398-.53.072-.06.135-.15.18-.25.836-2.01 1.622-4.05 2.402-6.08l.188-.47c-.847 11.76-.525 23.686.248 35.41.076 1.15 1.47 1.4 2.048.75.4.166.56.534.96.7.543.225 1.41.125 1.99.15 1.534.067 3.084.14 4.616.054.755-.044 1.118-.62 1.1-1.19.426-.083.804-.393.818-.96.484-19.53 1.433-39.49.285-58.996zM32.128 21.457c2.635-.16 5.268-.354 7.897-.58-.02.996-.044 1.993-.06 2.99-2.165 0-4.37.208-6.506.292-.28.01-.29.44 0 .43 2.13-.04 4.34.04 6.49-.09-.01.76-.03 1.52-.04 2.29-2.066-.02-4.15.112-6.21.092-.248-.003-.24.36 0 .374 2.013.12 4.16.225 6.2.05-.004.54-.015 1.075-.02 1.614-2.144.11-4.272.27-6.436.196-.28-.01-.277.42 0 .43 2.113.1 4.305.15 6.432-.088-.006.8-.02 1.6-.02 2.402-1.888.187-3.734.35-5.66.217-.3-.02-.298.44 0 .463 1.844.16 3.8.21 5.66-.09 0 .9-.005 1.8 0 2.7-1.96.41-3.868.56-5.86.245-.284-.044-.41.385-.12.44 1.99.37 4.025.373 5.977-.17 0 .674 0 1.347.004 2.02-2.497.19-4.97.47-7.48.516-.065-5.59-.13-11.172-.26-16.76zm.27 17.06c2.483.026 5.022-.022 7.48-.432.002.743.004 1.486.008 2.23-1.497.146-3.003.43-4.475.64-.21.03-.16.4.05.377 1.46-.155 2.97-.247 4.43-.465l.02 2.522c-2.48.23-4.93.48-7.44.55-.02-1.81-.04-3.62-.07-5.43zm.073 5.772c2.44.16 5.02.11 7.44-.33l.02 1.9c-1.45-.01-2.93.31-4.29.75-.18.06-.1.34.08.29 1.42-.41 2.79-.51 4.22-.57l.02 2.3c-1.35.17-2.69.392-4.032.58-.23.033-.176.436.055.406 1.324-.17 2.663-.304 3.99-.49l.02 2.34c-2.45.286-4.88.57-7.36.68-.06-2.626-.107-5.248-.146-7.87zm3.13 16.22c-.58.02-1.44-.08-1.99.15-.31.13-.48.37-.72.55.01-.04.02-.07.02-.12-.12-2.862-.2-5.724-.27-8.586 2.43.01 4.94-.1 7.36-.498.006.48.01.965.015 1.45-1.67.254-3.3.505-5.04.436-.243-.01-.24.36 0 .374 1.607.093 3.396.096 5.043-.25.008.736.016 1.474.02 2.21-1.836.356-3.64.63-5.57.55-.19-.005-.184.28 0 .29 1.8.13 3.757.106 5.577-.3l.03 3.67c-1.485-.07-2.984-.004-4.466.06zM30.46 6.49c3.408-.39 6.744-.385 10.157-.386-.03.492-.067.983-.093 1.477-2.515-.05-5.05.05-7.56.07-.265 0-.266.41 0 .41 2.5.02 5.025.12 7.53.07-.026.566-.06 1.13-.086 1.695-2.73.06-5.464.3-8.19.38-.218.004-.22.336 0 .335 2.705-.004 5.465.026 8.17-.22-.076 1.693-.152 3.387-.206 5.084-2.847.252-5.595.604-8.466.503-.25-.01-.246.37 0 .388 2.78.196 5.73.217 8.454-.442-.03.877-.058 1.753-.08 2.63-2.863-.02-5.78.23-8.624.425-.26.02-.266.414 0 .41 2.845-.057 5.766-.07 8.61-.34-.01.47-.026.936-.036 1.404-2.636.22-5.274.43-7.913.63l-.006-.412c-.01-.48-.39-.672-.74-.616-.22-.092-.49-.072-.67.148-.27.32-.49.67-.69 1.037-1.345.094-2.693.2-4.042.29-.214.013-.22.346 0 .336 1.28-.053 2.557-.14 3.835-.206-.546 1.163-.85 2.465-1.243 3.687-.63 1.95-1.25 3.904-1.835 5.87-1.83-.557-3.655-1.214-5.51-1.665 3.547-8.603 6.38-17.646 8.085-26.8 3.796-.04 7.65-.29 11.42-.673.063-.008.11-.037.17-.05-.046.583-.076 1.17-.11 1.76-2.836-.07-5.725.153-8.553.285-.21.01-.212.33 0 .327 2.82-.016 5.707.055 8.524-.165l-.09 1.46c-3.382-.29-6.89.03-10.23.554-.185.03-.145.35.04.327z"/><path d="M39.214 58.776c-1.77.053-3.553.393-5.304.65-.18.027-.14.342.044.322 1.76-.19 3.567-.308 5.297-.7.16-.035.12-.277-.03-.272zm.244-45.86c-3.56-.14-7.19.123-10.75.27-.26.01-.264.407 0 .406 3.562-.02 7.2.077 10.75-.226.285-.025.293-.44 0-.45z"/></g></svg>