<svg xmlns="http://www.w3.org/2000/svg" width="182.33" height="182.331" viewBox="0 0 182.33 182.331"><path d="M11.958 47.27c2.865 0 5.207-3.328 5.207-6.204s-2.342-5.212-5.207-5.212c-2.885 0-5.227 2.336-5.227 5.212.01 2.876 2.35 6.203 5.23 6.203zm10.28 3.903c-.02-.1-.07-.183-.096-.273-.042-.15-.08-.298-.135-.443-.056-.1-.137-.178-.196-.268-.1-.12-.19-.25-.3-.35-.1-.08-.2-.13-.3-.19-.11-.06-.2-.15-.32-.19-.18-.08-4.32-1.55-8.13-1.75l-.53 1.04 1.39 10.8-1.65 2.88-1.654-2.88 1.386-10.8h-.02l-.51-1.048c-3.82.197-7.953 1.674-8.146 1.75-.126.037-.215.123-.317.19-.11.056-.21.105-.304.185-.124.102-.21.225-.312.35-.06.094-.132.165-.18.26-.08.146-.116.293-.14.444-.04.1-.08.18-.1.275L.02 65.983c-.13 1.138.685 2.154 1.813 2.276.08.01.14.01.225.01 1.043 0 1.926-.78 2.044-1.83L5.6 52.93c.168-.043.364-.1.577-.16v14.06l-1.63 20.373c-.12 1.363.892 2.545 2.257 2.665.078.01.147.01.208.01 1.282 0 2.363-.99 2.46-2.27l1.484-18.42c.302.134.627.21 1.002.21.343 0 .675-.075.995-.21l1.47 18.42c.112 1.28 1.193 2.27 2.46 2.27.064 0 .14 0 .21-.01 1.35-.117 2.366-1.3 2.26-2.66L17.71 66.834v-14.06c.208.067.392.116.58.16l1.505 13.51c.11 1.054 1.007 1.833 2.027 1.833.084 0 .16 0 .23-.01 1.13-.125 1.95-1.145 1.815-2.277l-1.633-14.82zm43.565-3.82c2.872 0 5.203-3.333 5.203-6.207 0-2.875-2.33-5.207-5.203-5.207-2.882 0-5.208 2.33-5.208 5.2s2.326 6.21 5.208 6.21zm10.282 3.9c0-.1-.06-.18-.09-.27-.04-.153-.068-.304-.145-.443-.052-.1-.118-.186-.198-.268-.09-.123-.167-.246-.295-.347-.096-.08-.208-.123-.31-.19-.106-.064-.197-.146-.304-.185-.183-.074-4.33-1.56-8.144-1.75l-.53 1.044h-.01l1.38 10.802-1.64 2.874-1.64-2.87 1.37-10.802h-.01L65 47.8c-3.81.19-7.95 1.676-8.136 1.75-.12.033-.203.12-.32.19-.1.062-.2.106-.296.18-.124.106-.203.23-.304.352-.07.083-.145.162-.193.263-.07.14-.1.29-.14.448-.03.096-.08.162-.09.263l-1.66 14.828c-.11 1.126.69 2.153 1.84 2.273.08.008.15.014.23.014 1.03 0 1.93-.78 2.046-1.83l1.5-13.5c.174-.05.37-.11.57-.16v14.04L58.4 87.29c-.11 1.367.907 2.56 2.26 2.67.063.005.143.005.207.005 1.272 0 2.352-.98 2.45-2.27l1.49-18.42c.31.134.646.22 1 .22.357 0 .7-.08 1.006-.22l1.474 18.42c.107 1.29 1.183 2.27 2.46 2.27.068 0 .124 0 .197-.01 1.36-.12 2.37-1.3 2.253-2.67L71.56 66.9V52.86c.203.05.406.108.583.163l1.497 13.505c.124 1.053 1.015 1.833 2.043 1.833.08 0 .16 0 .23-.01 1.128-.12 1.945-1.14 1.817-2.27l-1.645-14.82zm-37.208-3.94c2.914 0 5.257-3.37 5.257-6.274 0-2.92-2.348-5.27-5.257-5.27s-5.26 2.35-5.26 5.26c0 2.9 2.35 6.27 5.26 6.27zm11.598 18.75l-3.315-13.32c-.023-.027-.033-.032-.04-.062-.035-.09-.095-.18-.128-.29-.063-.1-.1-.2-.175-.29-.005-.02-.005-.04-.038-.06-.14-.15-3.48-3.89-7.91-3.89s-7.77 3.74-7.91 3.9c-.02.02-.02.04-.04.06-.06.09-.117.19-.156.28-.055.1-.116.2-.146.3-.01.02-.02.038-.027.065L27.28 66.06c-.236.89.31 1.79 1.21 2.017.128.033.256.052.39.052.758 0 1.426-.51 1.62-1.27l3.2-12.82.845 7.82-5.455 10.68c0 .39 2.223 1.3 5.457 1.784L33.477 87.7c-.1 1.15.755 2.157 1.906 2.245.057.005.106.005.168.005 1.08 0 1.99-.826 2.08-1.91l1.07-13.38h.35l1.08 13.38c.09 1.084.99 1.91 2.06 1.91.08 0 .13 0 .18-.005 1.15-.1 2.008-1.1 1.907-2.244L43.2 74.33c3.23-.48 5.464-1.4 5.464-1.79L43.2 61.88l.846-7.82 3.21 12.814c.18.76.85 1.267 1.61 1.267.13 0 .26-.02.384-.05.912-.22 1.454-1.12 1.223-2.01zm-11.883 37.813c-2.88 0-5.207-3.338-5.207-6.21 0-2.885 2.326-5.205 5.207-5.205 2.878 0 5.204 2.34 5.204 5.21s-2.325 6.21-5.204 6.21zm-10.282 3.89c0-.087.073-.18.09-.267.04-.16.067-.31.146-.44.045-.11.128-.19.194-.28.09-.12.17-.24.298-.35.09-.08.208-.13.306-.19.112-.07.198-.15.304-.19.19-.08 4.332-1.556 8.147-1.75l.532 1.04h.004l-1.38 10.804 1.65 2.873 1.64-2.87-1.38-10.8h.01l.53-1.046c3.81.2 7.95 1.678 8.14 1.75.12.04.21.12.32.19.1.06.205.11.31.19.125.103.21.23.297.35.075.09.145.164.198.26.07.148.1.3.147.45.02.1.08.18.09.267l1.647 14.83c.116 1.127-.69 2.15-1.83 2.276-.07 0-.15.01-.23.01-1.024 0-1.92-.793-2.04-1.84l-1.5-13.5c-.176-.058-.353-.118-.577-.168v14.05l1.648 20.38c.12 1.355-.912 2.55-2.262 2.66-.06 0-.14.008-.206.008-1.277 0-2.35-.98-2.45-2.276l-1.5-18.408c-.307.135-.644.214-.996.214-.36 0-.7-.08-1-.215l-1.49 18.41c-.1 1.295-1.175 2.275-2.453 2.275-.06 0-.13-.006-.19-.006-1.37-.11-2.38-1.304-2.262-2.66l1.648-20.384V109.37c-.21.05-.41.11-.585.167l-1.5 13.503c-.115 1.045-1.007 1.84-2.04 1.84-.08 0-.15-.013-.23-.013-1.13-.126-1.95-1.15-1.813-2.275l1.64-14.825zm-16.643-3.856c-2.91 0-5.267-3.37-5.267-6.27 0-2.918 2.365-5.267 5.267-5.267 2.904 0 5.257 2.354 5.257 5.266.005 2.9-2.353 6.27-5.257 6.27zM.06 122.667l3.332-13.322c0-.014.028-.04.028-.052.035-.11.1-.19.142-.295.054-.104.098-.208.173-.296.004-.016.004-.038.016-.054.15-.16 3.49-3.897 7.92-3.897 4.44 0 7.78 3.74 7.91 3.9.02.01.03.04.04.06.07.09.11.19.16.29.058.107.11.19.14.3 0 .02.036.042.036.053l3.327 13.324c.22.895-.316 1.79-1.213 2.01-.13.033-.27.06-.397.06-.75 0-1.43-.51-1.615-1.263l-3.21-12.816-.822 7.818 5.458 10.67c0 .405-2.23 1.31-5.462 1.796l1.07 13.376c.09 1.15-.764 2.157-1.913 2.247H15c-1.082 0-1.997-.82-2.084-1.92l-1.078-13.364h-.353l-1.07 13.37c-.087 1.097-.99 1.92-2.08 1.92H8.18c-1.144-.096-2-1.1-1.91-2.247l1.076-13.374c-3.24-.49-5.47-1.39-5.47-1.798l5.47-10.654-.84-7.83-3.206 12.8c-.187.757-.865 1.266-1.613 1.266-.133 0-.272-.024-.4-.06-.91-.22-1.447-1.11-1.227-2zm65.455-18.757c-2.914 0-5.256-3.37-5.256-6.27 0-2.918 2.34-5.267 5.25-5.267s5.26 2.354 5.26 5.266c0 2.9-2.368 6.27-5.27 6.27zm-11.598 18.757l3.328-13.322c.005-.014.02-.04.03-.052.033-.11.087-.19.128-.295.06-.104.1-.208.17-.296.02-.016.02-.038.038-.054.14-.16 3.48-3.897 7.91-3.897s7.77 3.74 7.9 3.9c.03.01.03.04.04.06.07.09.128.19.168.29.056.107.12.19.146.3.003.02.02.042.03.053l3.32 13.324c.235.895-.32 1.79-1.217 2.01-.12.033-.252.06-.387.06-.757 0-1.427-.51-1.62-1.263l-3.2-12.82-.844 7.818 5.457 10.668c0 .406-2.23 1.31-5.457 1.797l1.07 13.375c.096 1.15-.766 2.153-1.91 2.243h-.166c-1.076 0-1.984-.82-2.068-1.92l-1.076-13.37h-.346l-1.09 13.37c-.09 1.096-.994 1.92-2.063 1.92h-.175c-1.14-.097-1.99-1.1-1.905-2.248l1.07-13.373c-3.22-.49-5.457-1.39-5.457-1.796l5.46-10.654-.836-7.83-3.198 12.815c-.19.753-.87 1.262-1.614 1.262-.145 0-.268-.026-.4-.06-.914-.22-1.462-1.11-1.228-2.002zm62.613-31.47h19.635v55.36H116.53zm23.086-25.594h19.628v80.956h-19.628zm23.088-29.753h19.626v110.708h-19.626zm-53.112 55.315L88.36 76.552l3.165 10.208h-9.28v8.81h9.28l-3.165 10.212"/></svg>