<svg xmlns="http://www.w3.org/2000/svg" width="535.416" height="535.417" viewBox="0 0 535.416 535.417"><path d="M500.364 167.693C491.256 122.923 497.07 29.18 342.046 4.46 187.062-20.286 47.396 58.36 82.528 230.247c0 31.33-62.035 79.965-47.088 96.406 14.946 16.44 40.31 17.083 40.31 17.083s-16.488 31.33-9.073 39.982c7.41 8.652 28.025 4.95 28.025 4.95s-19.156 13.803-19.156 24.51c0 10.72 32.345 24.955 32.345 24.955s-5.93 59.285 42.64 55.174c48.57-4.11 56.75-17.83 56.75-17.83l14.41 59.937h187.99l-6.61-130.27c0 .012 115.44-125.318 97.3-237.454zm-73.145 70.542l-52.41 11.712-23.26-20.925 8.23-20.925h67.43v30.138zM424.79 57.24l38.77 41.08-38.77 32.556h-21.696V109.95l12.4-15.88-1.54-26.543L424.79 57.24zm-21.696-18.614l-2.312 57.626-20.144 30.232-13.207-4.916 1.76-34.74-33.91-10.602 29.08-43.848 38.75 6.248zM272.007 78.352l.584-47.888 50.01.42 23.54 10.463-15.11 23.845-12.4 17.62 37.19 11.643v24.02l-7.74 21.684-48.07 3.1v-8.52l-9.024-3.88-8.8 27.184-23.546 9.26-31.88-22.876 13.563-24.034 19.388 6.59 3.29-11.63-10.255-7.752 7.078-13.57L300 107.618l12.016-5.43L272.01 78.35zM182.18 95.984h47.293l-37.21-16.266 11.24-19.384 55.122-21.416V72.35l-37.688.502 25.58 15.39-24.038 46.5h-44.96c.01.01 2.33-38.758 4.66-38.758zm-3.63 48.46h32.94l42.627 29.298-27.13 10.836-48.438-40.134zm61.77 68.592V186.68l15.508-8.524 38.762 16.278 24.008 7.753 3.106-12.027-30.99-12.004 2.31-20.926 46.522 1.542 41.08-24.02 41.08 12.4 43.416-31.784 23.26 39.54-55.816 3.864-9.295 24.032 25.58 3.094-17.83-8.524 3.88-12.4 49.86-1.647-3.93 43.345-46.03.257L413.96 189l-29.473 11.24-22.958-.875 19.87-18.9-44.573-2.03 15.89 19.864-13.957 31h-74.41l-24.03-16.28zm117.852 74.033l-41.98-43.81c5.442 0 29.462-6.99 29.462-6.99l35.768 39.923-23.25 10.86z"/></svg>