<svg xmlns="http://www.w3.org/2000/svg" width="28.704" height="28.705" viewBox="0 0 28.704 28.705"><path d="M28.14 22.632l-.194-.342c-.725-1.29-2.422-4.312-4.175-6.89-.58-.864-1.18-1.67-1.71-2.402-.85-1.17-1.92-2.622-1.93-3.053.07-1.896.02-6.377.01-7.762h1.12V.22H7.098v1.964H8.58c-.018 1.385-.06 5.866.004 7.76-.01.433-1.077 1.886-1.936 3.055-.534.73-1.127 1.53-1.716 2.4C3.18 17.98 1.484 21 .76 22.29l-.194.34c-.747 1.318-.755 3.12-.023 4.374.556.953 1.447 1.478 2.506 1.478h22.6c1.06 0 1.95-.524 2.5-1.478.73-1.256.72-3.055-.02-4.374zm-1.384 3.554c-.26.446-.63.67-1.103.67H3.05c-.472 0-.842-.225-1.102-.67-.44-.755-.428-1.94.033-2.752l.2-.35c.72-1.272 2.39-4.25 4.11-6.77.58-.85 1.16-1.64 1.68-2.357 1.5-2.043 2.28-3.15 2.25-4.068-.06-1.69-.022-5.61-.01-7.31h8.31c.02 1.69.05 5.61-.01 7.3-.03.92.75 2.02 2.25 4.07.525.71 1.105 1.5 1.68 2.35 1.717 2.52 3.39 5.5 4.105 6.77l.195.35c.46.81.473 2 .03 2.75z"/><path d="M25.68 22.81c-.428-.757-1.426-2.533-2.455-4.05-.265-.388-.525-.748-.776-1.092H6.25c-.25.344-.512.704-.775 1.093-1.03 1.52-2.03 3.3-2.455 4.05l-.112.21c-.437.78-.443 1.83-.013 2.57.327.56.85.87 1.473.87h19.96c.624 0 1.147-.31 1.477-.86.426-.74.423-1.797-.018-2.57l-.116-.203z"/></svg>