<svg xmlns="http://www.w3.org/2000/svg" width="55.547" height="68.653" viewBox="-5.792 -3.639 55.547 68.653"><g fill="#FFF"><path d="M16.76 54.41c-.357 0-.716-.12-.97-.36-2.974-2.757-3.214-8.642-3.225-8.888 0-2.22-1.677-4.517-3.62-7.18-3.014-4.128-6.432-8.81-4.845-14.905C6.524 13.745 18.734 13.02 22.417 13.02c.723 0 1.307.486 1.307 1.083 0 .6-.585 1.084-1.307 1.084-4.087 0-13.804.812-15.762 8.348-1.367 5.25 1.63 9.357 4.526 13.326 2.06 2.82 4 5.48 4 8.27.054 1.445.62 5.678 2.557 7.474.48.446.435 1.13-.102 1.53-.25.183-.564.276-.874.276z"/><path d="M28.147 54.41c-.31 0-.624-.093-.87-.276-.538-.4-.585-1.084-.105-1.53 1.94-1.8 2.505-6.028 2.557-7.504 0-2.762 1.938-5.422 3.997-8.24 2.898-3.97 5.896-8.076 4.527-13.326C36.292 16 26.578 15.187 22.49 15.187c-.725 0-1.308-.485-1.308-1.084 0-.597.583-1.083 1.307-1.083 3.683 0 15.556.725 17.98 10.057 1.585 6.094-1.495 10.776-4.51 14.905-1.942 2.663-3.62 4.96-3.62 7.148-.012.28-.252 6.162-3.223 8.918-.255.24-.615.362-.97.362z"/><path d="M22.577 53.706c-.542 0-.98-.364-.98-.813 0-.55.036-1.395.083-2.44.127-2.972.364-8.498-.177-13.27-2.658.493-4.466-.372-5.452-1.095-2.728-2.002-3.35-5.752-2.09-7.764.772-1.23 2.154-1.747 3.785-1.423 2.14.426 3.565 2.07 4.49 4.532 1.262-3.786 3.412-5.456 5.34-5.703 1.48-.192 2.81.46 3.38 1.66.89 1.858-.027 5.14-5.535 8.28-.705.406-1.377.72-2.008.965.497 4.012.445 8.877.23 13.875-.047 1.025-.084 1.848-.084 2.387 0 .445-.44.81-.98.81zM16.83 28.428c-.497 0-.855.208-1.128.646-.888 1.415-.3 4.365 1.65 5.794 1.065.784 2.397 1.01 3.932.683-.595-3.685-1.77-6.63-3.995-7.07-.167-.033-.32-.052-.46-.052zm11.25-1.107c-.065 0-.134.005-.205.014-1.227.157-3.575 1.946-4.438 7.457.286-.138.577-.288.872-.458 4.24-2.42 5.474-4.986 4.823-6.343-.123-.262-.42-.67-1.052-.67z"/><path d="M28.73 58.094H16.16c-1.395 0-2.532-1.005-2.532-2.24v-.75c0-1.236 1.136-2.242 2.53-2.242H28.73c1.395 0 2.532 1.006 2.532 2.242v.75c0 1.235-1.136 2.24-2.532 2.24zm-12.57-3.606c-.31 0-.572.28-.572.61v.75c0 .336.262.62.57.62H28.73c.308 0 .573-.284.573-.62V55.1c0-.334-.262-.61-.573-.61H16.16z"/><path d="M28.73 61.703H16.16c-1.395 0-2.532-1.004-2.532-2.238v-.75c0-1.238 1.136-2.242 2.53-2.242H28.73c1.395 0 2.532 1.004 2.532 2.242v.75c0 1.234-1.136 2.238-2.532 2.238zm-12.57-3.61c-.31 0-.572.286-.572.618v.75c0 .335.262.617.57.617H28.73c.308 0 .573-.282.573-.616v-.75c0-.335-.262-.616-.573-.616H16.16z"/><path d="M22.108 65.014c-3.003 0-5.11-1.75-5.11-3.902 0-.448.438-.812.98-.812.54 0 .98.364.98.812 0 1.255 1.563 2.28 3.486 2.28s3.487-1.022 3.487-2.28c0-.448.44-.812.98-.812.543 0 .98.364.98.812.002 2.154-2.778 3.902-5.782 3.902z"/></g><path fill="#FFF" d="M21.982 4.922c.65 0 1.18-.766 1.18-1.713v-5.136c0-.945-.528-1.712-1.18-1.712-.652 0-1.18.768-1.18 1.712V3.21c0 .946.528 1.712 1.18 1.712zM9.434 8.545c.22.55.615.856 1.025.856.198 0 .403-.072.587-.23.567-.472.76-1.518.434-2.338L9.71 2.384c-.327-.82-1.048-1.1-1.614-.627-.565.473-.758 1.518-.433 2.34l1.774 4.448zM-.41 17.48l-3.068-2.57c-.565-.473-1.287-.192-1.614.627-.324.82-.13 1.866.433 2.34l3.068 2.567c.187.156.39.23.59.23.41 0 .805-.307 1.024-.855.326-.82.132-1.87-.432-2.34zM.113 36.627c0-.943-.53-1.71-1.182-1.71h-3.54c-.653 0-1.182.767-1.182 1.71 0 .947.53 1.715 1.18 1.715h3.543c.653 0 1.183-.768 1.183-1.715zM48.575 34.918l-3.54-.002c-.653 0-1.182.768-1.182 1.71 0 .948.528 1.714 1.18 1.714l3.542.002c.65 0 1.18-.768 1.18-1.71 0-.946-.526-1.714-1.18-1.714zM44.963 20.672c.2 0 .405-.074.59-.23l3.068-2.564c.57-.472.763-1.518.435-2.338-.326-.82-1.05-1.102-1.61-.626l-3.07 2.566c-.566.472-.76 1.52-.433 2.337.22.55.615.855 1.02.855zM32.917 9.168c.187.158.39.23.59.23.406 0 .803-.306 1.023-.856l1.77-4.446c.326-.817.134-1.865-.433-2.337-.566-.476-1.287-.197-1.613.627l-1.77 4.445c-.324.816-.13 1.865.433 2.336z"/></svg>