<svg xmlns="http://www.w3.org/2000/svg" width="550.801" height="550.801" viewBox="0 0 550.801 550.801"><path d="M130.358 60.6c-4.9-8.6-1.8-18.4 6.1-23.3 3.1-1.8 6.7-2.4 9.8-2.4 5.5.6 10.4 3.7 13.5 8.6l22.6 38.6-30 17.1-22-38.6zm290.701 0c4.899-8.6 1.8-19-6.7-23.3-8.6-4.9-19-1.2-23.9 6.1l-22 38.6 30 17.1 22.6-38.5zm-128.5-43.5c0-9.8-8-17.1-17.101-17.1-9.8 0-17.7 7.3-17.7 17.1v44.7h34.9V17.1h-.099zm223.399 121.2c-3.1-4.9-8-8-13.5-8.6-3.1 0-6.699 0-9.8 1.8l-38.6 22.6 17.1 30 39.2-22.6c7.401-4.2 10.5-14.6 5.6-23.2zm-34.899 363.501h-13.5c1.2-1.801 1.8-4.301 1.8-6.701v-18.4c0-8.6-6.7-15.299-15.3-15.299H97.958c-8.6 0-15.3 6.699-15.3 15.299v18.4c0 2.4.6 4.9 1.8 6.701h-13.5c-8.6 0-15.3 6.699-15.3 15.299v18.4c0 8.6 6.7 15.301 15.3 15.301h410.7c8.601 0 15.3-6.701 15.3-15.301v-18.4c-.6-7.901-7.3-15.299-15.899-15.299zM436.358 444.9h-321.3V275.4c0-88.7 72.2-160.3 161-160.3 88.701 0 161 71.6 161 160.3v169.5h-.7zm-184.2-140.701c0-45.899-37.3-83.199-83.2-83.199v167.1c45.9-.1 83.2-37.401 83.2-83.901zm129.7-83.299c-45.9 0-83.2 37.3-83.2 83.2 0 45.9 37.3 83.201 83.2 83.201V220.9zm-284.5-66.1l-39.2-22.6c-1.8-1.2-4.3-1.8-6.1-1.8-6.7-.6-13.5 2.4-17.1 8.6-4.9 8.6-2.4 18.4 6.1 23.3l39.2 22.6 17.1-30.1z"/></svg>