<?xml version="1.0" encoding="utf-8"?>
<!DOCTYPE svg PUBLIC "-//W3C//DTD SVG 1.1//EN" "http://www.w3.org/Graphics/SVG/1.1/DTD/svg11.dtd">
<svg version="1.1" id="Capa_1" xmlns="http://www.w3.org/2000/svg" xmlns:xlink="http://www.w3.org/1999/xlink" x="0px" y="0px"
	 width="400px" height="400px" viewBox="0 0 400 400" enable-background="new 0 0 400 400" xml:space="preserve">
<g>
	<g>
		<path d="M376.865,360.011V179.26c0-9.434-7.646-17.082-17.08-17.082h-81.112v-49.179
			c0-4.645-2.517-8.926-6.571-11.188l-65.859-36.729c-0.363-0.203-0.738-0.381-1.115-0.545v-20.96h35.465
			c2.829,0,5.124-2.295,5.124-5.125V12.566c0-2.83-2.295-5.125-5.124-5.125h-35.465V5.125c0-2.83-2.293-5.125-5.124-5.125
			s-5.124,2.295-5.124,5.125v59.412c-0.377,0.165-0.752,0.343-1.116,0.545l-65.86,36.73c-4.058,2.261-6.573,6.543-6.573,11.188
			v49.178H40.216c-9.434,0-17.08,7.648-17.08,17.082v180.75c-7.257,3.284-12.308,10.583-12.308,19.063
			c0,11.559,9.368,20.926,20.924,20.926h336.496c11.556,0,20.924-9.367,20.924-20.926
			C389.171,370.593,384.121,363.294,376.865,360.011z M310.841,221.716c0-5.495,4.455-9.95,9.954-9.95H339.4
			c5.493,0,9.949,4.455,9.949,9.95v18.606c0,5.495-4.456,9.95-9.949,9.95h-18.604c-5.499,0-9.954-4.455-9.954-9.95L310.841,221.716
			L310.841,221.716z M310.841,281.5c0-5.494,4.455-9.949,9.954-9.949H339.4c5.493,0,9.949,4.455,9.949,9.949v18.605
			c0,5.495-4.456,9.95-9.949,9.95h-18.604c-5.499,0-9.954-4.455-9.954-9.95L310.841,281.5L310.841,281.5z M251.061,221.716
			c0-5.495,4.453-9.95,9.947-9.95h18.607c5.492,0,9.949,4.455,9.949,9.95v18.606c0,5.495-4.457,9.95-9.949,9.95h-18.607
			c-5.494,0-9.947-4.455-9.947-9.95V221.716z M251.061,281.5c0-5.494,4.453-9.949,9.947-9.949h18.607
			c5.492,0,9.949,4.455,9.949,9.949v18.605c0,5.495-4.457,9.95-9.949,9.95h-18.607c-5.494,0-9.947-4.455-9.947-9.95V281.5z
			 M200,113.039c15.566,0,28.186,12.618,28.186,28.184c0,15.566-12.619,28.183-28.186,28.183c-15.566,0-28.184-12.618-28.184-28.184
			C171.816,125.656,184.434,113.039,200,113.039z M171.777,274.835c0-5.494,4.454-9.949,9.953-9.949h36.542
			c5.496,0,9.949,4.455,9.949,9.949v78.391c0,1.794-0.479,3.475-1.312,4.929h-53.814c-0.833-1.454-1.315-3.135-1.315-4.929
			L171.777,274.835L171.777,274.835z M110.434,221.716c0-5.495,4.454-9.95,9.949-9.95h18.606c5.495,0,9.949,4.455,9.949,9.95v18.606
			c0,5.495-4.454,9.95-9.949,9.95h-18.606c-5.495,0-9.949-4.455-9.949-9.95V221.716z M110.434,281.5
			c0-5.494,4.454-9.949,9.949-9.949h18.606c5.495,0,9.949,4.455,9.949,9.949v18.605c0,5.495-4.454,9.95-9.949,9.95h-18.606
			c-5.495,0-9.949-4.455-9.949-9.95V281.5z M50.647,221.716c0-5.495,4.454-9.95,9.952-9.95h18.604c5.497,0,9.952,4.455,9.952,9.95
			v18.606c0,5.495-4.455,9.95-9.952,9.95H60.6c-5.498,0-9.952-4.455-9.952-9.95L50.647,221.716L50.647,221.716z M50.647,281.5
			c0-5.494,4.454-9.949,9.952-9.949h18.604c5.497,0,9.952,4.455,9.952,9.949v18.605c0,5.495-4.455,9.95-9.952,9.95H60.6
			c-5.498,0-9.952-4.455-9.952-9.95L50.647,281.5L50.647,281.5z"/>
	</g>
</g>
</svg>
