<svg xmlns="http://www.w3.org/2000/svg" width="125.422" height="125.422" viewBox="0 0 125.422 125.422"><circle cx="62.267" cy="13.981" r="13.981"/><path d="M67.73 42.457h3.486c1.123 0 2.104.644 2.564 1.624 6.922 2.67 8.56 11.14 8.89 16.46h7.563C86.94 45.24 78.31 32.78 65.94 28.7l-3.483 3.506-3.376-3.544-.03.006c-1.73.414-19.9 8.468-23.85 31.865h11.15c.57-2.37 1.17-4.448 1.81-6.255v6.255H78.2c.08-3.483-1.177-6.797-1.39-7.332.042.12-1.753-4.1-4.673-5.22-.294.11-.6.16-.91.16h-3.49c-1.566 0-2.842-1.27-2.842-2.84 0-1.56 1.275-2.84 2.84-2.84zm-1.867 12.806l-3.373 4.614h-.065l-3.37-4.614 3.37-22.538h.065l3.373 22.538zm-36.377 6.75h66.45v7.238h-66.45zm10.066 63.41h46.32l4.595-54.527h-55.51"/></svg>