<svg xmlns="http://www.w3.org/2000/svg" width="481.75" height="481.75" viewBox="0 0 481.75 481.75"><circle cx="240.876" cy="130.292" r="50.279"/><path d="M455.362 27.768c-4.006 0-7.57 1.853-9.906 4.744v-8.477c0-7.026-5.69-12.722-12.72-12.722-5.14 0-9.562 3.05-11.567 7.437v-6.03c0-7.023-5.7-12.72-12.72-12.72-7.03 0-12.73 5.697-12.73 12.72v39.707h-46.91c-3.03-6.854-10.16-11.32-18.02-10.52-6.56.688-11.83 4.895-14.32 10.52h-151.2c-2.49-5.625-7.76-9.832-14.316-10.52-7.865-.8-14.984 3.665-18.016 10.52H86.03V12.72C86.03 5.696 80.33 0 73.303 0 66.28 0 60.587 5.696 60.587 12.72v6.03c-2.01-4.388-6.432-7.438-11.57-7.438-7.025 0-12.72 5.695-12.72 12.722v8.478c-2.335-2.892-5.9-4.744-9.905-4.744-7.025 0-12.725 5.695-12.725 12.722v49.312c0 7.024 5.7 12.72 12.725 12.72 4.004 0 7.57-1.852 9.904-4.745v8.48c0 7.024 5.695 12.72 12.72 12.72 5.14 0 9.562-3.05 11.57-7.437v6.028c0 7.024 5.694 12.72 12.718 12.72 7.027 0 12.725-5.695 12.725-12.72V77.866h43.85c-1.74 31.823-1.37 87.95 19.94 111.313 16.1 17.64 33.61 27.78 45.29 33.15v90.03c-25.61 7.092-45.37 21.19-62.31 43.78-22.86 30.48-23.56 90.42-23.468 102.122.102 13.002 10.676 23.472 23.652 23.472h.19c13.07-.106 23.576-10.78 23.475-23.85-.177-21.825 4.15-60.23 13.995-73.357 14.04-18.71 30.724-30.336 70.21-30.45 39.498.113 56.174 11.74 70.215 30.45 9.845 13.124 14.17 51.532 13.997 73.356-.1 13.07 10.405 23.744 23.476 23.85h.195c12.98 0 23.553-10.47 23.65-23.47.096-11.71-.6-71.647-23.46-102.13-16.94-22.59-36.706-36.683-62.31-43.78v-90.03c11.677-5.37 29.19-15.51 45.29-33.155 21.315-23.365 21.68-79.49 19.95-111.314h43.852v39.707c0 7.023 5.696 12.72 12.727 12.72 7.023 0 12.72-5.696 12.72-12.72v-6.03c2.006 4.387 6.428 7.438 11.568 7.438 7.025 0 12.72-5.692 12.72-12.72v-8.47c2.334 2.894 5.897 4.746 9.904 4.746 7.023 0 12.72-5.697 12.72-12.72V40.49c.002-7.027-5.693-12.722-12.72-12.722zM305.704 165.26c-11.12 12.19-29.635 23.105-31.47 23.69s-12.716-2.748-33.358-2.748c-20.645 0-30.07 2.996-33.357 2.748s-20.35-11.5-31.48-23.69c-9.7-10.632-12.75-50.6-10.62-87.394h150.9c2.12 36.795-.92 76.762-10.62 87.395z"/></svg>