<?xml version="1.0"?>
<svg version="1.1" xmlns="http://www.w3.org/2000/svg" xmlns:xlink="http://www.w3.org/1999/xlink" width="337" height="335">
    <desc iVinci="yes" version="4.6" gridStep="20" showGrid="no" snapToGrid="no" codePlatform="0"/>
    <g id="Layer1" name="Layer 1" opacity="1">
        <g id="Shape1">
            <desc shapeID="1" type="0" basicInfo-basicType="0" basicInfo-roundedRectRadius="12" basicInfo-polygonSides="6" basicInfo-starPoints="5" bounding="rect(-44.4074,-36.8574,88.8148,73.7148)" text="" font-familyName="" font-pixelSize="20" font-bold="0" font-underline="0" font-alignment="1" strokeStyle="0" markerStart="0" markerEnd="0" shadowEnabled="0" shadowOffsetX="0" shadowOffsetY="2" shadowBlur="4" shadowOpacity="160" blurEnabled="0" blurRadius="4" transform="matrix(1,0,0,1,267.65,99.3856)" pers-center="0,0" pers-size="0,0" pers-start="0,0" pers-end="0,0" locked="0" mesh="" flag=""/>
            <path id="shapePath1" d="M296.386,92.5 C294.786,90.2 295.286,86.9 297.586,85.3 C299.886,83.7 303.186,84.2 304.786,86.5 C306.386,88.8 305.886,92.1 303.586,93.7 C301.286,95.4 298.086,94.8 296.386,92.5 M255.786,128.7 L249.986,120.4 C271.986,126.5 287.686,125.4 296.886,117.1 C303.286,111.5 304.986,103.7 305.186,97.6 C305.486,97.4 305.786,97.3 306.086,97.1 C310.286,94.1 311.386,88.4 308.386,84.2 C307.786,83.3 306.786,82.5 305.886,81.9 L308.686,80 C312.286,77.5 313.086,72.7 310.686,69.3 L308.386,65.9 C305.886,62.3 301.086,61.5 297.686,63.9 L275.286,79.3 C272.186,81.5 271.086,85.7 272.686,89.1 L269.586,91.3 C268.686,91.9 268.486,93.2 269.086,93.9 L270.686,96.1 C271.286,97 272.586,97.2 273.286,96.6 L276.386,94.4 C278.986,97 283.286,97.7 286.386,95.5 L291.786,91.8 C292.086,92.9 292.586,94 293.186,94.9 C294.386,96.8 296.286,98 298.286,98.5 C297.986,103 296.586,108.3 292.386,112.2 C285.186,118.6 271.386,119.2 252.186,113.9 L257.586,109.5 L259.786,112.8 C260.386,113.7 261.686,113.9 262.386,113.3 L265.386,111.3 C266.286,110.7 266.486,109.4 265.886,108.7 L255.486,93.6 C254.886,92.7 253.586,92.5 252.886,93.1 L249.886,95.1 C248.986,95.7 248.786,97 249.386,97.7 L251.586,101 L240.886,107.2 L233.086,96 C232.486,95.1 231.186,94.9 230.486,95.5 L224.086,99.9 C223.186,100.5 222.986,101.8 223.586,102.5 L246.186,135.4 C246.786,136.3 248.086,136.5 248.786,135.9 L255.186,131.5 C256.086,130.8 256.286,129.5 255.786,128.7 Z" style="stroke:none;fill-rule:nonzero;fill:#ffffff;fill-opacity:1;"/>
        </g>
        <g id="Shape2">
            <desc shapeID="2" type="0" basicInfo-basicType="0" basicInfo-roundedRectRadius="12" basicInfo-polygonSides="6" basicInfo-starPoints="5" bounding="rect(-41.9,-44.6279,83.8,89.2559)" text="" font-familyName="" font-pixelSize="20" font-bold="0" font-underline="0" font-alignment="1" strokeStyle="0" markerStart="0" markerEnd="0" shadowEnabled="0" shadowOffsetX="0" shadowOffsetY="2" shadowBlur="4" shadowOpacity="160" blurEnabled="0" blurRadius="4" transform="matrix(1,0,0,1,86.2856,265.072)" pers-center="0,0" pers-size="0,0" pers-start="0,0" pers-end="0,0" locked="0" mesh="" flag=""/>
            <path id="shapePath2" d="M87.7856,251.4 L51.7856,233.5 L57.0856,227.3 L75.4856,230.9 L76.0856,230.1 C77.4856,228.5 79.7856,228.4 81.3856,229.8 C82.1856,230.4 82.5856,231.4 82.5856,232.3 L100.986,235.9 L110.686,224.7 C114.386,220.3 120.386,219.1 123.786,222.1 C127.186,225.1 126.886,231.1 123.186,235.5 L113.486,246.7 L119.686,264.5 C120.586,264.5 121.586,264.7 122.286,265.4 C123.886,266.8 123.986,269.1 122.586,270.7 L121.986,271.5 L128.186,289.1 L122.886,295.3 L99.9856,262.3 L83.3856,281.8 C83.1856,282.1 82.8856,282.3 82.7856,282.6 L86.9856,303.5 L81.5856,309.7 L69.7856,285.7 L44.3856,277.4 L49.7856,271.2 L70.3856,272.1 C70.6856,271.8 70.8856,271.3 71.1856,271 L87.7856,251.4 Z" style="stroke:none;fill-rule:nonzero;fill:#ffffff;fill-opacity:1;"/>
        </g>
        <g id="Shape3">
            <desc shapeID="3" type="0" basicInfo-basicType="0" basicInfo-roundedRectRadius="12" basicInfo-polygonSides="6" basicInfo-starPoints="5" bounding="rect(-33.7948,-38.45,67.5897,76.9)" text="" font-familyName="" font-pixelSize="20" font-bold="0" font-underline="0" font-alignment="1" strokeStyle="0" markerStart="0" markerEnd="0" shadowEnabled="0" shadowOffsetX="0" shadowOffsetY="2" shadowBlur="4" shadowOpacity="160" blurEnabled="0" blurRadius="4" transform="matrix(1,0,0,1,171.531,292.05)" pers-center="0,0" pers-size="0,0" pers-start="0,0" pers-end="0,0" locked="0" mesh="" flag=""/>
            <path id="shapePath3" d="M157.686,293.2 L160.786,288.2 L166.086,278.7 L166.286,261.1 L162.586,261.1 C161.486,261.1 160.586,260.2 160.586,259.1 L160.586,258.6 C160.586,257.5 161.486,256.6 162.586,256.6 L181.886,256.8 C182.986,256.8 183.886,257.7 183.886,258.8 L183.886,259.3 C183.886,260.4 182.986,261.3 181.886,261.3 L178.186,261.3 L177.886,278.8 L182.986,288.5 L185.986,293.5 L157.686,293.2 M180.686,278.1 L180.886,263.9 L181.786,263.9 C184.386,263.9 186.586,261.7 186.586,259.1 L186.586,258.6 C186.586,256 184.386,253.8 181.786,253.8 L162.486,253.6 C159.886,253.6 157.686,255.8 157.686,258.4 L157.686,258.9 C157.686,261.5 159.886,263.7 162.486,263.7 L163.386,263.7 L163.186,277.9 L140.486,313.4 L139.386,315.1 C137.386,318.8 137.186,322.6 138.886,325.5 C140.586,328.5 143.986,330.2 148.186,330.2 L194.586,330.5 C198.786,330.5 202.186,328.9 204.086,326 C205.786,323 205.786,319.3 203.786,315.6 L180.686,278.1 Z" style="stroke:none;fill-rule:nonzero;fill:#ffffff;fill-opacity:1;"/>
        </g>
        <g id="Shape4">
            <desc shapeID="4" type="0" basicInfo-basicType="0" basicInfo-roundedRectRadius="12" basicInfo-polygonSides="6" basicInfo-starPoints="5" bounding="rect(-5.3,-5.30002,10.6,10.6)" text="" font-familyName="" font-pixelSize="20" font-bold="0" font-underline="0" font-alignment="1" strokeStyle="0" markerStart="0" markerEnd="0" shadowEnabled="0" shadowOffsetX="0" shadowOffsetY="2" shadowBlur="4" shadowOpacity="160" blurEnabled="0" blurRadius="4" transform="matrix(1,0,0,1,172.486,240.5)" pers-center="0,0" pers-size="0,0" pers-start="0,0" pers-end="0,0" locked="0" mesh="" flag=""/>
            <path id="shapePath4" d="M177.786,240.5 C177.786,243.5 175.486,245.8 172.486,245.8 C169.486,245.8 167.186,243.5 167.186,240.5 C167.186,237.5 169.486,235.2 172.486,235.2 C175.486,235.2 177.786,237.6 177.786,240.5 Z" style="stroke:none;fill-rule:nonzero;fill:#ffffff;fill-opacity:1;"/>
        </g>
        <g id="Shape5">
            <desc shapeID="5" type="0" basicInfo-basicType="0" basicInfo-roundedRectRadius="12" basicInfo-polygonSides="6" basicInfo-starPoints="5" bounding="rect(-4,-4,8,8)" text="" font-familyName="" font-pixelSize="20" font-bold="0" font-underline="0" font-alignment="1" strokeStyle="0" markerStart="0" markerEnd="0" shadowEnabled="0" shadowOffsetX="0" shadowOffsetY="2" shadowBlur="4" shadowOpacity="160" blurEnabled="0" blurRadius="4" transform="matrix(1,0,0,1,163.786,227.2)" pers-center="0,0" pers-size="0,0" pers-start="0,0" pers-end="0,0" locked="0" mesh="" flag=""/>
            <path id="shapePath5" d="M167.786,227.2 C167.786,229.4 166.086,231.2 163.786,231.2 C161.586,231.2 159.786,229.5 159.786,227.2 C159.786,225 161.486,223.2 163.786,223.2 C166.086,223.3 167.786,225 167.786,227.2 Z" style="stroke:none;fill-rule:nonzero;fill:#ffffff;fill-opacity:1;"/>
        </g>
        <g id="Shape6">
            <desc shapeID="6" type="0" basicInfo-basicType="0" basicInfo-roundedRectRadius="12" basicInfo-polygonSides="6" basicInfo-starPoints="5" bounding="rect(-2.20001,-2.20001,4.40001,4.40002)" text="" font-familyName="" font-pixelSize="20" font-bold="0" font-underline="0" font-alignment="1" strokeStyle="0" markerStart="0" markerEnd="0" shadowEnabled="0" shadowOffsetX="0" shadowOffsetY="2" shadowBlur="4" shadowOpacity="160" blurEnabled="0" blurRadius="4" transform="matrix(1,0,0,1,172.486,265.8)" pers-center="0,0" pers-size="0,0" pers-start="0,0" pers-end="0,0" locked="0" mesh="" flag=""/>
            <path id="shapePath6" d="M174.686,265.8 C174.686,267 173.786,268 172.486,268 C171.186,268 170.286,267.1 170.286,265.8 C170.286,264.6 171.186,263.6 172.486,263.6 C173.786,263.6 174.686,264.5 174.686,265.8 Z" style="stroke:none;fill-rule:nonzero;fill:#ffffff;fill-opacity:1;"/>
        </g>
        <g id="Shape7">
            <desc shapeID="7" type="0" basicInfo-basicType="0" basicInfo-roundedRectRadius="12" basicInfo-polygonSides="6" basicInfo-starPoints="5" bounding="rect(-44.028,-33.4846,88.056,66.9692)" text="" font-familyName="" font-pixelSize="20" font-bold="0" font-underline="0" font-alignment="1" strokeStyle="0" markerStart="0" markerEnd="0" shadowEnabled="0" shadowOffsetX="0" shadowOffsetY="2" shadowBlur="4" shadowOpacity="160" blurEnabled="0" blurRadius="4" transform="matrix(1,0,0,1,292.175,178.354)" pers-center="0,0" pers-size="0,0" pers-start="0,0" pers-end="0,0" locked="0" mesh="" flag=""/>
            <path id="shapePath7" d="M332.686,161.1 L311.986,158.6 L312.186,153.3 C312.186,150.3 309.986,147.7 307.086,147.4 L286.386,144.9 C283.386,144.6 280.586,146.5 279.986,149.4 L278.786,154.5 L257.886,152 C255.686,151.7 253.886,153.2 253.486,155.4 L248.186,198.2 C247.886,200.4 249.386,202.2 251.586,202.6 L326.486,211.8 C328.686,212.1 330.486,210.6 330.886,208.4 L336.186,165.6 C336.386,163.5 334.886,161.4 332.686,161.1 M313.586,184.6 C312.186,196.4 301.486,204.7 289.586,203.3 C277.686,201.9 269.486,191.2 270.886,179.3 C272.286,167.5 282.986,159.2 294.886,160.6 C306.486,162.1 314.986,172.8 313.586,184.6 M331.486,170.3 L313.886,168.1 L314.486,163 L332.086,165.2 L331.486,170.3 Z" style="stroke:none;fill-rule:nonzero;fill:#ffffff;fill-opacity:1;"/>
        </g>
        <g id="Shape8">
            <desc shapeID="8" type="0" basicInfo-basicType="0" basicInfo-roundedRectRadius="12" basicInfo-polygonSides="6" basicInfo-starPoints="5" bounding="rect(-12.9,-12.9,25.8,25.8)" text="" font-familyName="" font-pixelSize="20" font-bold="0" font-underline="0" font-alignment="1" strokeStyle="0" markerStart="0" markerEnd="0" shadowEnabled="0" shadowOffsetX="0" shadowOffsetY="2" shadowBlur="4" shadowOpacity="160" blurEnabled="0" blurRadius="4" transform="matrix(1,0,0,1,292.186,182)" pers-center="0,0" pers-size="0,0" pers-start="0,0" pers-end="0,0" locked="0" mesh="" flag=""/>
            <path id="shapePath8" d="M305.086,182 C305.086,189.124 299.31,194.9 292.186,194.9 C285.061,194.9 279.286,189.124 279.286,182 C279.286,174.876 285.061,169.1 292.186,169.1 C299.31,169.1 305.086,174.876 305.086,182 Z" style="stroke:none;fill-rule:evenodd;fill:#ffffff;fill-opacity:1;"/>
        </g>
        <g id="Shape9">
            <desc shapeID="9" type="0" basicInfo-basicType="0" basicInfo-roundedRectRadius="12" basicInfo-polygonSides="6" basicInfo-starPoints="5" bounding="rect(-10.1967,-14.7138,20.3935,29.4276)" text="" font-familyName="" font-pixelSize="20" font-bold="0" font-underline="0" font-alignment="1" strokeStyle="0" markerStart="0" markerEnd="0" shadowEnabled="0" shadowOffsetX="0" shadowOffsetY="2" shadowBlur="4" shadowOpacity="160" blurEnabled="0" blurRadius="4" transform="matrix(1,0,0,1,225.953,243.75)" pers-center="0,0" pers-size="0,0" pers-start="0,0" pers-end="0,0" locked="0" mesh="" flag=""/>
            <path id="shapePath9" d="M216.386,251.9 L228.086,231.2 C229.286,229.2 231.986,228.4 233.986,229.6 C235.986,230.8 236.786,233.3 235.586,235.5 L223.886,256.3 C222.686,258.3 220.186,259.1 217.986,257.9 C215.886,256.7 215.086,254.1 216.386,251.9 Z" style="stroke:none;fill-rule:nonzero;fill:#ffffff;fill-opacity:1;"/>
        </g>
        <g id="Shape10">
            <desc shapeID="10" type="0" basicInfo-basicType="0" basicInfo-roundedRectRadius="12" basicInfo-polygonSides="6" basicInfo-starPoints="5" bounding="rect(-13.8814,-21.2638,27.7629,42.5276)" text="" font-familyName="" font-pixelSize="20" font-bold="0" font-underline="0" font-alignment="1" strokeStyle="0" markerStart="0" markerEnd="0" shadowEnabled="0" shadowOffsetX="0" shadowOffsetY="2" shadowBlur="4" shadowOpacity="160" blurEnabled="0" blurRadius="4" transform="matrix(1,0,0,1,236.768,248.7)" pers-center="0,0" pers-size="0,0" pers-start="0,0" pers-end="0,0" locked="0" mesh="" flag=""/>
            <path id="shapePath10" d="M223.386,263.4 L242.586,229.6 C243.786,227.6 246.286,226.8 248.486,228 C250.486,229.2 251.286,231.7 250.086,233.9 L230.886,267.8 C229.686,269.8 227.186,270.6 224.986,269.4 C223.086,268.1 222.286,265.6 223.386,263.4 Z" style="stroke:none;fill-rule:nonzero;fill:#ffffff;fill-opacity:1;"/>
        </g>
        <g id="Shape11">
            <desc shapeID="11" type="0" basicInfo-basicType="0" basicInfo-roundedRectRadius="12" basicInfo-polygonSides="6" basicInfo-starPoints="5" bounding="rect(-13.9468,-21.2138,27.8935,42.4276)" text="" font-familyName="" font-pixelSize="20" font-bold="0" font-underline="0" font-alignment="1" strokeStyle="0" markerStart="0" markerEnd="0" shadowEnabled="0" shadowOffsetX="0" shadowOffsetY="2" shadowBlur="4" shadowOpacity="160" blurEnabled="0" blurRadius="4" transform="matrix(1,0,0,1,245.603,257.45)" pers-center="0,0" pers-size="0,0" pers-start="0,0" pers-end="0,0" locked="0" mesh="" flag=""/>
            <path id="shapePath11" d="M232.286,272.2 L251.486,238.4 C252.686,236.4 255.186,235.6 257.386,236.8 C259.386,238 260.186,240.5 258.986,242.7 L239.786,276.5 C238.586,278.5 235.886,279.3 233.886,278.1 C231.786,276.8 230.986,274.2 232.286,272.2 Z" style="stroke:none;fill-rule:nonzero;fill:#ffffff;fill-opacity:1;"/>
        </g>
        <g id="Shape12">
            <desc shapeID="12" type="0" basicInfo-basicType="0" basicInfo-roundedRectRadius="12" basicInfo-polygonSides="6" basicInfo-starPoints="5" bounding="rect(-12.0023,-17.9138,24.0046,35.8276)" text="" font-familyName="" font-pixelSize="20" font-bold="0" font-underline="0" font-alignment="1" strokeStyle="0" markerStart="0" markerEnd="0" shadowEnabled="0" shadowOffsetX="0" shadowOffsetY="2" shadowBlur="4" shadowOpacity="160" blurEnabled="0" blurRadius="4" transform="matrix(1,0,0,1,255.547,263.65)" pers-center="0,0" pers-size="0,0" pers-start="0,0" pers-end="0,0" locked="0" mesh="" flag=""/>
            <path id="shapePath12" d="M244.086,275.1 L259.486,247.9 C260.686,245.9 263.186,245.1 265.386,246.3 C267.386,247.5 268.186,250 266.986,252.2 L251.586,279.4 C250.386,281.4 247.686,282.2 245.686,281 C243.586,279.9 242.986,277.3 244.086,275.1 Z" style="stroke:none;fill-rule:nonzero;fill:#ffffff;fill-opacity:1;"/>
        </g>
        <g id="Shape13">
            <desc shapeID="13" type="0" basicInfo-basicType="0" basicInfo-roundedRectRadius="12" basicInfo-polygonSides="6" basicInfo-starPoints="5" bounding="rect(-4.9855,-4.99719,9.97099,9.99439)" text="" font-familyName="" font-pixelSize="20" font-bold="0" font-underline="0" font-alignment="1" strokeStyle="0" markerStart="0" markerEnd="0" shadowEnabled="0" shadowOffsetX="0" shadowOffsetY="2" shadowBlur="4" shadowOpacity="160" blurEnabled="0" blurRadius="4" transform="matrix(1,0,0,1,285.152,294.922)" pers-center="0,0" pers-size="0,0" pers-start="0,0" pers-end="0,0" locked="0" mesh="" flag=""/>
            <path id="shapePath13" d="M281.286,299.9 L280.986,299.9 C280.386,299.7 280.086,299.3 280.186,298.7 C280.186,298.5 280.386,298.4 280.486,298.2 L288.386,290.3 C288.886,289.8 289.486,289.8 289.786,290.3 C289.986,290.5 290.086,290.6 290.086,290.8 L290.086,291.1 C290.286,292 289.886,293.1 289.286,293.9 L283.986,299.3 C283.286,299.7 282.386,300 281.286,299.9 Z" style="stroke:none;fill-rule:nonzero;fill:#ffffff;fill-opacity:1;"/>
        </g>
        <g id="Shape14">
            <desc shapeID="14" type="0" basicInfo-basicType="0" basicInfo-roundedRectRadius="12" basicInfo-polygonSides="6" basicInfo-starPoints="5" bounding="rect(-17.85,-20.45,35.7,40.9)" text="" font-familyName="" font-pixelSize="20" font-bold="0" font-underline="0" font-alignment="1" strokeStyle="0" markerStart="0" markerEnd="0" shadowEnabled="0" shadowOffsetX="0" shadowOffsetY="2" shadowBlur="4" shadowOpacity="160" blurEnabled="0" blurRadius="4" transform="matrix(1,0,0,1,272.636,279.75)" pers-center="0,0" pers-size="0,0" pers-start="0,0" pers-end="0,0" locked="0" mesh="" flag=""/>
            <path id="shapePath14" d="M282.886,274.2 L288.786,280.1 C289.886,281.2 290.486,282.6 290.486,284 C290.486,285.4 289.886,286.8 288.886,287.9 L278.486,298.5 C277.386,299.6 275.986,300.2 274.586,300.2 C273.186,300.2 271.586,299.6 270.686,298.6 L264.786,292.7 C263.686,291.6 262.286,291.1 260.886,291.1 C259.486,291.1 258.086,290.5 256.986,289.5 L256.686,289.2 C255.586,288.1 255.586,286.4 256.686,285.3 L257.786,284.2 L254.786,281.2 L258.486,274.2 L262.986,278.6 L269.086,272.4 L262.886,266.3 L266.586,259.3 L274.386,266.9 L275.486,265.8 C276.586,264.7 278.286,264.7 279.386,265.8 L279.686,266.1 C280.786,267.2 281.386,268.6 281.386,270 C281.186,271.8 281.786,273.2 282.886,274.2 Z" style="stroke:none;fill-rule:nonzero;fill:#ffffff;fill-opacity:1;"/>
        </g>
        <g id="Shape15">
            <desc shapeID="15" type="0" basicInfo-basicType="0" basicInfo-roundedRectRadius="12" basicInfo-polygonSides="6" basicInfo-starPoints="5" bounding="rect(-4.35,-4.47501,8.7,8.94998)" text="" font-familyName="" font-pixelSize="20" font-bold="0" font-underline="0" font-alignment="1" strokeStyle="0" markerStart="0" markerEnd="0" shadowEnabled="0" shadowOffsetX="0" shadowOffsetY="2" shadowBlur="4" shadowOpacity="160" blurEnabled="0" blurRadius="4" transform="matrix(1,0,0,1,216.386,282.625)" pers-center="0,0" pers-size="0,0" pers-start="0,0" pers-end="0,0" locked="0" mesh="" flag=""/>
            <path id="shapePath15" d="M213.586,287.1 C213.086,287.1 212.786,286.9 212.486,286.6 C211.886,286 211.886,285 212.486,284.4 L218.086,278.6 C218.686,278 219.686,278 220.286,278.6 C220.886,279.2 220.886,280.2 220.286,280.8 L214.686,286.6 C214.386,286.9 214.086,287.1 213.586,287.1 Z" style="stroke:none;fill-rule:nonzero;fill:#ffffff;fill-opacity:1;"/>
        </g>
        <g id="Shape16">
            <desc shapeID="16" type="0" basicInfo-basicType="0" basicInfo-roundedRectRadius="12" basicInfo-polygonSides="6" basicInfo-starPoints="5" bounding="rect(-4.35001,-4.47501,8.7,8.94998)" text="" font-familyName="" font-pixelSize="20" font-bold="0" font-underline="0" font-alignment="1" strokeStyle="0" markerStart="0" markerEnd="0" shadowEnabled="0" shadowOffsetX="0" shadowOffsetY="2" shadowBlur="4" shadowOpacity="160" blurEnabled="0" blurRadius="4" transform="matrix(1,0,0,1,270.586,227.625)" pers-center="0,0" pers-size="0,0" pers-start="0,0" pers-end="0,0" locked="0" mesh="" flag=""/>
            <path id="shapePath16" d="M267.786,232.1 C267.286,232.1 266.986,231.9 266.686,231.6 C266.086,231 266.086,230 266.686,229.4 L272.286,223.6 C272.886,223 273.886,223 274.486,223.6 C275.086,224.2 275.086,225.2 274.486,225.8 L268.886,231.6 C268.586,232 268.086,232.1 267.786,232.1 Z" style="stroke:none;fill-rule:nonzero;fill:#ffffff;fill-opacity:1;"/>
        </g>
        <g id="Shape17">
            <desc shapeID="17" type="0" basicInfo-basicType="0" basicInfo-roundedRectRadius="12" basicInfo-polygonSides="6" basicInfo-starPoints="5" bounding="rect(-1.59999,-5.54999,3.2,11.1)" text="" font-familyName="" font-pixelSize="20" font-bold="0" font-underline="0" font-alignment="1" strokeStyle="0" markerStart="0" markerEnd="0" shadowEnabled="0" shadowOffsetX="0" shadowOffsetY="2" shadowBlur="4" shadowOpacity="160" blurEnabled="0" blurRadius="4" transform="matrix(1,0,0,1,243.786,293.85)" pers-center="0,0" pers-size="0,0" pers-start="0,0" pers-end="0,0" locked="0" mesh="" flag=""/>
            <path id="shapePath17" d="M243.786,299.4 C242.986,299.4 242.186,298.8 242.186,297.8 L242.186,289.9 C242.186,289 242.786,288.3 243.786,288.3 C244.586,288.3 245.386,288.9 245.386,289.9 L245.386,297.8 C245.386,298.6 244.686,299.4 243.786,299.4 Z" style="stroke:none;fill-rule:nonzero;fill:#ffffff;fill-opacity:1;"/>
        </g>
        <g id="Shape18">
            <desc shapeID="18" type="0" basicInfo-basicType="0" basicInfo-roundedRectRadius="12" basicInfo-polygonSides="6" basicInfo-starPoints="5" bounding="rect(-1.59999,-5.55002,3.2,11.1)" text="" font-familyName="" font-pixelSize="20" font-bold="0" font-underline="0" font-alignment="1" strokeStyle="0" markerStart="0" markerEnd="0" shadowEnabled="0" shadowOffsetX="0" shadowOffsetY="2" shadowBlur="4" shadowOpacity="160" blurEnabled="0" blurRadius="4" transform="matrix(1,0,0,1,243.186,216.75)" pers-center="0,0" pers-size="0,0" pers-start="0,0" pers-end="0,0" locked="0" mesh="" flag=""/>
            <path id="shapePath18" d="M243.186,222.3 C242.386,222.3 241.586,221.7 241.586,220.7 L241.586,212.8 C241.586,211.9 242.186,211.2 243.186,211.2 C243.986,211.2 244.786,211.8 244.786,212.8 L244.786,220.7 C244.686,221.5 244.086,222.3 243.186,222.3 Z" style="stroke:none;fill-rule:nonzero;fill:#ffffff;fill-opacity:1;"/>
        </g>
        <g id="Shape19">
            <desc shapeID="19" type="0" basicInfo-basicType="0" basicInfo-roundedRectRadius="12" basicInfo-polygonSides="6" basicInfo-starPoints="5" bounding="rect(-5.55002,-1.60001,11.1,3.19998)" text="" font-familyName="" font-pixelSize="20" font-bold="0" font-underline="0" font-alignment="1" strokeStyle="0" markerStart="0" markerEnd="0" shadowEnabled="0" shadowOffsetX="0" shadowOffsetY="2" shadowBlur="4" shadowOpacity="160" blurEnabled="0" blurRadius="4" transform="matrix(1,0,0,1,282.036,255)" pers-center="0,0" pers-size="0,0" pers-start="0,0" pers-end="0,0" locked="0" mesh="" flag=""/>
            <path id="shapePath19" d="M278.086,256.6 C277.286,256.6 276.486,256 276.486,255 C276.486,254 277.086,253.4 278.086,253.4 L285.986,253.4 C286.786,253.4 287.586,254 287.586,255 C287.586,256 286.986,256.6 285.986,256.6 L278.086,256.6 Z" style="stroke:none;fill-rule:nonzero;fill:#ffffff;fill-opacity:1;"/>
        </g>
        <g id="Shape20">
            <desc shapeID="20" type="0" basicInfo-basicType="0" basicInfo-roundedRectRadius="12" basicInfo-polygonSides="6" basicInfo-starPoints="5" bounding="rect(-5.55,-1.59998,11.1,3.19998)" text="" font-familyName="" font-pixelSize="20" font-bold="0" font-underline="0" font-alignment="1" strokeStyle="0" markerStart="0" markerEnd="0" shadowEnabled="0" shadowOffsetX="0" shadowOffsetY="2" shadowBlur="4" shadowOpacity="160" blurEnabled="0" blurRadius="4" transform="matrix(1,0,0,1,204.936,255.6)" pers-center="0,0" pers-size="0,0" pers-start="0,0" pers-end="0,0" locked="0" mesh="" flag=""/>
            <path id="shapePath20" d="M200.986,257.2 C200.186,257.2 199.386,256.6 199.386,255.6 C199.386,254.6 199.986,254 200.986,254 L208.886,254 C209.686,254 210.486,254.6 210.486,255.6 C210.486,256.6 209.886,257.2 208.886,257.2 L200.986,257.2 Z" style="stroke:none;fill-rule:nonzero;fill:#ffffff;fill-opacity:1;"/>
        </g>
        <g id="Shape21">
            <desc shapeID="21" type="0" basicInfo-basicType="0" basicInfo-roundedRectRadius="12" basicInfo-polygonSides="6" basicInfo-starPoints="5" bounding="rect(-4.45,-4.37499,8.9,8.74999)" text="" font-familyName="" font-pixelSize="20" font-bold="0" font-underline="0" font-alignment="1" strokeStyle="0" markerStart="0" markerEnd="0" shadowEnabled="0" shadowOffsetX="0" shadowOffsetY="2" shadowBlur="4" shadowOpacity="160" blurEnabled="0" blurRadius="4" transform="matrix(1,0,0,1,215.986,228.225)" pers-center="0,0" pers-size="0,0" pers-start="0,0" pers-end="0,0" locked="0" mesh="" flag=""/>
            <path id="shapePath21" d="M218.886,232.6 C218.386,232.6 218.086,232.4 217.786,232.1 L211.986,226.5 C211.386,225.9 211.386,224.9 211.986,224.3 C212.586,223.7 213.586,223.7 214.186,224.3 L219.986,229.9 C220.586,230.5 220.586,231.5 219.986,232.1 C219.686,232.4 219.186,232.6 218.886,232.6 Z" style="stroke:none;fill-rule:nonzero;fill:#ffffff;fill-opacity:1;"/>
        </g>
        <g id="Shape22">
            <desc shapeID="22" type="0" basicInfo-basicType="0" basicInfo-roundedRectRadius="12" basicInfo-polygonSides="6" basicInfo-starPoints="5" bounding="rect(-46.85,-42,93.7,84)" text="" font-familyName="" font-pixelSize="20" font-bold="0" font-underline="0" font-alignment="1" strokeStyle="0" markerStart="0" markerEnd="0" shadowEnabled="0" shadowOffsetX="0" shadowOffsetY="2" shadowBlur="4" shadowOpacity="160" blurEnabled="0" blurRadius="4" transform="matrix(1,0,0,1,171.536,167.5)" pers-center="0,0" pers-size="0,0" pers-start="0,0" pers-end="0,0" locked="0" mesh="" flag=""/>
            <path id="shapePath22" d="M218.286,182.3 L218.286,130.8 C218.286,127.8 215.986,125.5 212.986,125.5 L129.986,125.5 C126.986,125.5 124.686,127.8 124.686,130.8 L124.686,182.3 L124.686,189.9 C124.686,191.5 125.286,192.9 126.386,193.8 C127.486,194.9 128.886,195.5 130.386,195.5 L158.386,195.5 L157.886,202.5 C157.686,205.3 155.386,207.3 152.786,207.3 L151.886,207.3 C151.286,207.3 150.786,207.8 150.786,208.4 C150.786,209 151.286,209.5 151.886,209.5 L171.686,209.5 L173.886,209.5 L191.286,209.5 C191.886,209.5 192.386,209 192.386,208.4 C192.386,207.8 191.886,207.3 191.286,207.3 L190.186,207.3 C187.386,207.3 185.186,205.1 185.086,202.5 L184.586,195.5 L212.586,195.5 C214.586,195.5 216.286,194.6 217.286,193 C217.886,192.1 218.386,191.1 218.386,189.9 L218.386,182.3 L218.286,182.3 M214.986,189.9 C214.986,191.3 213.886,192.4 212.486,192.4 L130.386,192.4 C128.986,192.4 127.886,191.3 127.886,189.9 L127.886,184.9 L214.886,184.9 L214.886,189.9 L214.986,189.9 M130.786,133 C130.786,132.2 131.386,131.8 131.986,131.8 L210.286,131.8 C211.086,131.8 211.486,132.4 211.486,133 L211.486,176.3 C211.486,177.1 210.886,177.5 210.286,177.5 L131.986,177.5 C131.186,177.5 130.786,176.9 130.786,176.3 L130.786,133 Z" style="stroke:none;fill-rule:nonzero;fill:#ffffff;fill-opacity:1;"/>
        </g>
        <g id="Shape23">
            <desc shapeID="23" type="0" basicInfo-basicType="0" basicInfo-roundedRectRadius="12" basicInfo-polygonSides="6" basicInfo-starPoints="5" bounding="rect(-2.5,-2.5,5,5)" text="" font-familyName="" font-pixelSize="20" font-bold="0" font-underline="0" font-alignment="1" strokeStyle="0" markerStart="0" markerEnd="0" shadowEnabled="0" shadowOffsetX="0" shadowOffsetY="2" shadowBlur="4" shadowOpacity="160" blurEnabled="0" blurRadius="4" transform="matrix(1,0,0,1,171.586,188.7)" pers-center="0,0" pers-size="0,0" pers-start="0,0" pers-end="0,0" locked="0" mesh="" flag=""/>
            <path id="shapePath23" d="M174.086,188.7 C174.086,190.081 172.966,191.2 171.586,191.2 C170.205,191.2 169.086,190.081 169.086,188.7 C169.086,187.319 170.205,186.2 171.586,186.2 C172.966,186.2 174.086,187.319 174.086,188.7 Z" style="stroke:none;fill-rule:evenodd;fill:#ffffff;fill-opacity:1;"/>
        </g>
        <g id="Shape24">
            <desc shapeID="24" type="0" basicInfo-basicType="0" basicInfo-roundedRectRadius="12" basicInfo-polygonSides="6" basicInfo-starPoints="5" bounding="rect(-40.2,-40.2,80.4,80.4)" text="" font-familyName="" font-pixelSize="20" font-bold="0" font-underline="0" font-alignment="1" strokeStyle="0" markerStart="0" markerEnd="0" shadowEnabled="0" shadowOffsetX="0" shadowOffsetY="2" shadowBlur="4" shadowOpacity="160" blurEnabled="0" blurRadius="4" transform="matrix(1,0,0,1,214.386,44.7)" pers-center="0,0" pers-size="0,0" pers-start="0,0" pers-end="0,0" locked="0" mesh="" flag=""/>
            <path id="shapePath24" d="M174.186,44.7 C174.186,22.4 192.286,4.5 214.386,4.5 C236.686,4.5 254.586,22.6 254.586,44.7 C254.586,67 236.486,84.9 214.386,84.9 C192.286,84.9 174.186,66.8 174.186,44.7 M197.586,55.7 C196.186,55.9 195.386,56.8 195.286,57.9 C194.986,59.3 195.886,60.5 197.586,60.9 L222.986,65.4 C224.686,65.7 226.386,64.6 226.686,62.9 C226.986,61.2 225.886,59.5 224.086,59.2 L208.086,56.4 L209.786,46.4 L221.486,48.4 C223.086,48.7 224.786,47.6 225.086,45.9 C225.386,44.3 224.186,42.6 222.586,42.3 L210.886,40.3 L211.786,35.2 C212.286,32.7 213.186,31 214.786,29.9 C215.986,29.1 217.386,28.7 219.286,29 C221.886,29.5 223.486,30.9 224.886,33 C225.186,33.6 225.986,34.4 227.186,34.6 C229.186,34.9 230.886,33.7 231.386,31.8 C231.586,30.7 231.186,29.8 230.786,29 C228.786,25.9 225.686,23.2 220.386,22.3 C216.186,21.5 212.786,22.3 209.986,24.2 C207.186,26.1 205.286,29.5 204.586,33.7 L203.686,39 L201.786,38.7 C200.086,38.4 198.486,39.6 198.186,41.2 C197.886,42.9 198.986,44.5 200.686,44.8 L202.586,45.1 L200.686,55.4 L197.586,55.7 Z" style="stroke:none;fill-rule:nonzero;fill:#ffffff;fill-opacity:1;"/>
        </g>
        <g id="Shape25">
            <desc shapeID="25" type="0" basicInfo-basicType="0" basicInfo-roundedRectRadius="12" basicInfo-polygonSides="6" basicInfo-starPoints="5" bounding="rect(-48.3445,-38.5,96.6891,77)" text="" font-familyName="" font-pixelSize="20" font-bold="0" font-underline="0" font-alignment="1" strokeStyle="0" markerStart="0" markerEnd="0" shadowEnabled="0" shadowOffsetX="0" shadowOffsetY="2" shadowBlur="4" shadowOpacity="160" blurEnabled="0" blurRadius="4" transform="matrix(1,0,0,1,49.1411,176.5)" pers-center="0,0" pers-size="0,0" pers-start="0,0" pers-end="0,0" locked="0" mesh="" flag=""/>
            <path id="shapePath25" d="M19.3856,175.5 C19.1856,178.1 18.7856,181.4 18.5856,182.8 C18.3856,183.6 18.2856,185.4 18.0856,186.5 C17.8856,188.1 17.8856,188.1 17.7856,188.4 C17.5856,188.7 17.4856,189 13.2856,192.1 C13.2856,192.1 8.18562,196 5.48561,198.6 C4.98561,199.1 4.98561,199.5 4.98561,199.7 C5.48561,201.6 10.8856,204.1 19.7856,206.4 C20.5856,206.6 21.4856,206.9 22.3856,207.2 C27.4856,208.6 34.4856,210.6 40.2856,210.6 C42.2856,210.6 43.9856,210.3 45.3856,209.8 C56.5856,205.9 63.8856,202 64.3856,201.7 C64.8856,201.4 65.5856,201.2 69.9856,200.5 C81.9856,198.3 92.5856,194.1 92.9856,191.5 L89.9856,189.5 L89.7856,188.9 C89.7856,188.7 89.4856,187.5 89.4856,184.9 L89.4856,184.3 C89.2856,178.4 88.9856,171.5 85.0856,162.7 C84.1856,160.7 80.8856,153.8 73.8856,148.8 L73.5856,148.5 C73.2856,148.3 72.7856,147.9 72.3856,147.4 C69.7856,145.7 67.2856,144.3 64.5856,143.5 L64.3856,143.5 C64.0856,143.3 63.7856,143.3 63.4856,143.2 C60.9856,142.4 58.4856,142.1 55.9856,142.1 C55.9856,142.1 51.1856,142.3 45.6856,143.7 C45.4856,143.7 40.5856,144.8 36.7856,147 C30.5856,150.6 26.3856,155.3 23.0856,162.1 C22.2856,163.8 20.7856,167.4 19.6856,172.4 C19.5856,174.5 19.3856,175.3 19.3856,175.5 M40.3856,215 C34.1856,215 26.8856,213 21.3856,211.4 C20.4856,211.1 19.4856,210.9 18.7856,210.6 C4.48561,206.9 1.78562,203.7 0.985615,200.9 C0.485615,199 0.985615,197.2 2.38562,195.8 C5.38562,192.8 10.4856,188.9 10.6856,188.8 C12.0856,187.7 13.1856,186.8 13.9856,186.3 C13.9856,186.1 13.9856,186.1 13.9856,186 C14.1856,184.8 14.2856,182.9 14.4856,182 C14.6856,180.6 15.0856,177.5 15.2856,175 C15.2856,174.8 15.2856,174.7 15.8856,171.6 C16.9856,166 18.6856,162.1 19.5856,160.2 C23.2856,152.6 27.9856,147.4 34.9856,143.4 C39.3856,140.9 44.7856,139.7 45.0856,139.7 C50.8856,138.1 55.9856,138 56.1856,138 C59.1856,138 61.9856,138.5 64.7856,139.2 C65.2856,139.4 65.5856,139.5 65.9856,139.5 L66.1856,139.5 C69.1856,140.4 71.9856,142 74.8856,143.9 L75.4856,144.2 L75.6856,144.5 C75.6856,144.5 75.9856,144.8 76.1856,145 L76.6856,145.3 C84.4856,150.7 88.1856,158.5 89.2856,160.9 C93.4856,170.6 93.6856,177.7 93.9856,184.1 L93.9856,184.9 C93.9856,186 93.9856,186.6 94.1856,187.2 L95.8856,188.4 C96.7856,189.2 97.4856,190.3 97.4856,191.5 C97.4856,199.3 77.2856,203.5 70.9856,204.7 C68.7856,205.2 67.0856,205.5 66.5856,205.6 C65.3856,206.2 57.9856,210.1 46.9856,214 C44.9856,214.7 42.7856,215 40.3856,215 Z" style="stroke:none;fill-rule:nonzero;fill:#ffffff;fill-opacity:1;"/>
        </g>
        <g id="Shape26">
            <desc shapeID="26" type="0" basicInfo-basicType="0" basicInfo-roundedRectRadius="12" basicInfo-polygonSides="6" basicInfo-starPoints="5" bounding="rect(-8.57761,-20.2505,17.1552,40.5009)" text="" font-familyName="" font-pixelSize="20" font-bold="0" font-underline="0" font-alignment="1" strokeStyle="0" markerStart="0" markerEnd="0" shadowEnabled="0" shadowOffsetX="0" shadowOffsetY="2" shadowBlur="4" shadowOpacity="160" blurEnabled="0" blurRadius="4" transform="matrix(1,0,0,1,28.1632,172.931)" pers-center="0,0" pers-size="0,0" pers-start="0,0" pers-end="0,0" locked="0" mesh="" flag=""/>
            <path id="shapePath26" d="M26.0856,192 C26.3856,185.5 26.8856,164.8 36.6856,153.2 C36.8856,152.9 36.4856,152.6 36.3856,152.7 C31.3856,156.7 21.7856,168.9 19.5856,190.4 C19.5856,191 19.8856,191.5 20.3856,191.8 L24.2856,193 C24.9856,193.5 26.0856,192.9 26.0856,192 Z" style="stroke:none;fill-rule:nonzero;fill:#ffffff;fill-opacity:1;"/>
        </g>
        <g id="Shape27">
            <desc shapeID="27" type="0" basicInfo-basicType="0" basicInfo-roundedRectRadius="12" basicInfo-polygonSides="6" basicInfo-starPoints="5" bounding="rect(-25.0458,-38.3,50.0916,76.6)" text="" font-familyName="" font-pixelSize="20" font-bold="0" font-underline="0" font-alignment="1" strokeStyle="0" markerStart="0" markerEnd="0" shadowEnabled="0" shadowOffsetX="0" shadowOffsetY="2" shadowBlur="4" shadowOpacity="160" blurEnabled="0" blurRadius="4" transform="matrix(1,0,0,1,127.331,57.9)" pers-center="0,0" pers-size="0,0" pers-start="0,0" pers-end="0,0" locked="0" mesh="" flag=""/>
            <path id="shapePath27" d="M136.186,60.2 L134.186,54 C150.886,41.1 145.986,33.6 144.586,29.4 C143.186,25.2 141.486,19.6 141.486,19.6 L133.186,29.4 C128.686,34.7 127.386,39.4 127.586,43.6 C125.286,40.2 121.686,37.1 114.786,35.5 L102.286,32.5 C102.286,32.5 104.186,38.1 105.386,42.3 C106.786,46.5 107.286,55.4 128.286,56 L130.286,62.2 C130.286,62.2 115.486,59.7 110.986,56.8 C110.986,56.8 112.686,62.1 113.786,65.7 C114.886,69.1 119.386,81.6 136.486,81.1 L141.586,96.2 L143.286,95.6 L144.886,95.1 L146.586,94.5 L141.786,79.2 C155.986,69.4 152.186,56.8 151.086,53.4 C150.186,49.8 148.486,44.5 148.486,44.5 C146.786,49.3 136.186,60.2 136.186,60.2 Z" style="stroke:none;fill-rule:nonzero;fill:#ffffff;fill-opacity:1;"/>
        </g>
        <g id="Shape28">
            <desc shapeID="28" type="0" basicInfo-basicType="0" basicInfo-roundedRectRadius="12" basicInfo-polygonSides="6" basicInfo-starPoints="5" bounding="rect(-8.35,-14.1403,16.7,28.2805)" text="" font-familyName="" font-pixelSize="20" font-bold="0" font-underline="0" font-alignment="1" strokeStyle="0" markerStart="0" markerEnd="0" shadowEnabled="0" shadowOffsetX="0" shadowOffsetY="2" shadowBlur="4" shadowOpacity="160" blurEnabled="0" blurRadius="4" transform="matrix(1,0,0,1,120.336,21.1598)" pers-center="0,0" pers-size="0,0" pers-start="0,0" pers-end="0,0" locked="0" mesh="" flag=""/>
            <path id="shapePath28" d="M113.586,24.3 C114.186,26.2 115.186,27.9 116.186,29.3 C117.586,31.3 119.286,33 121.186,34.1 C122.086,34.7 123.086,35.2 124.186,35.3 C124.486,35.3 124.986,35.3 125.286,35.3 C125.786,35.1 126.086,34.8 126.186,34.4 C126.986,33.5 127.386,32.2 127.886,30.8 C128.486,29.1 128.686,27.1 128.686,25 C128.686,22.5 128.086,20 127.086,17.7 C126.486,16 125.686,14.4 124.586,13 C123.186,11 121.486,9.3 119.586,8.2 C118.486,7.7 117.586,7.3 116.586,7.10001 C116.086,6.90001 115.686,7.10001 115.186,7.40001 C114.686,7.7 114.386,8.2 114.086,8.60001 C113.286,9.7 112.886,11.1 112.486,12.5 C112.186,13.9 111.986,15.5 111.986,17.2 C111.986,18.6 112.186,20 112.486,21.4 C112.686,22.2 112.986,23.1 113.086,23.9 C113.486,24.1 113.486,24.3 113.586,24.3 Z" style="stroke:none;fill-rule:nonzero;fill:#ffffff;fill-opacity:1;"/>
        </g>
        <g id="Shape29">
            <desc shapeID="29" type="0" basicInfo-basicType="0" basicInfo-roundedRectRadius="12" basicInfo-polygonSides="6" basicInfo-starPoints="5" bounding="rect(-30.3,-30.4556,60.6,60.9111)" text="" font-familyName="" font-pixelSize="20" font-bold="0" font-underline="0" font-alignment="1" strokeStyle="0" markerStart="0" markerEnd="0" shadowEnabled="0" shadowOffsetX="0" shadowOffsetY="2" shadowBlur="4" shadowOpacity="160" blurEnabled="0" blurRadius="4" transform="matrix(1,0,0,1,60.4856,89.4445)" pers-center="0,0" pers-size="0,0" pers-start="0,0" pers-end="0,0" locked="0" mesh="" flag=""/>
            <path id="shapePath29" d="M51.1856,82.8 C54.7856,77.5 62.0856,76.1 67.3856,79.7 C69.8856,81.4 71.5856,84.1 72.1856,87.2 C72.7856,90.3 72.1856,93.4 70.4856,95.9 L70.2856,96.1 C66.3856,101.5 59.3856,102.8 54.0856,99.1 C48.8856,95.4 47.5856,88.1 51.1856,82.8 M48.1856,116.4 C48.9856,115.5 49.8856,114.5 50.7856,113.6 C51.2856,113 51.8856,112.5 52.3856,111.9 C52.9856,111.1 53.7856,111 54.6856,111.3 C55.5856,111.6 56.3856,111.8 57.4856,111.9 C58.3856,112.1 58.8856,112.5 59.1856,113.5 C59.7856,115.5 60.3856,117.4 61.0856,119.3 C61.2856,119.8 61.3856,119.8 61.3856,119.9 C61.3856,119.9 61.5856,119.9 61.8856,119.9 C64.4856,119.4 67.2856,119 70.8856,118.3 C71.0856,118.3 71.0856,118.3 71.0856,118.3 C71.0856,118.3 71.0856,118.1 71.0856,117.8 L71.0856,116.4 C71.0856,114.8 70.8856,113.1 70.7856,111.6 C70.7856,110.8 70.9856,109.7 71.9856,109.1 C72.4856,108.9 72.7856,108.6 73.1856,108.3 C73.4856,108.1 73.7856,107.8 74.0856,107.7 C74.5856,107.4 75.2856,107.4 75.9856,107.5 C77.9856,108.4 79.9856,109.4 82.0856,110.5 C82.5856,110.7 82.6856,110.7 82.8856,110.7 L88.1856,102.9 C88.1856,102.7 87.9856,102.6 87.6856,102.3 L86.8856,101.7 C85.4856,100.5 84.2856,99.2 82.8856,98 C82.3856,97.7 81.9856,97.1 82.2856,96 C82.4856,95.5 82.4856,95.1 82.5856,94.4 C82.7856,93.9 82.7856,93.5 82.8856,93 C82.8856,92.8 83.0856,92.5 83.1856,92.4 C83.3856,92.2 83.6856,91.8 84.0856,91.6 C85.4856,91.1 87.0856,90.7 88.4856,90.2 L90.1856,89.6 C90.6856,89.4 90.7856,89.3 90.7856,89.3 C90.7856,89.3 90.7856,89.1 90.7856,88.8 C90.5856,85.8 89.9856,82.9 89.0856,79.6 C89.0856,79.4 89.0856,79.4 89.0856,79.4 C89.0856,79.4 88.8856,79.4 88.5856,79.4 L86.3856,79.1 C84.9856,79.3 83.7856,79.3 82.3856,79.4 C81.4856,79.4 80.7856,79.1 80.3856,78.3 C80.0856,77.8 79.8856,77.5 79.5856,77.1 C79.2856,76.6 78.9856,76.2 78.7856,75.7 C78.4856,75.2 78.2856,74.5 78.5856,73.8 C79.4856,71.8 80.4856,69.8 81.3856,67.9 C81.6856,67.4 81.5856,67.3 81.5856,67.3 C81.5856,67.3 81.5856,67.1 81.0856,66.8 C78.7856,65.2 76.5856,63.7 74.1856,62.1 C73.6856,61.8 73.5856,61.8 73.5856,61.8 C73.5856,61.8 73.3856,61.8 73.0856,62.3 C71.6856,63.9 70.2856,65.4 68.8856,67 C68.2856,67.8 67.4856,67.9 66.5856,67.6 C65.4856,67.3 64.3856,67.1 63.5856,67 C62.7856,66.9 62.1856,66.4 61.8856,65.6 C61.2856,63.6 60.6856,61.7 59.9856,59.7 C59.6856,58.9 59.6856,58.9 59.1856,59.1 C55.8856,59.6 52.7856,60.2 49.9856,60.8 C49.9856,60.8 49.7856,61 49.7856,61.3 L49.7856,62.7 C49.9856,64.4 49.9856,66 50.0856,67.7 C50.0856,68.6 49.7856,69.4 48.9856,69.9 C48.1856,70.4 47.5856,70.8 46.9856,71.1 C46.1856,71.7 45.2856,71.7 44.4856,71.4 C42.7856,70.6 41.0856,69.8 39.4856,68.9 L38.3856,68.4 C38.1856,68.2 38.0856,68.4 38.0856,68.4 C38.0856,68.4 38.0856,68.4 37.8856,68.6 L35.2856,72.3 L32.7856,76 C32.5856,76.2 32.5856,76.2 32.5856,76.2 C32.5856,76.2 32.5856,76.4 32.7856,76.5 C33.8856,77.6 34.9856,78.7 36.0856,79.6 L36.8856,80.4 C37.0856,80.6 37.1856,80.6 37.1856,80.7 C37.4856,80.9 37.6856,81.2 37.9856,81.3 C38.4856,81.8 38.5856,82.4 38.4856,83 C38.2856,84.2 37.9856,85.3 37.8856,86.3 C37.6856,86.9 37.0856,87.5 36.4856,87.7 C35.0856,88.2 33.4856,88.6 32.0856,89.1 L30.4856,89.6 C30.1856,90.1 30.1856,90.1 30.1856,90.1 C30.1856,90.1 30.1856,90.3 30.1856,90.6 C30.3856,93.6 30.9856,96.5 31.8856,99.8 L31.8856,100 C31.8856,100 32.0856,100 32.3856,100 L32.6856,100 C34.6856,99.8 36.6856,99.7 38.7856,99.7 C39.8856,99.7 40.6856,100 41.0856,100.9 C41.3856,101.5 41.8856,102.3 42.2856,102.9 C42.5856,103.2 43.0856,104.1 42.5856,105.2 C42.0856,106 41.7856,106.8 41.4856,107.5 C40.9856,108.6 40.3856,109.7 39.8856,110.8 C39.3856,111.6 39.3856,111.7 39.3856,112 L46.9856,117.1 C47.5856,117.1 47.8856,116.9 48.1856,116.4 Z" style="stroke:none;fill-rule:nonzero;fill:#ffffff;fill-opacity:1;"/>
        </g>
        <g id="Shape30">
            <desc shapeID="30" type="0" basicInfo-basicType="0" basicInfo-roundedRectRadius="12" basicInfo-polygonSides="6" basicInfo-starPoints="5" bounding="rect(-13.65,-13.8,27.3,27.6)" text="" font-familyName="" font-pixelSize="20" font-bold="0" font-underline="0" font-alignment="1" strokeStyle="0" markerStart="0" markerEnd="0" shadowEnabled="0" shadowOffsetX="0" shadowOffsetY="2" shadowBlur="4" shadowOpacity="160" blurEnabled="0" blurRadius="4" transform="matrix(1,0,0,1,102.636,106)" pers-center="0,0" pers-size="0,0" pers-start="0,0" pers-end="0,0" locked="0" mesh="" flag=""/>
            <path id="shapePath30" d="M98.0856,103.1 C99.7856,100.8 103.086,100.1 105.386,101.7 C106.486,102.5 107.286,103.7 107.586,105.1 C107.886,106.5 107.586,107.9 106.786,109 L106.786,109.2 C105.086,111.7 101.986,112.2 99.4856,110.4 C96.9856,108.8 96.2856,105.5 98.0856,103.1 M96.6856,118.3 C96.9856,117.8 97.4856,117.4 97.8856,117.1 C98.1856,116.8 98.3856,116.6 98.6856,116.3 C98.9856,116 99.2856,115.8 99.7856,116 C100.286,116.2 100.586,116.2 100.986,116.3 C101.486,116.3 101.586,116.6 101.786,116.9 C102.086,117.8 102.386,118.6 102.686,119.5 C102.686,119.7 102.886,119.8 102.886,119.8 C102.886,119.8 102.886,119.8 103.086,119.8 C104.286,119.6 105.586,119.3 107.086,119 L107.286,119 L107.286,118.8 L107.286,118.2 C107.286,117.4 107.286,116.8 107.086,116 C107.086,115.7 107.286,115.2 107.686,114.9 C107.886,114.7 107.986,114.7 108.286,114.6 C108.486,114.4 108.586,114.4 108.786,114.3 C109.086,114.1 109.386,114.1 109.586,114.3 C110.486,114.8 111.486,115.2 112.186,115.5 C112.386,115.7 112.486,115.7 112.486,115.7 L114.786,112.1 C114.786,112.1 114.786,111.9 114.586,111.8 L114.286,111.3 C113.686,110.7 113.086,110.2 112.386,109.6 C112.186,109.4 111.886,109.1 112.086,108.7 C112.086,108.5 112.286,108.2 112.286,108.1 C112.286,108 112.486,107.6 112.486,107.5 C112.486,107.4 112.486,107.3 112.686,107.2 C112.686,107 112.886,106.9 113.186,106.9 C113.786,106.7 114.386,106.4 115.186,106.3 L115.986,106 C116.186,106 116.286,105.8 116.286,105.8 C116.286,105.8 116.286,105.8 116.286,105.5 C116.286,104.3 115.986,102.9 115.486,101.3 C115.486,101.3 115.486,101.3 115.486,101.1 C115.486,101.1 115.486,101.1 115.286,101.1 L114.186,101.1 C113.586,101.1 112.986,101.1 112.286,101.3 C111.986,101.3 111.686,101.1 111.386,100.8 C111.186,100.6 111.086,100.5 111.086,100.2 C110.886,100 110.786,99.7 110.786,99.6 C110.586,99.4 110.586,99 110.786,98.8 C111.286,97.9 111.586,96.9 111.986,96.2 C112.186,96 112.186,95.9 112.186,95.9 C112.186,95.9 112.186,95.9 111.986,95.7 C110.886,94.9 109.986,94.3 108.886,93.5 C108.286,93.5 108.286,93.5 108.286,93.5 C108.286,93.5 108.286,93.5 108.086,93.7 C107.486,94.3 106.886,95.1 106.186,95.7 C105.886,96 105.586,96.2 105.086,96 C104.586,95.8 104.186,95.8 103.686,95.7 C103.386,95.7 103.086,95.4 102.886,95.1 C102.586,94.2 102.286,93.4 101.986,92.5 C101.786,92.2 101.786,92.2 101.686,92.2 C100.286,92.5 98.6856,92.7 97.4856,93 C97.4856,93 97.4856,93 97.4856,93.2 L97.4856,93.8 C97.4856,94.6 97.4856,95.4 97.6856,96 C97.6856,96.5 97.4856,96.8 97.1856,96.9 C96.8856,97.1 96.5856,97.4 96.2856,97.5 C95.9856,97.8 95.4856,97.8 95.1856,97.7 C94.3856,97.4 93.5856,96.9 92.8856,96.6 L92.3856,96.3 L92.1856,96.3 C92.1856,96.3 92.1856,96.3 92.1856,96.5 L91.0856,98.2 L89.9856,99.9 L89.9856,100.1 C89.9856,100.1 89.9856,100.1 90.1856,100.3 C90.6856,100.8 91.0856,101.2 91.7856,101.7 L92.0856,102 L92.2856,102.2 C92.4856,102.4 92.4856,102.4 92.5856,102.5 C92.7856,102.7 92.8856,103 92.7856,103.3 C92.5856,103.9 92.5856,104.4 92.4856,104.7 C92.4856,105 92.1856,105.3 91.8856,105.3 C91.2856,105.5 90.4856,105.8 89.8856,105.9 L89.2856,106.1 C89.0856,106.1 88.9856,106.3 88.9856,106.3 C88.9856,106.3 88.9856,106.3 88.9856,106.6 C89.1856,108 89.2856,109.2 89.7856,110.8 C89.7856,110.8 89.7856,110.8 89.9856,110.8 L90.1856,110.8 C91.0856,110.8 92.0856,110.6 92.7856,110.6 C93.2856,110.6 93.5856,110.8 93.8856,111.2 C94.0856,111.5 94.1856,111.8 94.4856,112.1 C94.6856,112.3 94.7856,112.6 94.6856,113.2 C94.4856,113.5 94.3856,114 94.1856,114.3 C93.8856,114.8 93.6856,115.2 93.3856,115.9 C93.1856,116.2 93.1856,116.2 93.1856,116.4 L96.5856,118.7 C96.4856,118.6 96.4856,118.6 96.6856,118.3 Z" style="stroke:none;fill-rule:nonzero;fill:#ffffff;fill-opacity:1;"/>
        </g>
    </g>
</svg>
