<svg xmlns="http://www.w3.org/2000/svg" width="175" height="175"><path d="M.963 87.32C.963 39.473 39.687.687 87.456.687c47.77 0 86.494 38.786 86.494 86.63 0 47.846-38.724 86.632-86.494 86.632S.963 135.16.963 87.32z" fill-rule="evenodd"/><path d="M62.955 45.2l24.94-30.3 24.15 30.37-11.89.42-.73 30.5-11.63 11.31-12.39-12.21-.18-29.95-12.27-.14zm58.175 17.165l36.87 12.2-18.16 33.19-4.63-10.71c-15.09 6.28-26.67 20.14-30.69 35.94-2.28 8.73-4.08 17.71-3.85 26.78l-25.45.07c0 .524.78-11.32 1.868-16.9 2.28-11.663 4.66-23.53 10.44-34.02 7.48-14.45 20.06-25.83 34.43-33.23l3.906-1.84-4.735-11.48zm-67.266 1.427l-4.03 10.76c11.66 5.91 22.59 13.69 30.63 24.12-5.82 8.36-9.19 18.12-11.92 27.85-4.28-9.22-10.58-17.57-18.99-23.39l-9.84-5.06-3.62 9.36-19.2-33.1 36.97-10.54z" fill-rule="evenodd" fill="#fdfdfd"/></svg>