<?xml version="1.0"?>
<svg version="1.1" xmlns="http://www.w3.org/2000/svg" xmlns:xlink="http://www.w3.org/1999/xlink" width="78" height="100">
    <desc iVinci="yes" version="4.6" gridStep="20" showGrid="no" snapToGrid="no" codePlatform="0"/>
    <g id="Layer1" name="Layer 1" opacity="1">
        <g id="Shape1">
            <desc shapeID="1" type="0" basicInfo-basicType="0" basicInfo-roundedRectRadius="12" basicInfo-polygonSides="6" basicInfo-starPoints="5" bounding="rect(-11.8943,-16.0023,23.7887,32.0046)" text="" font-familyName="" font-pixelSize="20" font-bold="0" font-underline="0" font-alignment="1" strokeStyle="0" markerStart="0" markerEnd="0" shadowEnabled="0" shadowOffsetX="0" shadowOffsetY="2" shadowBlur="4" shadowOpacity="160" blurEnabled="0" blurRadius="4" transform="matrix(3.25193,0,0,3.1246,39,50.0008)" pers-center="0,0" pers-size="0,0" pers-start="0,0" pers-end="0,0" locked="0" mesh="" flag=""/>
            <path id="shapePath1" d="M77.3817,35.4472 C77.8792,33.9412 77.7232,32.6257 77.1378,31.579 C76.5936,30.5516 75.7597,29.6919 74.7314,29.098 C74.6176,29.0262 74.5037,28.9637 74.3932,28.8981 C74.1981,28.1388 74.0095,27.3764 73.7623,26.6296 C74.1721,25.0892 74.507,23.7019 74.4062,22.927 C74.3379,21.349 73.7233,20.1648 72.7997,19.3743 C71.9217,18.5871 70.8308,18.0532 69.6519,17.8338 C69.5348,17.8057 69.4242,17.7995 69.3072,17.7745 C68.8649,17.1402 68.3706,16.5371 67.8828,15.9341 C67.7365,14.3093 67.5056,12.9063 67.1674,12.1689 C65.8796,9.24119 63.1935,8.65689 60.8847,8.94748 C60.7448,8.95685 60.6115,8.98185 60.4749,9.0006 C59.8368,8.55154 59.1839,8.12221 58.5173,7.71326 C57.8018,6.24157 57.0897,5.00423 56.5076,4.42305 C54.2605,2.09522 51.5256,2.42955 49.4574,3.46067 C49.3468,3.51067 49.2395,3.57316 49.1224,3.62628 C48.3476,3.40836 47.5656,3.21454 46.7778,3.0451 C45.5973,1.91087 44.5014,1.01098 43.76,0.651653 C42.547,-0.0182495 41.1007,-0.179806 39.7601,0.204838 C38.5797,0.482925 37.6008,1.24533 36.7944,2.06085 C36.7001,2.15147 36.6155,2.25145 36.5245,2.34206 C35.7212,2.39518 34.9245,2.47017 34.1375,2.57016 C32.6026,1.889 31.2368,1.39531 30.4076,1.3047 C28.7653,1.0391 27.4808,1.53279 26.4857,2.20146 C25.4744,2.85138 24.8273,3.89186 24.3622,4.91986 C24.307,5.02922 24.2679,5.14171 24.2191,5.2542 C23.4875,5.56665 22.7688,5.89786 22.0631,6.25407 C20.3884,6.11346 18.951,6.13533 18.1185,6.27906 C16.7545,6.54637 15.5496,7.30703 14.7528,8.40379 C14.0666,9.37867 13.8227,10.5691 13.7284,11.6628 C13.7154,11.794 13.7187,11.9252 13.7122,12.0565 C13.1431,12.5783 12.6065,13.1313 12.0797,13.6844 C10.4277,14.1093 9.0619,14.6061 8.32046,15.0248 C6.91563,15.856 6.25549,17.0246 5.91403,18.1276 C5.61811,19.268 5.81647,20.4679 6.11565,21.5303 C6.15142,21.6584 6.19695,21.7802 6.23923,21.9052 C5.88802,22.5957 5.53681,23.28 5.23113,23.9924 C3.87832,24.9204 2.77592,25.8078 2.2361,26.4296 C1.25401,27.6795 1.00687,28.9824 1.08492,30.1385 C1.22149,31.3103 1.82635,32.3695 2.4865,33.2694 C2.55479,33.3631 2.62958,33.4506 2.70112,33.5412 C2.61658,34.3036 2.59056,35.0848 2.55804,35.8597 C1.60522,37.1939 0.870285,38.4094 0.580864,39.1811 C0.106083,40.6778 0.336971,41.9839 0.82151,43.04 C1.36783,44.0961 2.31414,44.896 3.25395,45.521 C3.36452,45.5959 3.47834,45.6584 3.59215,45.7272 C3.78727,46.4802 3.97588,47.2332 4.21978,47.9675 C3.81003,49.508 3.54663,50.8734 3.54663,51.6796 C3.6832,53.2231 4.28481,54.4105 5.15958,55.226 C6.08313,56.0227 7.20505,56.4852 8.31396,56.7664 C8.44078,56.7945 8.5611,56.8164 8.68468,56.8351 C9.13019,57.4726 9.62774,58.0725 10.1123,58.6818 C10.2391,59.9191 10.4115,61.0159 10.6163,61.8158 C7.16603,68.0275 -0.921524,83.1256 1.34507,84.1598 C7.47496,84.4223 16.0568,85.9939 16.0568,85.9939 C16.0568,85.9939 21.2339,94.6335 22.1867,95.4177 C24.6906,87.5743 28.7499,80.2702 34.1408,73.908 C34.1733,73.9236 34.2123,73.958 34.2449,73.9705 C35.6757,74.6735 36.9765,74.7172 38.1244,74.4204 L52.15,100.002 L59.0994,89.1373 L76.1232,86.5189 C76.1232,86.5189 69.6128,69.4804 64.2667,62.6438 L64.2667,62.5532 C64.8293,62.0345 65.3626,61.4846 65.8894,60.9315 C67.5251,60.4972 68.9722,60.0722 69.6356,59.591 C70.3185,59.163 70.8616,58.6755 71.2746,58.1631 C71.6486,57.6225 71.8859,57.0507 72.0323,56.4758 C72.3055,55.3517 72.2412,54.1761 71.8469,53.0856 L71.7201,52.72 C72.0713,52.0264 72.4323,51.3296 72.738,50.6078 C74.094,49.6767 75.2745,48.8174 75.72,48.1612 C76.1721,47.5938 76.5207,46.9567 76.7508,46.2771 C76.8996,45.6767 76.937,45.0558 76.8614,44.443 C76.7166,43.2971 76.2374,42.2139 75.4793,41.3184 L75.2647,41.059 C75.3493,40.3029 75.372,39.5311 75.4045,38.7624 C76.3671,37.4345 77.1996,36.2159 77.3817,35.4472 M65.2455,50.1641 C63.2033,50.7828 61.5123,51.4796 61.1773,53.8449 C61.1448,54.4167 61.1838,55.4041 61.1416,56.632 C60.6765,57.1164 60.2148,57.6007 59.7172,58.0475 L59.1059,58.0287 C58.0295,57.96 57.0051,57.9569 56.1531,58.2568 C55.1684,58.5471 54.3682,59.2417 53.9678,60.1535 C53.6979,60.619 53.3987,61.6127 52.9239,62.7719 C52.3267,63.0773 51.717,63.3598 51.0964,63.6187 C50.8947,63.5437 50.6996,63.4624 50.5013,63.3937 C49.5159,62.9719 48.5501,62.6313 47.6461,62.6344 C46.6164,62.5882 45.6177,62.9789 44.9144,63.703 C44.4949,64.0499 43.8641,64.8841 43.0088,65.8121 C42.3454,65.8965 41.6755,65.9621 40.9991,66.0059 C40.8457,65.8678 40.6906,65.7313 40.5341,65.5965 C39.7569,64.881 38.9732,64.2498 38.1179,63.9624 C37.17,63.573 36.0907,63.6108 35.1749,64.0655 C34.6481,64.2654 33.7538,64.8341 32.6059,65.4341 C31.9524,65.2898 31.3028,65.1294 30.658,64.9529 L30.362,64.3998 C29.8873,63.4687 29.3735,62.6219 28.671,62.0689 C27.9196,61.3895 26.8914,61.0686 25.8679,61.194 C25.3085,61.2127 24.2809,61.4502 23.0094,61.6345 C22.4347,61.2864 21.8739,60.9174 21.3282,60.5284 L21.2566,59.941 C21.1396,58.913 20.9412,57.9663 20.4924,57.207 C20.1022,56.3758 19.377,55.8259 18.1803,55.4478 C17.686,55.2541 16.5869,55.1822 15.3414,54.9416 C14.9219,54.4198 14.4991,53.9043 14.1154,53.3575 L14.2682,52.7388 C14.5251,51.7358 14.6747,50.7828 14.5251,49.9235 C14.4601,49.0143 13.9788,48.2519 12.9837,47.5082 C12.5805,47.1614 11.5529,46.7239 10.4537,46.074 C10.2489,45.4616 10.0895,44.8304 9.92691,44.1992 L10.2911,43.6962 C11.4,41.9683 12.3041,40.3779 10.935,38.3594 C10.6846,37.9032 9.87489,37.1658 9.08467,36.2096 C9.11068,35.5535 9.13019,34.8911 9.20173,34.2443 L9.75131,33.8693 C11.4065,32.6132 12.8244,31.4165 12.2586,29.0668 C12.1805,28.5387 11.6797,27.567 11.2732,26.3921 C11.5334,25.7922 11.8293,25.2048 12.1285,24.6236 C12.3268,24.5705 12.5285,24.5142 12.7333,24.4643 C14.7495,23.8331 16.4796,23.1582 16.8015,20.7803 C16.886,20.2523 16.7852,19.2149 16.8243,17.9963 C17.2958,17.5026 17.7706,17.0152 18.2681,16.5528 C18.473,16.5715 18.6811,16.584 18.8925,16.5996 C21.0095,16.6684 22.8761,16.6059 24.0273,14.478 C24.2972,14.0062 24.5736,12.9813 25.0549,11.8315 C25.6501,11.5326 26.2553,11.2522 26.8695,10.991 L27.4678,11.2472 C28.4239,11.6003 29.3832,11.9346 30.31,11.994 C31.2238,12.0096 32.0921,11.7159 33.0416,10.9441 C33.3246,10.6941 33.6985,10.2254 34.1701,9.64114 C34.4042,9.37867 34.6676,9.09746 34.9505,8.80062 C35.6237,8.71313 36.3033,8.65064 36.9862,8.60377 L37.4448,9.02872 C38.2187,9.67551 38.9992,10.3036 39.8479,10.6691 C40.7064,10.9816 41.6235,10.9972 42.7877,10.5816 C43.3173,10.3308 43.828,10.0447 44.3161,9.7255 C44.6413,9.55365 44.9892,9.3693 45.373,9.18182 C46.0266,9.31931 46.664,9.48491 47.3013,9.65989 L47.5908,10.2254 C48.0786,11.0972 48.6021,11.9252 49.2688,12.5501 C49.9582,13.1376 50.8232,13.4407 52.0654,13.4313 C52.4492,13.4157 53.0475,13.2844 53.802,13.1282 L54.9499,12.972 C55.532,13.3282 56.0978,13.7 56.6507,14.0906 L56.7189,14.6874 C56.8685,15.6654 57.0636,16.6153 57.4636,17.4245 C57.9091,18.1994 58.6083,18.7712 59.779,19.1743 C60.1432,19.2868 60.7578,19.3649 61.5188,19.4649 C61.8602,19.5305 62.2472,19.6055 62.6472,19.693 C63.0602,20.2023 63.4765,20.7085 63.8537,21.249 C63.7984,21.4553 63.7529,21.6646 63.7041,21.8677 C63.2391,23.8768 63.0082,25.636 64.9886,27.092 C65.4992,27.4076 66.4227,27.8826 67.5316,28.5512 C67.7332,29.1605 67.8893,29.7886 68.0552,30.4198 C67.9381,30.5916 67.821,30.7603 67.7105,30.9322 C66.5593,32.6695 65.717,34.2474 67.0536,36.2628 C67.4178,36.7189 68.104,37.4626 68.8974,38.4344 C68.8714,39.0749 68.8519,39.7186 68.7836,40.3497 L68.2438,40.7434 C66.5463,41.9933 65.2,43.2025 65.7333,45.5335 C65.9121,46.0896 66.3089,47.0239 66.7089,48.2112 C66.452,48.8112 66.156,49.3955 65.8536,49.9735 C65.6455,50.0485 65.4439,50.1016 65.2455,50.1641 Z" style="stroke:none;fill-rule:nonzero;fill:#000000;fill-opacity:1;"/>
        </g>
    </g>
</svg>
