<svg xmlns="http://www.w3.org/2000/svg" width="44.688" height="44.688" viewBox="0 0 44.688 44.688"><path d="M25.013 39.119c-.336.475-.828.82-1.389.975l-2.79.762a2.477 2.477 0 0 1-2.103-.358 2.49 2.49 0 0 1-1.062-1.834l-.245-2.881a2.468 2.468 0 0 1 .437-1.659l.103-.148H8.012a1.463 1.463 0 0 1-1.454-1.463c0-.804.651-1.466 1.454-1.466h12.046l2.692-3.845H8.012c-.803 0-1.454-.662-1.454-1.465s.651-1.465 1.454-1.465l16.811-.043 6.304-9.039V8.497c0-1.1-.851-1.988-1.948-1.988h-4.826v3.819c0 1.803-1.474 3.229-3.274 3.229h-9.706a3.202 3.202 0 0 1-3.227-3.229V6.509H3.268A1.987 1.987 0 0 0 1.28 8.497V42.65c0 1.1.89 2.037 1.988 2.037h25.909c1.1 0 1.949-.938 1.949-2.037V30.438l-6.113 8.681zM8.012 17.496h16.424c.801 0 1.453.661 1.453 1.464 0 .803-.652 1.465-1.453 1.465H8.012a1.463 1.463 0 0 1-1.454-1.465c0-.803.651-1.464 1.454-1.464z"/><path d="M11.4 11.636h9.697c.734 0 1.331-.596 1.331-1.332V4.727c0-.736-.597-1.332-1.331-1.332h-1.461a3.414 3.414 0 0 0-6.826 0H11.4a1.33 1.33 0 0 0-1.331 1.332v5.576c0 .736.595 1.333 1.331 1.333zm4.824-9.745a1.52 1.52 0 0 1 1.521 1.505H14.7a1.524 1.524 0 0 1 1.524-1.505zM43.394 8.978a.948.948 0 0 0-.392-.609l-2.428-1.692a.937.937 0 0 0-1.311.233L22.064 31.573l3.973 2.771L43.238 9.682a.95.95 0 0 0 .156-.704zM19.355 35.6l.249 2.896a.556.556 0 0 0 .236.412.573.573 0 0 0 .321.104.528.528 0 0 0 .147-.021l2.805-.768a.57.57 0 0 0 .313-.22l1.053-1.51-3.976-2.772-1.053 1.51a.548.548 0 0 0-.095.369z"/></svg>