<svg xmlns="http://www.w3.org/2000/svg" width="31.764" height="31.764" viewBox="0 0 31.764 31.764"><path d="M28.83 19.8c.902 0 1.635-.73 1.635-1.632 0-.904-.73-1.634-1.634-1.634-.9 0-1.63.73-1.63 1.634 0 .902.73 1.633 1.64 1.633z"/><circle cx="19.977" cy="18.167" r="1.633"/><circle cx="11.431" cy="18.012" r="1.633"/><circle cx="2.927" cy="18.012" r="1.633"/><circle cx="28.611" cy="23.274" r="2.351"/><path d="M31.632 26.623l-1.894-.646-.868 1.04-.893-1.04-2.08.646v3.885h5.867"/><circle cx="19.977" cy="23.274" r="2.351"/><path d="M20.884 25.977l-.866 1.04-.895-1.04-2.077.646v3.885h5.86l-.13-3.885"/><circle cx="24.113" cy="19.995" r="1.718"/><path d="M25.832 21.972h-1.057l-.63.762-.655-.762h-1.05c.173.4.27.84.27 1.303 0 .754-.266 1.448-.697 2.013h4.244l-.002-.105c-.306-.58-.52-1.206-.52-1.906 0-.462.124-.89.265-1.304h-.168z"/><circle cx="11.565" cy="23.341" r="2.351"/><path d="M12.473 26.043l-.87 1.04-.894-1.04-2.08.644v3.885h5.86l-.13-3.885"/><circle cx="15.702" cy="20.06" r="1.72"/><path d="M17.846 25.248c-.306-.578-.52-1.207-.52-1.906 0-.46.124-.89.264-1.305h-1.224l-.634.762-.654-.77h-1.05c.175.4.275.84.275 1.3 0 .75-.267 1.44-.703 2.01h4.248l-.002-.11zM2.93 25.69c1.297 0 2.35-1.054 2.35-2.35s-1.053-2.352-2.35-2.352c-1.3 0-2.353 1.054-2.353 2.35S1.63 25.69 2.93 25.69zm.908.353l-.867 1.04-.89-1.04-2.08.644v3.885h5.87l-.13-3.885"/><circle cx="7.068" cy="20.06" r="1.72"/><path d="M9.214 25.354l-.002-.106c-.306-.578-.52-1.207-.52-1.906 0-.46.124-.89.263-1.305H7.73l-.634.762-.655-.77H5.4c.173.4.27.84.27 1.3 0 .75-.264 1.44-.7 2.01h4.248zM5.87 7.794c1.826 0 3.304-1.48 3.304-3.3 0-1.825-1.478-3.303-3.303-3.303-1.82 0-3.29 1.48-3.29 3.31s1.48 3.3 3.3 3.3z"/><path d="M2.932 15.626H8.9l.29-5.624 4.632-.61c.242.203.547.33.882.33.742 0 1.344-.6 1.41-1.37l1.806.882V2.39l-4.817 2.373H11.43v2.082h1.6l.656.32c-.167.182-.287.408-.35.66l-4.143.465h-2.12L5.815 9.75 4.6 8.29l-2.662.645-.184 5.784h1.132l.046.9zm16.373-7.638l.457.456c.54-.61.88-1.406.88-2.286 0-.9-.352-1.712-.915-2.33l-.457.457c.447.5.73 1.152.73 1.873-.003.702-.27 1.338-.695 1.83z"/><path d="M20.285 8.967l.455.457c.79-.862 1.277-2.006 1.277-3.265 0-1.28-.502-2.44-1.314-3.31l-.456.45c.696.75 1.126 1.75 1.126 2.85 0 1.08-.415 2.06-1.088 2.8z"/><path d="M21.15 9.834l.455.456c1.013-1.084 1.638-2.535 1.638-4.13 0-1.618-.64-3.085-1.675-4.173l-.455.456c.92.97 1.484 2.278 1.484 3.716.003 1.42-.55 2.7-1.447 3.67z"/></svg>