<?xml version="1.0" encoding="UTF-8"?>
<svg width="37" height="22" viewBox="0 0 37 22" version="1.1" xmlns="http://www.w3.org/2000/svg" xmlns:xlink="http://www.w3.org/1999/xlink">
    <g id="Page-v2" stroke="none" stroke-width="1">
        <g id="Teacher-Dash-with-info---New-teacher-with-vouchers" transform="translate(-199.000000, -129.000000)">
            <g id="Welcome" transform="translate(183.852732, 111.997625)">
                <g id="Voucher-icon" transform="translate(15.000000, 17.000000)">
                    <path d="M0.185546841,0.158104627 L6.93554684,0.158104627 L6.93554684,4.03453483 C6.92980902,4.43395768 7.14296905,4.80548078 7.4934038,5.00684068 C7.84383854,5.20820059 8.27725514,5.20820059 8.62768989,5.00684068 C8.97812463,4.80548078 9.19128467,4.43395768 9.18554684,4.03453483 L9.18554684,0.158104627 L36.1855468,0.158104627 L36.1855468,21.2015829 L9.18554684,21.2015829 L9.18554684,17.3251527 C9.1925261,17.0061821 9.05946195,16.6997387 8.82043208,16.4843025 C8.58140221,16.2688664 8.25962226,16.1653616 7.93749997,16.2002957 C7.35790435,16.2629998 6.92300629,16.7512443 6.93554684,17.3251527 L6.93554684,21.2015829 L0.185546841,21.2015829 L0.185546841,0.158104627 Z M7.93749997,7.3398838 C7.35790435,7.4025879 6.92300629,7.8908324 6.93554684,8.46474078 L6.93554684,12.8949467 C6.92980902,13.2943696 7.14296905,13.6658927 7.4934038,13.8672526 C7.84383854,14.0686125 8.27725514,14.0686125 8.62768989,13.8672526 C8.97812463,13.6658927 9.19128467,13.2943696 9.18554684,12.8949467 L9.18554684,8.46474078 C9.1925261,8.14577019 9.05946195,7.8393268 8.82043208,7.62389064 C8.58140221,7.40845449 8.25962226,7.3049497 7.93749997,7.3398838 Z M19.2050781,13.4487225 C18.8030969,13.4671938 18.4416704,13.6954175 18.2569761,14.0474039 C18.0722819,14.3993903 18.0923871,14.8216495 18.3097166,15.1550833 C18.5270461,15.4885171 18.9085732,15.682455 19.3105468,15.6638255 L33.3730468,15.6638255 C33.7787622,15.6694743 34.1561384,15.4596203 34.3606705,15.1146207 C34.5652027,14.7696212 34.5652027,14.3429268 34.3606705,13.9979272 C34.1561384,13.6529276 33.7787622,13.4430736 33.3730468,13.4487225 L19.3105468,13.4487225 C19.2754099,13.4470994 19.240215,13.4470994 19.2050781,13.4487225 Z M19.2050781,17.3251527 C18.8030969,17.343624 18.4416704,17.5718477 18.2569761,17.9238341 C18.0722819,18.2758205 18.0923871,18.6980797 18.3097166,19.0315135 C18.5270461,19.3649473 18.9085732,19.5588853 19.3105468,19.5402557 L27.1855468,19.5402557 C27.5912622,19.5459045 27.9686384,19.3360505 28.1731705,18.9910509 C28.3777027,18.6460514 28.3777027,18.219357 28.1731705,17.8743574 C27.9686384,17.5293578 27.5912622,17.3195038 27.1855468,17.3251527 L19.3105468,17.3251527 C19.2754099,17.3235296 19.240215,17.3235296 19.2050781,17.3251527 Z" id="Shape"/>
                </g>
            </g>
        </g>
    </g>
</svg>
