<?xml version="1.0" encoding="UTF-8"?>
<svg width="21px" height="22px" viewBox="0 0 21 22" version="1.1" xmlns="http://www.w3.org/2000/svg" xmlns:xlink="http://www.w3.org/1999/xlink">
    <g id="Page-v2" stroke="none" stroke-width="1">
        <g id="Teacher-Dash-with-Company-hover" transform="translate(-881.000000, -614.000000)">
            <g id="ui-up-arrow" transform="translate(891.804830, 624.736738) scale(1, -1) translate(-891.804830, -624.736738) translate(881.304830, 614.236738)">
                <path d="M9.15354445,20.5574075 C8.90735368,20.5021846 8.66279511,20.4390727 8.41497213,20.3928269 C4.14295013,19.5903266 0.818694598,16.1433837 0.176966382,11.8474228 C-0.664978862,6.21441462 3.15002601,1.00822785 8.76780024,0.123845304 C14.3107651,-0.749111816 19.6004663,3.08847188 20.4807684,8.62055539 C21.3779365,14.2595483 17.6532469,19.4668232 12.0262235,20.4431532 C11.8515777,20.473349 11.6799243,20.5190507 11.5066386,20.5574075 C10.7223646,20.5574075 9.93809052,20.5574075 9.15354445,20.5574075 Z M19.3346891,10.2851315 C19.3276162,5.30962953 15.293896,1.2854305 10.3192102,1.29114322 C5.35377348,1.2965839 1.33256683,5.34444988 1.3475287,10.3229442 C1.36221854,15.2851165 5.3755362,19.289457 10.3339,19.289457 C15.3107621,19.289185 19.3414899,15.257097 19.3346891,10.2851315 Z" id="Shape"/>
                <path d="M10.4132689,11.6844833 C10.5360832,11.5561748 10.6423463,11.4500887 10.7435721,11.3389762 C11.9098277,10.0540389 13.0753637,8.76724977 14.2418592,7.4823125 C14.3361287,7.378872 14.4272799,7.26881767 14.5357019,7.18627692 C14.7621407,7.01299425 15.036074,7.04315337 15.2313295,7.24368507 C15.4373792,7.45506347 15.4740795,7.77490888 15.3116865,8.04237266 C15.2531578,8.1386702 15.17424,8.22068185 15.0989204,8.30348715 C13.7551598,9.78683969 12.3970069,11.2545836 11.0748348,12.7614814 C10.7169464,13.1694232 10.1201459,13.1839736 9.74906454,12.7612168 C8.4268924,11.2545836 7.06873952,9.78631059 5.72497894,8.30242894 C5.65013901,8.22015274 5.57074152,8.13787654 5.51197298,8.04210811 C5.36085388,7.79580862 5.38676001,7.48178339 5.56426498,7.27252142 C5.75448314,7.04844445 6.05144416,7.00638041 6.28915689,7.18707058 C6.39757885,7.26934678 6.48896992,7.37993022 6.58275971,7.48337071 C7.74949506,8.76830799 8.91479119,10.054568 10.0815266,11.3395053 C10.1822726,11.451147 10.2897351,11.5559102 10.4132689,11.6844833 Z" id="Shape"/>
            </g>
        </g>
    </g>
</svg>
