<?xml version="1.0" encoding="UTF-8"?>
<svg width="21px" height="22px" viewBox="0 0 21 22" version="1.1" xmlns="http://www.w3.org/2000/svg" xmlns:xlink="http://www.w3.org/1999/xlink">
    <g id="Page-v2" stroke="none" stroke-width="1">
        <g id="Teacher-Dash-with-Company-hover" transform="translate(-881.000000, -572.000000)">
            <g id="ui-down-arrow" transform="translate(881.304830, 572.807601)">
                <path d="M9.09294272,20.5574075 C8.84675195,20.5021846 8.60219338,20.4390727 8.3543704,20.3928269 C4.0823484,19.5903266 0.758092867,16.1433837 0.116364651,11.8474228 C-0.725580592,6.21441462 3.08942428,1.00822785 8.70719851,0.123845304 C14.2501634,-0.749111816 19.5398646,3.08847188 20.4201666,8.62055539 C21.3173348,14.2595483 17.5926452,19.4668232 11.9656218,20.4431532 C11.790976,20.473349 11.6193225,20.5190507 11.4460369,20.5574075 C10.6617628,20.5574075 9.87748879,20.5574075 9.09294272,20.5574075 Z M19.2740874,10.2851315 C19.2670145,5.30962953 15.2332943,1.2854305 10.2586084,1.29114322 C5.29317175,1.2965839 1.2719651,5.34444988 1.28692697,10.3229442 C1.30161681,15.2851165 5.31493447,19.289457 10.2732983,19.289457 C15.2501604,19.289185 19.2808882,15.257097 19.2740874,10.2851315 Z" id="Shape"/>
                <path d="M10.0001231,12.6115992 C10.1229374,12.4832907 10.2292005,12.3772046 10.3304263,12.2660921 C11.4966819,10.9811548 12.6622179,9.69436566 13.8287134,8.40942839 C13.9229829,8.30598789 14.0141341,8.19593356 14.1225561,8.11339281 C14.3489949,7.94011014 14.6229282,7.97026926 14.8181837,8.17080096 C15.0242334,8.38217936 15.0609337,8.70202477 14.8985407,8.96948855 C14.840012,9.06578609 14.7610942,9.14779774 14.6857746,9.23060304 C13.342014,10.7139556 11.9838611,12.1816995 10.661689,13.6885973 C10.3038006,14.0965391 9.70700008,14.1110895 9.33591874,13.6883327 C8.0137466,12.1816995 6.65559372,10.7134265 5.31183314,9.22954483 C5.23699321,9.14726863 5.15759572,9.06499243 5.09882718,8.969224 C4.94770809,8.72292451 4.97361422,8.40889928 5.15111918,8.19963731 C5.34133735,7.97556033 5.63829836,7.9334963 5.87601109,8.11418647 C5.98443305,8.19646267 6.07582412,8.30704611 6.16961391,8.4104866 C7.33634927,9.69542388 8.50164539,10.9816839 9.66838075,12.2666212 C9.76912682,12.3782628 9.87658928,12.4830261 10.0001231,12.6115992 Z" id="Shape"/>
            </g>
        </g>
    </g>
</svg>
