<?xml version="1.0" standalone="no"?>
<!DOCTYPE svg PUBLIC "-//W3C//DTD SVG 20010904//EN"
 "http://www.w3.org/TR/2001/REC-SVG-20010904/DTD/svg10.dtd">
<svg version="1.0" xmlns="http://www.w3.org/2000/svg"
 width="512.000000pt" height="512.000000pt" viewBox="0 0 512.000000 512.000000"
 preserveAspectRatio="xMidYMid meet">

<g transform="translate(0.000000,512.000000) scale(0.100000,-0.100000)"
fill="#000000" stroke="none">
<path d="M1365 4949 c-240 -35 -463 -147 -635 -319 -215 -216 -329 -495 -330
-809 0 -51 -5 -112 -12 -133 -17 -56 -88 -132 -153 -163 -79 -37 -99 -92 -50
-140 l24 -25 220 0 220 0 11 -42 c29 -116 88 -237 161 -334 31 -41 47 -70 39
-72 -36 -12 -168 -112 -230 -174 -120 -120 -202 -251 -256 -412 -53 -154 -54
-177 -54 -1184 l0 -933 25 -24 24 -25 2271 0 2271 0 24 25 25 24 0 933 c0
1010 -1 1030 -55 1187 l-25 75 0 487 0 488 38 68 c35 64 37 74 37 153 0 79 -3
90 -36 150 -30 54 -39 85 -53 182 -94 657 -665 1112 -1271 1013 -385 -62 -720
-346 -870 -734 -39 -101 -74 -240 -76 -306 -1 -26 -6 -7 -15 55 -40 277 -142
488 -324 670 -248 248 -605 368 -945 319z m386 -178 c389 -102 676 -427 722
-817 l5 -41 -82 5 c-89 4 -173 35 -233 86 -37 32 -83 118 -83 158 0 39 -40 78
-80 78 -46 0 -80 -38 -80 -92 -1 -112 -48 -216 -139 -307 -36 -37 -93 -83
-126 -102 -239 -140 -605 -219 -1017 -219 l-159 0 21 29 c41 59 52 111 61 281
5 110 14 191 28 241 96 368 390 644 760 714 104 20 301 13 402 -14z m2224 1
c175 -48 313 -131 446 -269 150 -155 238 -329 284 -558 l6 -30 -78 3 c-85 4
-185 37 -323 107 -225 114 -395 278 -460 445 -24 64 -51 90 -90 90 -39 0 -66
-26 -90 -90 -65 -167 -235 -331 -460 -445 -138 -70 -238 -103 -323 -107 l-78
-3 6 30 c46 229 134 403 284 558 158 164 321 250 551 291 56 10 257 -3 325
-22z m-146 -574 c122 -155 341 -304 571 -389 l75 -27 -1 -199 c-1 -186 -2
-203 -27 -278 -38 -115 -90 -199 -182 -290 -91 -91 -175 -144 -290 -182 -71
-23 -96 -26 -215 -26 -119 0 -144 3 -215 26 -115 38 -199 91 -290 182 -92 91
-144 175 -182 290 -25 75 -26 92 -27 278 l-1 199 75 27 c242 89 507 279 605
433 16 26 33 44 36 40 4 -4 34 -42 68 -84z m-1753 -329 c22 -18 67 -45 102
-61 l62 -30 0 -158 c0 -243 -34 -374 -133 -513 -92 -128 -210 -216 -364 -270
-80 -28 -100 -31 -213 -31 -148 -1 -216 14 -339 76 -100 50 -221 159 -279 251
-40 63 -92 183 -92 211 0 18 10 21 160 35 238 24 509 95 671 177 156 78 275
179 340 288 19 31 37 56 40 56 3 0 24 -14 45 -31z m388 -123 c18 -8 46 -31 62
-52 24 -31 29 -47 29 -95 0 -43 -5 -65 -21 -85 -28 -39 -63 -63 -101 -70 l-33
-6 0 161 c0 178 -2 174 64 147z m416 -146 c0 -177 1 -173 -63 -146 -125 52
-126 238 -2 292 66 29 65 31 65 -146z m1824 146 c18 -8 46 -31 62 -52 24 -31
29 -47 29 -95 0 -43 -5 -65 -21 -85 -28 -39 -63 -63 -101 -70 l-33 -6 0 161
c0 178 -2 174 64 147z m-2064 -853 l0 -488 -36 70 c-50 98 -114 184 -196 265
-62 62 -193 160 -230 172 -9 3 0 21 28 59 63 83 94 137 130 224 l32 80 57 7
c62 8 145 42 185 76 14 12 26 21 28 22 1 0 2 -219 2 -487z m269 381 c2 -2 18
-38 35 -81 36 -86 67 -140 130 -222 28 -38 37 -56 28 -59 -37 -12 -168 -110
-231 -172 l-71 -71 0 310 0 310 53 -6 c28 -3 54 -7 56 -9z m1811 -295 l0 -311
-72 72 c-65 64 -193 160 -230 172 -9 3 0 21 28 59 63 83 95 137 130 224 l32
80 48 6 c27 3 52 7 57 7 4 1 7 -138 7 -309z m-3656 -210 c48 -29 62 -48 227
-312 136 -219 181 -284 202 -291 58 -21 70 -8 256 291 165 264 179 283 228
312 28 17 57 31 65 31 30 0 185 -107 254 -174 114 -113 191 -246 236 -406 19
-66 22 -109 26 -347 l4 -273 -81 0 -81 0 0 135 c0 131 -1 137 -25 160 -32 33
-78 33 -110 0 l-25 -24 0 -536 0 -535 -720 0 -720 0 0 535 0 536 -25 24 c-15
16 -36 25 -55 25 -19 0 -40 -9 -55 -25 -24 -23 -25 -29 -25 -160 l0 -135 -80
0 -80 0 0 234 c0 265 12 364 61 485 70 175 202 333 359 429 46 29 90 52 98 52
8 0 37 -14 66 -31z m2204 19 c7 -7 12 -33 12 -58 0 -69 34 -191 77 -273 67
-130 199 -238 346 -283 55 -17 59 -17 115 0 201 63 348 221 402 432 11 43 20
98 20 124 0 86 25 89 140 18 247 -152 399 -409 417 -704 l6 -101 -155 -106
c-86 -58 -158 -114 -162 -122 -3 -9 -6 -111 -6 -226 l0 -209 -720 0 -720 0 0
209 c0 115 -3 217 -6 226 -4 8 -76 63 -160 122 l-154 105 0 63 c0 293 166 587
420 743 87 54 108 60 128 40z m341 -133 c46 -8 114 -15 151 -15 76 0 215 22
278 44 l42 15 -6 -27 c-37 -156 -121 -264 -250 -323 l-64 -29 -64 29 c-129 59
-213 167 -250 323 l-6 27 42 -15 c23 -8 80 -21 127 -29z m-1943 -30 c-7 -11
-41 -66 -76 -122 -35 -57 -66 -103 -70 -103 -4 0 -35 46 -70 103 -35 56 -69
111 -76 122 -13 20 -11 20 146 20 157 0 159 0 146 -20z m1139 -935 l75 -51 0
-235 0 -235 25 -24 c13 -14 31 -25 40 -25 13 0 15 -18 15 -115 0 -110 -4 -129
-71 -400 l-71 -285 -49 0 -49 0 0 710 c0 391 2 710 5 710 3 0 39 -23 80 -50z
m1995 -660 l0 -710 -49 0 -49 0 -71 285 c-67 271 -71 290 -71 400 0 97 2 115
15 115 9 0 27 11 40 25 l25 24 0 234 0 234 73 51 c39 28 75 51 80 52 4 0 7
-319 7 -710z m-4160 -150 l0 -560 -80 0 -80 0 0 560 0 560 80 0 80 0 0 -560z
m1920 0 l0 -560 -80 0 -80 0 0 560 0 560 80 0 80 0 0 -560z m1840 160 l0 -80
-640 0 -640 0 0 80 0 80 640 0 640 0 0 -80z m78 -480 l60 -240 -778 0 -778 0
60 240 60 240 658 0 658 0 60 -240z m-3038 -80 l0 -160 -320 0 -320 0 0 160 0
160 320 0 320 0 0 -160z m800 0 l0 -160 -320 0 -320 0 0 160 0 160 320 0 320
0 0 -160z"/>
<path d="M3385 3575 c-16 -15 -25 -36 -25 -55 0 -19 9 -40 25 -55 15 -16 36
-25 55 -25 19 0 40 9 55 25 16 15 25 36 25 55 0 19 -9 40 -25 55 -15 16 -36
25 -55 25 -19 0 -40 -9 -55 -25z"/>
<path d="M4025 3575 c-16 -15 -25 -36 -25 -55 0 -19 9 -40 25 -55 15 -16 36
-25 55 -25 19 0 40 9 55 25 16 15 25 36 25 55 0 19 -9 40 -25 55 -15 16 -36
25 -55 25 -19 0 -40 -9 -55 -25z"/>
<path d="M3465 3255 c-54 -53 -17 -123 90 -170 103 -46 212 -56 323 -30 164
39 246 132 177 200 -31 32 -72 32 -115 0 -43 -32 -119 -55 -180 -55 -61 0
-137 23 -180 55 -43 32 -84 32 -115 0z"/>
<path d="M1785 3575 c-50 -49 -15 -135 55 -135 41 0 80 39 80 80 0 41 -39 80
-80 80 -19 0 -40 -9 -55 -25z"/>
<path d="M1225 3255 c-54 -53 -17 -123 90 -170 103 -46 212 -56 323 -30 164
39 246 132 177 200 -31 32 -72 32 -115 0 -43 -32 -119 -55 -180 -55 -61 0
-137 23 -180 55 -43 32 -84 32 -115 0z"/>
</g>
</svg>
